####
#
# OBJ File Generated by Meshlab
#
####
# Object convhull_LAR_3.obj
#
# Vertices: 72
# Faces: 140
#
####
vn -0.275569 -3.021683 -3.900551
v -0.144497 -0.057000 -0.104983 0.698039 0.698039 0.698039
vn 0.000000 -3.020717 -4.004663
v -0.100492 -0.057000 -0.104983 0.698039 0.698039 0.698039
vn -3.021683 -0.275571 -3.900553
v -0.147497 -0.054000 -0.104983 0.698039 0.698039 0.698039
vn -2.599154 -1.384536 -4.053548
v -0.147095 -0.055500 -0.104983 0.698039 0.698039 0.698039
vn -1.384542 -2.599152 -4.053539
v -0.145997 -0.056598 -0.104983 0.698039 0.698039 0.698039
vn -3.020716 0.000000 -4.004656
v -0.147497 -0.024000 -0.104983 0.698039 0.698039 0.698039
vn 0.000000 0.000000 -6.283187
v -0.144497 -0.021000 -0.104983 0.698039 0.698039 0.698039
vn 0.000000 0.000000 -6.283185
v -0.145997 -0.021402 -0.104983 0.698039 0.698039 0.698039
vn 0.000000 0.000000 -6.283188
v -0.147095 -0.022500 -0.104983 0.698039 0.698039 0.698039
vn 0.000000 0.000000 -6.283185
v -0.100492 -0.021000 -0.104983 0.698039 0.698039 0.698039
vn 0.000000 0.000000 -6.283185
v -0.097492 -0.024000 -0.104983 0.698039 0.698039 0.698039
vn 0.000000 0.000000 -6.283185
v -0.097894 -0.022500 -0.104983 0.698039 0.698039 0.698039
vn 0.000000 0.000000 -6.283187
v -0.098992 -0.021402 -0.104983 0.698039 0.698039 0.698039
vn 0.000000 0.000000 -6.283185
v -0.097492 -0.054000 -0.104983 0.698039 0.698039 0.698039
vn 0.000000 0.000000 -6.283186
v -0.098992 -0.056598 -0.104983 0.698039 0.698039 0.698039
vn 0.000000 0.000000 -6.283185
v -0.097894 -0.055500 -0.104983 0.698039 0.698039 0.698039
vn 0.000000 0.000000 -6.283185
v -0.144497 0.031000 -0.104983 0.698039 0.698039 0.698039
vn 0.000000 0.000000 -6.283188
v -0.100492 0.031000 -0.104983 0.698039 0.698039 0.698039
vn -3.020716 0.000000 -4.004659
v -0.147497 0.034000 -0.104983 0.698039 0.698039 0.698039
vn 0.000000 0.000000 -6.283185
v -0.147095 0.032500 -0.104983 0.698039 0.698039 0.698039
vn 0.000000 0.000000 -6.283188
v -0.145997 0.031402 -0.104983 0.698039 0.698039 0.698039
vn -3.021683 0.275572 -3.900551
v -0.147497 0.064000 -0.104983 0.698039 0.698039 0.698039
vn -0.275572 3.021683 -3.900550
v -0.144497 0.067000 -0.104983 0.698039 0.698039 0.698039
vn -1.384545 2.599149 -4.053543
v -0.145997 0.066598 -0.104983 0.698039 0.698039 0.698039
vn -2.599154 1.384537 -4.053549
v -0.147095 0.065500 -0.104983 0.698039 0.698039 0.698039
vn 0.000000 3.020717 -4.004663
v -0.100492 0.067000 -0.104983 0.698039 0.698039 0.698039
vn 0.000000 0.000000 -6.283185
v -0.097492 0.064000 -0.104983 0.698039 0.698039 0.698039
vn 0.000000 0.000000 -6.283185
v -0.097894 0.065500 -0.104983 0.698039 0.698039 0.698039
vn 0.000000 0.000000 -6.283186
v -0.098992 0.066598 -0.104983 0.698039 0.698039 0.698039
vn 0.000000 0.000000 -6.283185
v -0.097492 0.034000 -0.104983 0.698039 0.698039 0.698039
vn 0.000000 0.000000 -6.283186
v -0.098992 0.031402 -0.104983 0.698039 0.698039 0.698039
vn 0.000000 0.000000 -6.283185
v -0.097894 0.032500 -0.104983 0.698039 0.698039 0.698039
vn 0.000000 -3.020716 -4.004654
v 0.019498 -0.057000 -0.104983 0.698039 0.698039 0.698039
vn 0.275568 -3.021684 -3.900553
v 0.063503 -0.057000 -0.104983 0.698039 0.698039 0.698039
vn 0.000000 0.000000 -6.283184
v 0.016498 -0.054000 -0.104983 0.698039 0.698039 0.698039
vn 0.000000 0.000000 -6.283186
v 0.016900 -0.055500 -0.104983 0.698039 0.698039 0.698039
vn 0.000000 0.000000 -6.283193
v 0.017998 -0.056598 -0.104983 0.698039 0.698039 0.698039
vn 0.000000 0.000000 -6.283185
v 0.016498 -0.024000 -0.104983 0.698039 0.698039 0.698039
vn 0.000000 0.000000 -6.283187
v 0.019498 -0.021000 -0.104983 0.698039 0.698039 0.698039
vn 0.000000 0.000000 -6.283185
v 0.017998 -0.021402 -0.104983 0.698039 0.698039 0.698039
vn 0.000000 0.000000 -6.283186
v 0.016900 -0.022500 -0.104983 0.698039 0.698039 0.698039
vn 0.000000 0.000000 -6.283185
v 0.063503 -0.021000 -0.104983 0.698039 0.698039 0.698039
vn 3.020717 0.000000 -4.004657
v 0.066503 -0.024000 -0.104983 0.698039 0.698039 0.698039
vn 0.000000 0.000000 -6.283186
v 0.066101 -0.022500 -0.104983 0.698039 0.698039 0.698039
vn 0.000000 0.000000 -6.283187
v 0.065003 -0.021402 -0.104983 0.698039 0.698039 0.698039
vn 3.021683 -0.275571 -3.900551
v 0.066503 -0.054000 -0.104983 0.698039 0.698039 0.698039
vn 1.384536 -2.599155 -4.053540
v 0.065003 -0.056598 -0.104983 0.698039 0.698039 0.698039
vn 2.599152 -1.384540 -4.053544
v 0.066101 -0.055500 -0.104983 0.698039 0.698039 0.698039
vn 0.000000 0.000000 -6.283184
v 0.016498 0.064000 -0.104983 0.698039 0.698039 0.698039
vn 0.000000 0.000000 -6.283185
v 0.016498 0.034000 -0.104983 0.698039 0.698039 0.698039
vn 0.000000 3.020716 -4.004654
v 0.019498 0.067000 -0.104983 0.698039 0.698039 0.698039
vn 0.000000 0.000000 -6.283193
v 0.017998 0.066598 -0.104983 0.698039 0.698039 0.698039
vn 0.000000 0.000000 -6.283185
v 0.016900 0.065500 -0.104983 0.698039 0.698039 0.698039
vn 0.275570 3.021683 -3.900552
v 0.063503 0.067000 -0.104983 0.698039 0.698039 0.698039
vn 3.021683 0.275572 -3.900550
v 0.066503 0.064000 -0.104983 0.698039 0.698039 0.698039
vn 2.599152 1.384541 -4.053545
v 0.066101 0.065500 -0.104983 0.698039 0.698039 0.698039
vn 1.384539 2.599153 -4.053543
v 0.065003 0.066598 -0.104983 0.698039 0.698039 0.698039
vn 0.000000 0.000000 -6.283185
v 0.016900 0.032500 -0.104983 0.698039 0.698039 0.698039
vn 0.000000 0.000000 -6.283188
v 0.017998 0.031402 -0.104983 0.698039 0.698039 0.698039
vn 0.000000 0.000000 -6.283185
v 0.019498 0.031000 -0.104983 0.698039 0.698039 0.698039
vn 0.000000 0.000000 -6.283187
v 0.063503 0.031000 -0.104983 0.698039 0.698039 0.698039
vn 0.000000 0.000000 -6.283186
v 0.065003 0.031402 -0.104983 0.698039 0.698039 0.698039
vn 0.000000 0.000000 -6.283189
v 0.066101 0.032500 -0.104983 0.698039 0.698039 0.698039
vn 3.020717 0.000000 -4.004654
v 0.066503 0.034000 -0.104983 0.698039 0.698039 0.698039
vn 1.570796 -1.570796 1.570796
v 0.069503 -0.060000 -0.082483 0.698039 0.698039 0.698039
vn 1.570796 1.570796 1.570796
v 0.069503 0.070000 -0.082483 0.698039 0.698039 0.698039
vn -1.570796 1.570797 1.570796
v -0.150497 0.070000 -0.082483 0.698039 0.698039 0.698039
vn -1.570796 -1.570797 1.570796
v -0.150497 -0.060000 -0.082483 0.698039 0.698039 0.698039
vn -2.814240 2.814240 -0.741561
v -0.150497 0.070000 -0.094483 0.698039 0.698039 0.698039
vn 2.814240 2.814241 -0.741560
v 0.069503 0.070000 -0.094483 0.698039 0.698039 0.698039
vn 2.814241 -2.814242 -0.741560
v 0.069503 -0.060000 -0.094483 0.698039 0.698039 0.698039
vn -2.814241 -2.814239 -0.741560
v -0.150497 -0.060000 -0.094483 0.698039 0.698039 0.698039
# 72 vertices, 0 vertices normals

f 1//1 2//2 72//72
f 1//1 3//3 7//7
f 1//1 5//5 3//3
f 1//1 7//7 2//2
f 1//1 72//72 5//5
f 2//2 7//7 10//10
f 2//2 10//10 14//14
f 2//2 14//14 16//16
f 2//2 15//15 37//37
f 2//2 16//16 15//15
f 2//2 33//33 72//72
f 2//2 37//37 33//33
f 3//3 4//4 72//72
f 3//3 5//5 4//4
f 3//3 6//6 7//7
f 3//3 72//72 6//6
f 4//4 5//5 72//72
f 6//6 8//8 7//7
f 6//6 9//9 8//8
f 6//6 19//19 9//9
f 6//6 72//72 19//19
f 7//7 8//8 21//21
f 7//7 17//17 10//10
f 7//7 21//21 17//17
f 8//8 9//9 21//21
f 9//9 19//19 20//20
f 9//9 20//20 21//21
f 10//10 11//11 14//14
f 10//10 13//13 11//11
f 10//10 17//17 18//18
f 10//10 18//18 13//13
f 11//11 12//12 38//38
f 11//11 13//13 12//12
f 11//11 35//35 14//14
f 11//11 38//38 35//35
f 12//12 13//13 31//31
f 12//12 31//31 32//32
f 12//12 32//32 41//41
f 12//12 41//41 38//38
f 13//13 18//18 31//31
f 14//14 35//35 16//16
f 15//15 16//16 36//36
f 15//15 36//36 37//37
f 16//16 35//35 36//36
f 17//17 19//19 22//22
f 17//17 21//21 19//19
f 17//17 22//22 23//23
f 17//17 23//23 18//18
f 18//18 23//23 26//26
f 18//18 26//26 30//30
f 18//18 30//30 32//32
f 18//18 32//32 31//31
f 19//19 21//21 20//20
f 19//19 69//69 22//22
f 19//19 72//72 69//69
f 22//22 24//24 23//23
f 22//22 25//25 24//24
f 22//22 69//69 25//25
f 23//23 24//24 69//69
f 23//23 69//69 26//26
f 24//24 25//25 69//69
f 26//26 27//27 30//30
f 26//26 28//28 27//27
f 26//26 29//29 28//28
f 26//26 51//51 52//52
f 26//26 52//52 29//29
f 26//26 69//69 51//51
f 27//27 28//28 49//49
f 27//27 49//49 50//50
f 27//27 50//50 30//30
f 28//28 29//29 53//53
f 28//28 53//53 49//49
f 29//29 52//52 53//53
f 30//30 50//50 32//32
f 32//32 50//50 58//58
f 32//32 58//58 41//41
f 33//33 34//34 71//71
f 33//33 35//35 39//39
f 33//33 37//37 35//35
f 33//33 39//39 34//34
f 33//33 71//71 72//72
f 34//34 39//39 42//42
f 34//34 42//42 46//46
f 34//34 46//46 48//48
f 34//34 47//47 71//71
f 34//34 48//48 47//47
f 35//35 37//37 36//36
f 35//35 38//38 39//39
f 38//38 40//40 39//39
f 38//38 41//41 40//40
f 39//39 40//40 59//59
f 39//39 59//59 60//60
f 39//39 60//60 42//42
f 40//40 41//41 59//59
f 41//41 58//58 59//59
f 42//42 43//43 46//46
f 42//42 44//44 43//43
f 42//42 45//45 44//44
f 42//42 60//60 61//61
f 42//42 61//61 45//45
f 43//43 44//44 63//63
f 43//43 63//63 64//64
f 43//43 64//64 71//71
f 43//43 71//71 46//46
f 44//44 45//45 62//62
f 44//44 62//62 63//63
f 45//45 61//61 62//62
f 46//46 71//71 48//48
f 47//47 48//48 71//71
f 49//49 51//51 60//60
f 49//49 52//52 51//51
f 49//49 53//53 52//52
f 49//49 60//60 50//50
f 50//50 59//59 58//58
f 50//50 60//60 59//59
f 51//51 54//54 61//61
f 51//51 61//61 60//60
f 51//51 69//69 70//70
f 51//51 70//70 54//54
f 54//54 55//55 64//64
f 54//54 56//56 55//55
f 54//54 57//57 56//56
f 54//54 64//64 61//61
f 54//54 70//70 57//57
f 55//55 56//56 70//70
f 55//55 70//70 64//64
f 56//56 57//57 70//70
f 61//61 63//63 62//62
f 61//61 64//64 63//63
f 64//64 70//70 71//71
f 65//65 66//66 67//67
f 65//65 67//67 68//68
f 65//65 68//68 71//71
f 65//65 70//70 66//66
f 65//65 71//71 70//70
f 66//66 70//70 67//67
f 67//67 69//69 68//68
f 67//67 70//70 69//69
f 68//68 69//69 72//72
f 68//68 72//72 71//71
# 140 faces, 0 coords texture

# End of File
