####
#
# OBJ File Generated by Meshlab
#
####
# Object convhull_RKP_2.obj
#
# Vertices: 114
# Faces: 224
#
####
vn 2.289560 -2.770848 -2.071774
v 0.059928 0.010000 -0.006939 0.698039 0.698039 0.698039
vn 0.000000 -6.283185 0.000000
v 0.060029 0.010000 -0.006774 0.698039 0.698039 0.698039
vn 2.678767 -3.140747 -1.641294
v 0.060131 0.010000 -0.006608 0.698039 0.698039 0.698039
vn 2.679853 -3.141116 -1.639517
v 0.060232 0.010000 -0.006443 0.698039 0.698039 0.698039
vn 2.679849 3.141116 -1.639514
v 0.060232 0.061000 -0.006443 0.698039 0.698039 0.698039
vn 2.678766 3.140747 -1.641293
v 0.060131 0.061000 -0.006608 0.698039 0.698039 0.698039
vn 0.000000 6.283185 0.000000
v 0.060029 0.061000 -0.006774 0.698039 0.698039 0.698039
vn 2.289565 2.770848 -2.071777
v 0.059928 0.061000 -0.006939 0.698039 0.698039 0.698039
vn 1.487936 2.840849 -2.726565
v -0.012509 0.061000 -0.061997 0.698039 0.698039 0.698039
vn -0.697934 1.887383 -2.446225
v -0.014882 0.061000 -0.062861 0.698039 0.698039 0.698039
vn -0.697934 -1.887383 -2.446226
v -0.014882 0.010000 -0.062861 0.698039 0.698039 0.698039
vn 1.487936 -2.840849 -2.726565
v -0.012509 0.010000 -0.061997 0.698039 0.698039 0.698039
vn 2.738930 -2.120454 -0.104784
v 0.061480 0.010000 -0.004402 0.698039 0.698039 0.698039
vn 2.738931 2.120454 -0.104784
v 0.061480 0.061000 -0.004402 0.698039 0.698039 0.698039
vn 0.000000 6.283197 0.000000
v 0.054159 0.061000 0.004480 0.698039 0.698039 0.698039
vn 0.000000 6.283185 0.000000
v 0.047904 0.061000 0.015640 0.698039 0.698039 0.698039
vn 0.000000 6.283183 0.000000
v 0.041175 0.061000 0.026521 0.698039 0.698039 0.698039
vn 0.000000 -6.283183 0.000000
v 0.041175 0.010000 0.026521 0.698039 0.698039 0.698039
vn 0.000000 -6.283185 0.000000
v 0.047904 0.010000 0.015640 0.698039 0.698039 0.698039
vn 0.000000 -6.283197 0.000000
v 0.054159 0.010000 0.004480 0.698039 0.698039 0.698039
vn 0.000000 -6.283185 0.000000
v 0.035776 0.010000 0.033398 0.698039 0.698039 0.698039
vn 0.000000 -6.283185 0.000000
v 0.029231 0.010000 0.039193 0.698039 0.698039 0.698039
vn 0.000000 -6.283186 0.000000
v 0.021751 0.010000 0.043720 0.698039 0.698039 0.698039
vn 0.000000 -6.283185 0.000000
v 0.013580 0.010000 0.046830 0.698039 0.698039 0.698039
vn 0.000000 -6.283182 0.000000
v 0.004983 0.010000 0.048422 0.698039 0.698039 0.698039
vn 0.000000 -6.283185 0.000000
v -0.003760 0.010000 0.048446 0.698039 0.698039 0.698039
vn 0.000000 -6.283187 0.000000
v -0.012365 0.010000 0.046899 0.698039 0.698039 0.698039
vn 0.000000 -6.283184 0.000000
v -0.020552 0.010000 0.043832 0.698039 0.698039 0.698039
vn 0.000000 -6.283185 0.000000
v -0.028056 0.010000 0.039346 0.698039 0.698039 0.698039
vn 0.000000 -6.283185 0.000000
v -0.034632 0.010000 0.033585 0.698039 0.698039 0.698039
vn 0.000000 -6.283184 0.000000
v -0.040068 0.010000 0.026737 0.698039 0.698039 0.698039
vn 0.000000 -6.283185 0.000000
v -0.044186 0.010000 0.019025 0.698039 0.698039 0.698039
vn 0.000000 -6.283185 0.000000
v -0.046852 0.010000 0.010698 0.698039 0.698039 0.698039
vn 0.000000 -6.283185 0.000000
v -0.047980 0.010000 0.002028 0.698039 0.698039 0.698039
vn 0.000000 -6.283185 0.000000
v -0.047533 0.010000 -0.006703 0.698039 0.698039 0.698039
vn 0.000000 -6.283185 0.000000
v -0.045526 0.010000 -0.015212 0.698039 0.698039 0.698039
vn 0.000000 -6.283185 0.000000
v -0.042023 0.010000 -0.023223 0.698039 0.698039 0.698039
vn 0.000000 -6.283185 0.000000
v -0.037140 0.010000 -0.030475 0.698039 0.698039 0.698039
vn 0.000000 -6.283184 0.000000
v -0.031034 0.010000 -0.036732 0.698039 0.698039 0.698039
vn 0.000000 -6.283187 0.000000
v -0.023903 0.010000 -0.041792 0.698039 0.698039 0.698039
vn 0.000000 -6.283185 0.000000
v -0.015981 0.010000 -0.045489 0.698039 0.698039 0.698039
vn 0.000000 -6.283186 0.000000
v -0.017459 0.010000 -0.050607 0.698039 0.698039 0.698039
vn 0.000000 -6.283185 0.000000
v -0.017854 0.010000 -0.048728 0.698039 0.698039 0.698039
vn 0.000000 -6.283185 0.000000
v -0.018145 0.010000 -0.047345 0.698039 0.698039 0.698039
vn 0.000000 -6.283187 0.000000
v -0.025954 0.010000 -0.043481 0.698039 0.698039 0.698039
vn 0.000000 -6.283185 0.000000
v -0.032992 0.010000 -0.038344 0.698039 0.698039 0.698039
vn -2.533354 -3.074048 -1.854850
v -0.039053 0.010000 -0.032085 0.698039 0.698039 0.698039
vn -2.727671 -2.970522 -1.535377
v -0.043960 0.010000 -0.024885 0.698039 0.698039 0.698039
vn -2.949220 -2.970557 -1.048667
v -0.047570 0.010000 -0.016954 0.698039 0.698039 0.698039
vn -3.084681 -2.970507 -0.531321
v -0.049777 0.010000 -0.008526 0.698039 0.698039 0.698039
vn -3.130104 -2.970497 0.001626
v -0.050517 0.010000 0.000156 0.698039 0.698039 0.698039
vn -3.084176 -2.970628 0.534341
v -0.049768 0.010000 0.008837 0.698039 0.698039 0.698039
vn -2.948223 -2.970506 1.051446
v -0.047553 0.010000 0.017264 0.698039 0.698039 0.698039
vn -2.726223 -2.970569 1.537959
v -0.043936 0.010000 0.025190 0.698039 0.698039 0.698039
vn -2.424555 -2.970433 1.979654
v -0.039022 0.010000 0.032386 0.698039 0.698039 0.698039
vn -2.052266 -2.970687 2.363453
v -0.032955 0.010000 0.038639 0.698039 0.698039 0.698039
vn -1.620167 -2.970519 2.678176
v -0.025913 0.010000 0.043769 0.698039 0.698039 0.698039
vn -1.140586 -2.970521 2.914899
v -0.018099 0.010000 0.047626 0.698039 0.698039 0.698039
vn -0.627592 -2.970446 3.066535
v -0.009744 0.010000 0.050096 0.698039 0.698039 0.698039
vn -0.096454 -2.970637 3.128636
v -0.001090 0.010000 0.051107 0.698039 0.698039 0.698039
vn 0.437364 -2.970536 3.099402
v 0.007610 0.010000 0.050631 0.698039 0.698039 0.698039
vn 0.958568 -2.970540 2.979720
v 0.016102 0.010000 0.048681 0.698039 0.698039 0.698039
vn 1.451787 -2.970541 2.773068
v 0.024138 0.010000 0.045314 0.698039 0.698039 0.698039
vn 1.902637 -2.970532 2.485468
v 0.031484 0.010000 0.040628 0.698039 0.698039 0.698039
vn 2.297986 -2.970509 2.125282
v 0.037925 0.010000 0.034760 0.698039 0.698039 0.698039
vn 2.575330 -3.035527 1.791522
v 0.043273 0.010000 0.027881 0.698039 0.698039 0.698039
vn 2.703467 -3.100273 1.598957
v 0.049784 0.010000 0.017374 0.698039 0.698039 0.698039
vn 2.767063 -3.100477 1.486202
v 0.055856 0.010000 0.006606 0.698039 0.698039 0.698039
vn 0.000000 6.283185 0.000000
v -0.018145 0.061000 -0.047345 0.698039 0.698039 0.698039
vn 2.767063 3.100477 1.486202
v 0.055856 0.061000 0.006606 0.698039 0.698039 0.698039
vn 2.703466 3.100273 1.598956
v 0.049784 0.061000 0.017374 0.698039 0.698039 0.698039
vn 2.575330 3.035527 1.791522
v 0.043273 0.061000 0.027881 0.698039 0.698039 0.698039
vn 2.297986 2.970509 2.125282
v 0.037925 0.061000 0.034760 0.698039 0.698039 0.698039
vn 1.902638 2.970532 2.485468
v 0.031484 0.061000 0.040628 0.698039 0.698039 0.698039
vn 1.451786 2.970541 2.773067
v 0.024138 0.061000 0.045314 0.698039 0.698039 0.698039
vn 0.958569 2.970540 2.979720
v 0.016102 0.061000 0.048681 0.698039 0.698039 0.698039
vn 0.437364 2.970535 3.099402
v 0.007610 0.061000 0.050631 0.698039 0.698039 0.698039
vn -0.096454 2.970637 3.128636
v -0.001090 0.061000 0.051107 0.698039 0.698039 0.698039
vn -0.627592 2.970446 3.066535
v -0.009744 0.061000 0.050096 0.698039 0.698039 0.698039
vn -1.140586 2.970521 2.914899
v -0.018099 0.061000 0.047626 0.698039 0.698039 0.698039
vn -1.620167 2.970519 2.678176
v -0.025913 0.061000 0.043769 0.698039 0.698039 0.698039
vn -2.052266 2.970687 2.363453
v -0.032955 0.061000 0.038639 0.698039 0.698039 0.698039
vn -2.424555 2.970434 1.979654
v -0.039022 0.061000 0.032386 0.698039 0.698039 0.698039
vn -2.726223 2.970569 1.537959
v -0.043936 0.061000 0.025190 0.698039 0.698039 0.698039
vn -2.948223 2.970506 1.051446
v -0.047553 0.061000 0.017264 0.698039 0.698039 0.698039
vn -3.084176 2.970628 0.534341
v -0.049768 0.061000 0.008837 0.698039 0.698039 0.698039
vn -3.130104 2.970497 0.001626
v -0.050517 0.061000 0.000156 0.698039 0.698039 0.698039
vn -3.084681 2.970507 -0.531321
v -0.049777 0.061000 -0.008526 0.698039 0.698039 0.698039
vn -2.949220 2.970557 -1.048667
v -0.047570 0.061000 -0.016954 0.698039 0.698039 0.698039
vn -2.727671 2.970522 -1.535377
v -0.043960 0.061000 -0.024885 0.698039 0.698039 0.698039
vn -2.533354 3.074048 -1.854850
v -0.039053 0.061000 -0.032085 0.698039 0.698039 0.698039
vn 0.000000 6.283185 0.000000
v -0.032992 0.061000 -0.038344 0.698039 0.698039 0.698039
vn 0.000000 6.283185 0.000000
v -0.025954 0.061000 -0.043481 0.698039 0.698039 0.698039
vn 0.000000 6.283185 0.000000
v -0.015981 0.061000 -0.045489 0.698039 0.698039 0.698039
vn 0.000000 6.283186 0.000000
v -0.023903 0.061000 -0.041792 0.698039 0.698039 0.698039
vn 0.000000 6.283184 0.000000
v -0.031034 0.061000 -0.036732 0.698039 0.698039 0.698039
vn 0.000000 6.283185 0.000000
v -0.037140 0.061000 -0.030475 0.698039 0.698039 0.698039
vn 0.000000 6.283185 0.000000
v -0.042023 0.061000 -0.023223 0.698039 0.698039 0.698039
vn 0.000000 6.283185 0.000000
v -0.045526 0.061000 -0.015212 0.698039 0.698039 0.698039
vn 0.000000 6.283185 0.000000
v -0.047533 0.061000 -0.006703 0.698039 0.698039 0.698039
vn 0.000000 6.283185 0.000000
v -0.047980 0.061000 0.002028 0.698039 0.698039 0.698039
vn 0.000000 6.283184 0.000000
v -0.046852 0.061000 0.010698 0.698039 0.698039 0.698039
vn 0.000000 6.283185 0.000000
v -0.044186 0.061000 0.019025 0.698039 0.698039 0.698039
vn 0.000000 6.283184 0.000000
v -0.040068 0.061000 0.026737 0.698039 0.698039 0.698039
vn 0.000000 6.283185 0.000000
v -0.034632 0.061000 0.033585 0.698039 0.698039 0.698039
vn 0.000000 6.283185 0.000000
v -0.028056 0.061000 0.039346 0.698039 0.698039 0.698039
vn 0.000000 6.283183 0.000000
v -0.020552 0.061000 0.043832 0.698039 0.698039 0.698039
vn 0.000000 6.283187 0.000000
v -0.012365 0.061000 0.046899 0.698039 0.698039 0.698039
vn 0.000000 6.283185 0.000000
v -0.003760 0.061000 0.048446 0.698039 0.698039 0.698039
vn 0.000000 6.283182 0.000000
v 0.004983 0.061000 0.048422 0.698039 0.698039 0.698039
vn 0.000000 6.283185 0.000000
v 0.013580 0.061000 0.046830 0.698039 0.698039 0.698039
vn 0.000000 6.283186 0.000000
v 0.021751 0.061000 0.043720 0.698039 0.698039 0.698039
vn 0.000000 6.283185 0.000000
v 0.029231 0.061000 0.039193 0.698039 0.698039 0.698039
vn 0.000000 6.283185 0.000000
v 0.035776 0.061000 0.033398 0.698039 0.698039 0.698039
# 114 vertices, 0 vertices normals

f 1//1 2//2 20//20
f 1//1 3//3 2//2
f 1//1 8//8 3//3
f 1//1 9//9 8//8
f 1//1 12//12 9//9
f 1//1 20//20 41//41
f 1//1 41//41 12//12
f 2//2 3//3 20//20
f 3//3 4//4 20//20
f 3//3 6//6 4//4
f 3//3 8//8 6//6
f 4//4 5//5 13//13
f 4//4 6//6 5//5
f 4//4 13//13 20//20
f 5//5 6//6 15//15
f 5//5 14//14 13//13
f 5//5 15//15 14//14
f 6//6 7//7 15//15
f 6//6 8//8 7//7
f 7//7 8//8 15//15
f 8//8 9//9 94//94
f 8//8 94//94 15//15
f 9//9 10//10 69//69
f 9//9 12//12 10//10
f 9//9 69//69 94//94
f 10//10 11//11 91//91
f 10//10 12//12 11//11
f 10//10 91//91 92//92
f 10//10 92//92 93//93
f 10//10 93//93 69//69
f 11//11 12//12 42//42
f 11//11 42//42 45//45
f 11//11 45//45 46//46
f 11//11 46//46 47//47
f 11//11 47//47 91//91
f 12//12 41//41 42//42
f 13//13 14//14 70//70
f 13//13 68//68 20//20
f 13//13 70//70 68//68
f 14//14 15//15 70//70
f 15//15 16//16 70//70
f 15//15 94//94 16//16
f 16//16 17//17 71//71
f 16//16 71//71 70//70
f 16//16 94//94 17//17
f 17//17 72//72 71//71
f 17//17 73//73 72//72
f 17//17 94//94 95//95
f 17//17 95//95 98//98
f 17//17 98//98 107//107
f 17//17 107//107 110//110
f 17//17 110//110 113//113
f 17//17 113//113 114//114
f 17//17 114//114 73//73
f 18//18 19//19 67//67
f 18//18 21//21 22//22
f 18//18 22//22 25//25
f 18//18 25//25 28//28
f 18//18 28//28 37//37
f 18//18 37//37 40//40
f 18//18 40//40 41//41
f 18//18 41//41 19//19
f 18//18 65//65 21//21
f 18//18 66//66 65//65
f 18//18 67//67 66//66
f 19//19 20//20 68//68
f 19//19 41//41 20//20
f 19//19 68//68 67//67
f 21//21 64//64 22//22
f 21//21 65//65 64//64
f 22//22 23//23 25//25
f 22//22 63//63 23//23
f 22//22 64//64 63//63
f 23//23 24//24 25//25
f 23//23 62//62 24//24
f 23//23 63//63 62//62
f 24//24 61//61 25//25
f 24//24 62//62 61//61
f 25//25 26//26 27//27
f 25//25 27//27 28//28
f 25//25 60//60 26//26
f 25//25 61//61 60//60
f 26//26 59//59 27//27
f 26//26 60//60 59//59
f 27//27 58//58 28//28
f 27//27 59//59 58//58
f 28//28 29//29 30//30
f 28//28 30//30 37//37
f 28//28 57//57 29//29
f 28//28 58//58 57//57
f 29//29 56//56 30//30
f 29//29 57//57 56//56
f 30//30 31//31 33//33
f 30//30 33//33 37//37
f 30//30 55//55 31//31
f 30//30 56//56 55//55
f 31//31 32//32 33//33
f 31//31 54//54 32//32
f 31//31 55//55 54//54
f 32//32 53//53 33//33
f 32//32 54//54 53//53
f 33//33 34//34 35//35
f 33//33 35//35 37//37
f 33//33 52//52 34//34
f 33//33 53//53 52//52
f 34//34 51//51 35//35
f 34//34 52//52 51//51
f 35//35 36//36 37//37
f 35//35 50//50 36//36
f 35//35 51//51 50//50
f 36//36 49//49 37//37
f 36//36 50//50 49//49
f 37//37 38//38 39//39
f 37//37 39//39 40//40
f 37//37 48//48 38//38
f 37//37 49//49 48//48
f 38//38 46//46 39//39
f 38//38 47//47 46//46
f 38//38 48//48 47//47
f 39//39 45//45 40//40
f 39//39 46//46 45//45
f 40//40 44//44 41//41
f 40//40 45//45 44//44
f 41//41 43//43 42//42
f 41//41 44//44 43//43
f 42//42 43//43 45//45
f 43//43 44//44 45//45
f 47//47 48//48 90//90
f 47//47 90//90 91//91
f 48//48 49//49 89//89
f 48//48 89//89 90//90
f 49//49 50//50 88//88
f 49//49 88//88 89//89
f 50//50 51//51 87//87
f 50//50 87//87 88//88
f 51//51 52//52 87//87
f 52//52 53//53 86//86
f 52//52 86//86 87//87
f 53//53 54//54 85//85
f 53//53 85//85 86//86
f 54//54 55//55 84//84
f 54//54 84//84 85//85
f 55//55 56//56 83//83
f 55//55 83//83 84//84
f 56//56 57//57 82//82
f 56//56 82//82 83//83
f 57//57 58//58 81//81
f 57//57 81//81 82//82
f 58//58 59//59 80//80
f 58//58 80//80 81//81
f 59//59 60//60 79//79
f 59//59 79//79 80//80
f 60//60 61//61 78//78
f 60//60 78//78 79//79
f 61//61 62//62 77//77
f 61//61 77//77 78//78
f 62//62 63//63 76//76
f 62//62 76//76 77//77
f 63//63 64//64 75//75
f 63//63 75//75 76//76
f 64//64 65//65 74//74
f 64//64 74//74 75//75
f 65//65 66//66 73//73
f 65//65 73//73 74//74
f 66//66 67//67 72//72
f 66//66 72//72 73//73
f 67//67 68//68 71//71
f 67//67 71//71 72//72
f 68//68 70//70 71//71
f 69//69 93//93 95//95
f 69//69 95//95 94//94
f 73//73 114//114 74//74
f 74//74 113//113 75//75
f 74//74 114//114 113//113
f 75//75 112//112 76//76
f 75//75 113//113 112//112
f 76//76 111//111 77//77
f 76//76 112//112 111//111
f 77//77 110//110 78//78
f 77//77 111//111 110//110
f 78//78 109//109 79//79
f 78//78 110//110 109//109
f 79//79 108//108 80//80
f 79//79 109//109 108//108
f 80//80 107//107 81//81
f 80//80 108//108 107//107
f 81//81 106//106 82//82
f 81//81 107//107 106//106
f 82//82 105//105 83//83
f 82//82 106//106 105//105
f 83//83 104//104 84//84
f 83//83 105//105 104//104
f 84//84 103//103 85//85
f 84//84 104//104 103//103
f 85//85 102//102 86//86
f 85//85 103//103 102//102
f 86//86 101//101 87//87
f 86//86 102//102 101//101
f 87//87 100//100 88//88
f 87//87 101//101 100//100
f 88//88 99//99 89//89
f 88//88 100//100 99//99
f 89//89 98//98 90//90
f 89//89 99//99 98//98
f 90//90 97//97 91//91
f 90//90 98//98 97//97
f 91//91 97//97 92//92
f 92//92 96//96 93//93
f 92//92 97//97 96//96
f 93//93 96//96 95//95
f 95//95 96//96 98//98
f 96//96 97//97 98//98
f 98//98 99//99 100//100
f 98//98 100//100 102//102
f 98//98 102//102 105//105
f 98//98 105//105 107//107
f 100//100 101//101 102//102
f 102//102 103//103 104//104
f 102//102 104//104 105//105
f 105//105 106//106 107//107
f 107//107 108//108 110//110
f 108//108 109//109 110//110
f 110//110 111//111 112//112
f 110//110 112//112 113//113
# 224 faces, 0 coords texture

# End of File
