####
#
# OBJ File Generated by Meshlab
#
####
# Object convhull_LWP_1.obj
#
# Vertices: 86
# Faces: 168
#
####
vn -0.614787 -6.049911 -0.848549
v -0.011000 -0.012655 -0.003000 0.698039 0.698039 0.698039
vn -2.214216 -5.547390 -0.752725
v -0.014061 -0.012047 -0.003000 0.698039 0.698039 0.698039
vn -4.184643 -4.415089 -0.414354
v -0.016657 -0.010312 -0.003000 0.698039 0.698039 0.698039
vn -5.693594 -2.313547 -0.116991
v -0.018391 -0.007717 -0.003000 0.698039 0.698039 0.698039
vn -6.167181 -0.490290 -0.475716
v -0.019000 -0.004655 -0.003000 0.698039 0.698039 0.698039
vn -6.167187 0.490265 -0.475698
v -0.019000 0.004344 -0.003000 0.698039 0.698039 0.698039
vn -5.693653 2.313495 -0.116773
v -0.018391 0.007406 -0.003000 0.698039 0.698039 0.698039
vn -4.184654 4.415170 -0.414090
v -0.016657 0.010001 -0.003000 0.698039 0.698039 0.698039
vn -2.215272 5.547372 -0.752457
v -0.014061 0.011736 -0.003000 0.698039 0.698039 0.698039
vn -0.615609 6.049705 -0.848381
v -0.011000 0.012345 -0.003000 0.698039 0.698039 0.698039
vn 0.000000 6.172489 -0.826608
v -0.008313 0.012345 -0.003000 0.698039 0.698039 0.698039
vn 0.000238 6.172466 -0.826612
v 0.009334 0.012345 -0.003000 0.698039 0.698039 0.698039
vn 0.700545 5.930742 -1.118211
v 0.022619 0.012344 -0.003000 0.698039 0.698039 0.698039
vn 2.251119 5.029408 -1.564702
v 0.025298 0.011812 -0.003000 0.698039 0.698039 0.698039
vn 3.759493 3.621478 -1.885433
v 0.027569 0.010294 -0.003000 0.698039 0.698039 0.698039
vn 4.658905 1.864727 -2.063454
v 0.029086 0.008023 -0.003000 0.698039 0.698039 0.698039
vn 5.059131 0.474453 -2.258454
v 0.029619 0.005344 -0.003000 0.698039 0.698039 0.698039
vn 5.059124 -0.474459 -2.258459
v 0.029619 -0.005655 -0.003000 0.698039 0.698039 0.698039
vn 4.658875 -1.864727 -2.063476
v 0.029086 -0.008334 -0.003000 0.698039 0.698039 0.698039
vn 3.759440 -3.621445 -1.885492
v 0.027569 -0.010605 -0.003000 0.698039 0.698039 0.698039
vn 2.251081 -5.029331 -1.564811
v 0.025298 -0.012123 -0.003000 0.698039 0.698039 0.698039
vn 0.700352 -5.930673 -1.118297
v 0.022619 -0.012655 -0.003000 0.698039 0.698039 0.698039
vn 0.000000 -6.172488 -0.826608
v 0.008666 -0.012655 -0.003000 0.698039 0.698039 0.698039
vn 0.000000 -6.172489 -0.826608
v -0.008313 -0.012655 -0.003000 0.698039 0.698039 0.698039
vn 0.305957 -3.111508 2.945561
v 0.022619 -0.012655 0.003000 0.698039 0.698039 0.698039
vn 0.000000 -3.141593 3.141594
v 0.008666 -0.012655 0.003000 0.698039 0.698039 0.698039
vn -0.306026 -3.111494 2.945517
v -0.011000 -0.012655 0.003000 0.698039 0.698039 0.698039
vn -1.178855 -2.846672 2.748511
v -0.014061 -0.012047 0.003000 0.698039 0.698039 0.698039
vn -2.178881 -2.178689 2.749022
v -0.016657 -0.010312 0.003000 0.698039 0.698039 0.698039
vn -2.846673 -1.179127 2.748851
v -0.018391 -0.007717 0.003000 0.698039 0.698039 0.698039
vn -3.111417 -0.306413 2.945265
v -0.019000 -0.004655 0.003000 0.698039 0.698039 0.698039
vn -3.111417 0.306413 2.945266
v -0.019000 0.004344 0.003000 0.698039 0.698039 0.698039
vn -2.846673 1.179127 2.748851
v -0.018391 0.007406 0.003000 0.698039 0.698039 0.698039
vn -2.178882 2.178689 2.749022
v -0.016657 0.010001 0.003000 0.698039 0.698039 0.698039
vn -1.179340 2.846576 2.748826
v -0.014061 0.011736 0.003000 0.698039 0.698039 0.698039
vn -0.306510 3.111398 2.945202
v -0.011000 0.012345 0.003000 0.698039 0.698039 0.698039
vn 0.000000 3.141593 3.141619
v -0.008313 0.012345 0.003000 0.698039 0.698039 0.698039
vn 0.000000 0.000000 6.283185
v -0.004635 0.010195 0.003000 0.698039 0.698039 0.698039
vn 0.000000 0.000000 6.283185
v -0.000460 0.009349 0.003000 0.698039 0.698039 0.698039
vn 0.000000 0.000000 6.283186
v 0.003764 0.009897 0.003000 0.698039 0.698039 0.698039
vn 0.000000 0.000000 6.283186
v 0.007584 0.011781 0.003000 0.698039 0.698039 0.698039
vn 0.000000 0.000000 6.283185
v 0.008124 0.012090 0.003000 0.698039 0.698039 0.698039
vn 0.000000 0.000000 6.283185
v 0.008716 0.012280 0.003000 0.698039 0.698039 0.698039
vn 0.000118 3.141593 3.141523
v 0.009334 0.012345 0.003000 0.698039 0.698039 0.698039
vn 0.306075 3.111508 2.945635
v 0.022619 0.012344 0.003000 0.698039 0.698039 0.698039
vn 1.178870 2.846631 2.748403
v 0.025298 0.011812 0.003000 0.698039 0.698039 0.698039
vn 2.179097 2.178435 2.748934
v 0.027569 0.010294 0.003000 0.698039 0.698039 0.698039
vn 2.846786 1.179026 2.749067
v 0.029086 0.008023 0.003000 0.698039 0.698039 0.698039
vn 3.111398 0.306511 2.945202
v 0.029619 0.005344 0.003000 0.698039 0.698039 0.698039
vn 3.111398 -0.306511 2.945201
v 0.029619 -0.005655 0.003000 0.698039 0.698039 0.698039
vn 2.846786 -1.179026 2.749067
v 0.029086 -0.008334 0.003000 0.698039 0.698039 0.698039
vn 2.179097 -2.178434 2.748934
v 0.027569 -0.010605 0.003000 0.698039 0.698039 0.698039
vn 1.178870 -2.846631 2.748403
v 0.025298 -0.012123 0.003000 0.698039 0.698039 0.698039
vn 0.000000 0.000000 6.283185
v 0.008446 -0.012631 0.003000 0.698039 0.698039 0.698039
vn 0.000000 0.000000 6.283185
v 0.008236 -0.012558 0.003000 0.698039 0.698039 0.698039
vn 0.000000 0.000000 6.283187
v 0.008048 -0.012441 0.003000 0.698039 0.698039 0.698039
vn 0.000000 0.000000 6.283185
v 0.004178 -0.010341 0.003000 0.698039 0.698039 0.698039
vn 0.000000 0.000000 6.283186
v -0.000170 -0.009653 0.003000 0.698039 0.698039 0.698039
vn 0.000000 0.000000 6.283185
v -0.004499 -0.010455 0.003000 0.698039 0.698039 0.698039
vn 0.000000 -3.141593 3.141606
v -0.008313 -0.012655 0.003000 0.698039 0.698039 0.698039
vn 0.000000 0.000000 -6.283185
v 0.005540 -0.001705 -0.019500 0.698039 0.698039 0.698039
vn 0.000000 0.000000 -6.283185
v 0.001550 -0.005695 -0.019500 0.698039 0.698039 0.698039
vn 0.000000 -3.030895 -3.968200
v 0.001550 -0.008155 -0.019500 0.698039 0.698039 0.698039
vn 1.618081 0.000000 -5.834439
v 0.008000 -0.001705 -0.019500 0.698039 0.698039 0.698039
vn 0.000000 0.000000 -6.283185
v 0.001550 0.005385 -0.019500 0.698039 0.698039 0.698039
vn 0.000000 0.000000 -6.283185
v 0.005540 0.001395 -0.019500 0.698039 0.698039 0.698039
vn 1.618081 0.000000 -5.834439
v 0.008000 0.001395 -0.019500 0.698039 0.698039 0.698039
vn 0.000000 3.030895 -3.968201
v 0.001550 0.007845 -0.019500 0.698039 0.698039 0.698039
vn 0.000000 0.000000 -6.283185
v -0.005540 0.001395 -0.019500 0.698039 0.698039 0.698039
vn 0.000000 0.000000 -6.283185
v -0.001550 0.005385 -0.019500 0.698039 0.698039 0.698039
vn 0.000000 3.030895 -3.968200
v -0.001550 0.007845 -0.019500 0.698039 0.698039 0.698039
vn -1.618081 0.000000 -5.834438
v -0.008000 0.001395 -0.019500 0.698039 0.698039 0.698039
vn 0.000000 0.000000 -6.283185
v -0.005540 -0.001705 -0.019500 0.698039 0.698039 0.698039
vn -1.618081 0.000000 -5.834438
v -0.008000 -0.001705 -0.019500 0.698039 0.698039 0.698039
vn 0.000000 0.000000 -6.283185
v -0.001550 -0.005695 -0.019500 0.698039 0.698039 0.698039
vn 0.000000 -3.030895 -3.968201
v -0.001550 -0.008155 -0.019500 0.698039 0.698039 0.698039
vn 0.910569 -2.497693 -3.695177
v 0.008000 -0.008155 -0.019500 0.698039 0.698039 0.698039
vn 2.834190 -2.343200 -4.144749
v 0.015489 -0.008155 -0.015000 0.698039 0.698039 0.698039
vn -4.773733 -2.392615 -1.243082
v -0.018011 -0.008155 -0.008000 0.698039 0.698039 0.698039
vn -2.935143 -2.305331 -2.556353
v -0.015489 -0.008155 -0.015000 0.698039 0.698039 0.698039
vn -0.961421 -2.511235 -3.629807
v -0.008000 -0.008155 -0.019500 0.698039 0.698039 0.698039
vn -0.961421 2.511235 -3.629807
v -0.008000 0.007845 -0.019500 0.698039 0.698039 0.698039
vn 0.910594 2.497703 -3.695143
v 0.008000 0.007845 -0.019500 0.698039 0.698039 0.698039
vn 2.834031 2.343429 -4.144487
v 0.015489 0.007845 -0.015000 0.698039 0.698039 0.698039
vn -2.935143 2.305346 -2.556286
v -0.015489 0.007845 -0.015000 0.698039 0.698039 0.698039
vn -4.773205 2.393001 -1.242836
v -0.018011 0.007845 -0.008000 0.698039 0.698039 0.698039
# 86 vertices, 0 vertices normals

f 1//1 2//2 80//80
f 1//1 24//24 27//27
f 1//1 27//27 28//28
f 1//1 28//28 2//2
f 1//1 80//80 81//81
f 1//1 81//81 24//24
f 2//2 3//3 80//80
f 2//2 28//28 29//29
f 2//2 29//29 3//3
f 3//3 4//4 79//79
f 3//3 29//29 30//30
f 3//3 30//30 4//4
f 3//3 79//79 80//80
f 4//4 5//5 79//79
f 4//4 30//30 31//31
f 4//4 31//31 5//5
f 5//5 6//6 79//79
f 5//5 31//31 6//6
f 6//6 7//7 86//86
f 6//6 31//31 32//32
f 6//6 32//32 7//7
f 6//6 86//86 79//79
f 7//7 8//8 86//86
f 7//7 32//32 33//33
f 7//7 33//33 8//8
f 8//8 9//9 85//85
f 8//8 33//33 34//34
f 8//8 34//34 9//9
f 8//8 85//85 86//86
f 9//9 10//10 85//85
f 9//9 34//34 35//35
f 9//9 35//35 10//10
f 10//10 11//11 82//82
f 10//10 35//35 36//36
f 10//10 36//36 11//11
f 10//10 82//82 85//85
f 11//11 12//12 68//68
f 11//11 36//36 37//37
f 11//11 37//37 12//12
f 11//11 68//68 71//71
f 11//11 71//71 82//82
f 12//12 13//13 83//83
f 12//12 37//37 44//44
f 12//12 44//44 13//13
f 12//12 83//83 68//68
f 13//13 14//14 83//83
f 13//13 44//44 45//45
f 13//13 45//45 14//14
f 14//14 15//15 84//84
f 14//14 45//45 46//46
f 14//14 46//46 15//15
f 14//14 84//84 83//83
f 15//15 16//16 84//84
f 15//15 46//46 47//47
f 15//15 47//47 16//16
f 16//16 17//17 84//84
f 16//16 47//47 48//48
f 16//16 48//48 17//17
f 17//17 18//18 78//78
f 17//17 48//48 49//49
f 17//17 49//49 50//50
f 17//17 50//50 18//18
f 17//17 78//78 84//84
f 18//18 19//19 78//78
f 18//18 50//50 51//51
f 18//18 51//51 19//19
f 19//19 20//20 78//78
f 19//19 51//51 52//52
f 19//19 52//52 20//20
f 20//20 21//21 78//78
f 20//20 52//52 53//53
f 20//20 53//53 21//21
f 21//21 22//22 77//77
f 21//21 25//25 22//22
f 21//21 53//53 25//25
f 21//21 77//77 78//78
f 22//22 23//23 77//77
f 22//22 25//25 26//26
f 22//22 26//26 23//23
f 23//23 24//24 63//63
f 23//23 26//26 60//60
f 23//23 60//60 24//24
f 23//23 63//63 77//77
f 24//24 60//60 27//27
f 24//24 76//76 63//63
f 24//24 81//81 76//76
f 25//25 44//44 26//26
f 25//25 45//45 44//44
f 25//25 49//49 45//45
f 25//25 50//50 49//49
f 25//25 51//51 50//50
f 25//25 52//52 51//51
f 25//25 53//53 52//52
f 26//26 44//44 56//56
f 26//26 54//54 60//60
f 26//26 55//55 54//54
f 26//26 56//56 55//55
f 27//27 29//29 28//28
f 27//27 31//31 29//29
f 27//27 59//59 31//31
f 27//27 60//60 59//59
f 29//29 31//31 30//30
f 31//31 38//38 32//32
f 31//31 59//59 38//38
f 32//32 34//34 33//33
f 32//32 36//36 34//34
f 32//32 38//38 36//36
f 34//34 36//36 35//35
f 36//36 38//38 37//37
f 37//37 38//38 41//41
f 37//37 41//41 42//42
f 37//37 42//42 43//43
f 37//37 43//43 44//44
f 38//38 39//39 41//41
f 38//38 59//59 39//39
f 39//39 40//40 41//41
f 39//39 58//58 40//40
f 39//39 59//59 58//58
f 40//40 57//57 41//41
f 40//40 58//58 57//57
f 41//41 43//43 42//42
f 41//41 44//44 43//43
f 41//41 56//56 44//44
f 41//41 57//57 56//56
f 45//45 47//47 46//46
f 45//45 48//48 47//47
f 45//45 49//49 48//48
f 54//54 55//55 60//60
f 55//55 56//56 60//60
f 56//56 57//57 58//58
f 56//56 58//58 59//59
f 56//56 59//59 60//60
f 61//61 62//62 73//73
f 61//61 64//64 77//77
f 61//61 66//66 64//64
f 61//61 69//69 66//66
f 61//61 73//73 69//69
f 61//61 77//77 62//62
f 62//62 63//63 75//75
f 62//62 75//75 73//73
f 62//62 77//77 63//63
f 63//63 76//76 75//75
f 64//64 66//66 67//67
f 64//64 67//67 84//84
f 64//64 78//78 77//77
f 64//64 84//84 78//78
f 65//65 66//66 69//69
f 65//65 68//68 83//83
f 65//65 69//69 70//70
f 65//65 70//70 71//71
f 65//65 71//71 68//68
f 65//65 83//83 66//66
f 66//66 83//83 67//67
f 67//67 83//83 84//84
f 69//69 72//72 82//82
f 69//69 73//73 72//72
f 69//69 82//82 70//70
f 70//70 82//82 71//71
f 72//72 73//73 74//74
f 72//72 74//74 85//85
f 72//72 85//85 82//82
f 73//73 75//75 81//81
f 73//73 81//81 74//74
f 74//74 80//80 85//85
f 74//74 81//81 80//80
f 75//75 76//76 81//81
f 79//79 86//86 80//80
f 80//80 86//86 85//85
# 168 faces, 0 coords texture

# End of File
