####
#
# OBJ File Generated by Meshlab
#
####
# Object convhull_RHP_NoShell_1.obj
#
# Vertices: 101
# Faces: 198
#
####
vn -6.183418 0.331769 0.360501
v -0.047498 0.007500 0.000477 0.698039 0.698039 0.698039
vn 4.286881 1.248666 -2.265391
v 0.084633 0.109500 -0.144919 0.698039 0.698039 0.698039
vn 1.296888 -5.954890 0.466663
v 0.044116 -0.005000 0.008874 0.698039 0.698039 0.698039
vn -1.980407 -5.529157 0.421743
v -0.044154 -0.005000 0.008684 0.698039 0.698039 0.698039
vn 0.417114 -5.533247 1.976028
v 0.008684 -0.005000 0.044154 0.698039 0.698039 0.698039
vn -2.092238 -5.416755 -0.487079
v -0.044116 -0.005000 -0.008874 0.698039 0.698039 0.698039
vn -1.155086 -5.530591 1.660841
v -0.025081 -0.005000 0.037362 0.698039 0.698039 0.698039
vn -0.402134 -5.533886 1.985476
v -0.008874 -0.005000 0.044116 0.698039 0.698039 0.698039
vn 1.953078 -2.506197 3.864165
v 0.020877 -0.003000 0.042666 0.698039 0.698039 0.698039
vn 1.661110 -5.532644 1.150922
v 0.037362 -0.005000 0.025081 0.698039 0.698039 0.698039
vn -0.368918 6.254565 0.080400
v 0.012552 0.126000 -0.116964 0.698039 0.698039 0.698039
vn 2.263305 -2.586533 3.438343
v 0.026073 -0.003000 0.039705 0.698039 0.698039 0.698039
vn 3.560269 5.035311 0.191577
v 0.076102 0.119500 -0.109894 0.698039 0.698039 0.698039
vn 2.747092 -2.520642 3.299599
v 0.030855 -0.003000 0.036114 0.698039 0.698039 0.698039
vn 3.420487 -2.352253 3.232969
v 0.035149 -0.003000 0.031950 0.698039 0.698039 0.698039
vn 4.073010 -2.254838 2.930832
v 0.038885 -0.003000 0.027281 0.698039 0.698039 0.698039
vn -4.737475 -2.575756 0.034773
v -0.047498 -0.003000 0.000477 0.698039 0.698039 0.698039
vn -4.910824 -2.274952 0.689402
v -0.047061 -0.003000 0.006442 0.698039 0.698039 0.698039
vn -4.742275 -2.180250 1.336447
v -0.045879 -0.003000 0.012304 0.698039 0.698039 0.698039
vn -4.183788 -2.401228 1.778372
v -0.043969 -0.003000 0.017972 0.698039 0.698039 0.698039
vn -3.594756 -2.570215 2.085587
v -0.041362 -0.003000 0.023354 0.698039 0.698039 0.698039
vn 4.266536 -2.549324 2.296862
v 0.042004 -0.003000 0.022178 0.698039 0.698039 0.698039
vn -3.332600 -2.581225 2.431267
v -0.038100 -0.003000 0.028366 0.698039 0.698039 0.698039
vn -3.271883 -2.435088 3.061940
v -0.034233 -0.003000 0.032929 0.698039 0.698039 0.698039
vn -3.107703 -2.205957 3.758476
v -0.029824 -0.003000 0.036970 0.698039 0.698039 0.698039
vn -2.585971 -2.130828 4.258495
v -0.024943 -0.003000 0.040424 0.698039 0.698039 0.698039
vn -1.924373 -2.304901 4.312180
v -0.019665 -0.003000 0.043238 0.698039 0.698039 0.698039
vn -1.492974 -2.233081 4.600533
v -0.014077 -0.003000 0.045366 0.698039 0.698039 0.698039
vn -0.847456 -2.118508 4.928242
v -0.008264 -0.003000 0.046776 0.698039 0.698039 0.698039
vn -0.182645 -2.302185 4.727485
v -0.002321 -0.003000 0.047443 0.698039 0.698039 0.698039
vn 0.305139 -2.263267 4.784127
v 0.003659 -0.003000 0.047359 0.698039 0.698039 0.698039
vn -4.883459 -2.492819 -0.474695
v -0.047181 -0.003000 -0.005495 0.698039 0.698039 0.698039
vn 1.019752 -2.112303 4.906553
v 0.009580 -0.003000 0.046524 0.698039 0.698039 0.698039
vn 1.593289 -2.297395 4.463832
v 0.015350 -0.003000 0.044951 0.698039 0.698039 0.698039
vn -3.531832 2.974526 -0.560867
v -0.035861 0.119500 -0.094580 0.698039 0.698039 0.698039
vn 5.690718 -0.725757 2.260988
v 0.059326 0.007500 -0.010011 0.698039 0.698039 0.698039
vn 6.071776 0.000006 1.597047
v 0.071102 0.013500 -0.048537 0.698039 0.698039 0.698039
vn 1.582623 0.000000 -5.855429
v 0.076102 0.113500 -0.149894 0.698039 0.698039 0.698039
vn -4.780013 -2.397823 -1.187057
v -0.035749 0.007500 -0.095176 0.698039 0.698039 0.698039
vn 0.017385 -6.269137 -0.236619
v 0.008874 -0.005000 -0.044116 0.698039 0.698039 0.698039
vn 3.677546 -3.713384 1.296534
v 0.056269 -0.003000 -0.009791 0.698039 0.698039 0.698039
vn 3.128947 -4.428655 0.597109
v 0.056656 -0.003000 -0.011313 0.698039 0.698039 0.698039
vn -3.565060 2.963895 -1.092446
v -0.035569 0.119500 -0.095757 0.698039 0.698039 0.698039
vn 1.582623 0.000000 -5.855429
v 0.076102 0.013500 -0.149894 0.698039 0.698039 0.698039
vn 4.622933 -1.348278 -2.034045
v 0.084756 0.017500 -0.143223 0.698039 0.698039 0.698039
vn 5.561625 1.985554 -0.400616
v 0.086428 0.109500 -0.120048 0.698039 0.698039 0.698039
vn 5.034002 -2.338517 0.936428
v 0.071102 0.007500 -0.048537 0.698039 0.698039 0.698039
vn 5.561623 -1.985553 -0.400616
v 0.086428 0.017500 -0.120048 0.698039 0.698039 0.698039
vn 5.562067 1.984668 -0.402186
v 0.084756 0.109500 -0.143223 0.698039 0.698039 0.698039
vn 1.330288 5.964849 0.114039
v 0.062552 0.126000 -0.116964 0.698039 0.698039 0.698039
vn 1.975899 -2.176098 -2.685721
v 0.076102 0.007500 -0.149894 0.698039 0.698039 0.698039
vn -4.369681 -2.700213 -1.557169
v -0.035567 0.007500 -0.095756 0.698039 0.698039 0.698039
vn -3.222519 3.263498 0.951112
v -0.035413 0.119500 0.010420 0.698039 0.698039 0.698039
vn -3.370304 3.271179 0.500485
v -0.036529 0.119500 0.005260 0.698039 0.698039 0.698039
vn 1.973635 2.220860 -2.734770
v 0.076102 0.119500 -0.149894 0.698039 0.698039 0.698039
vn 1.785091 3.261267 2.796772
v 0.020067 0.119500 0.031193 0.698039 0.698039 0.698039
vn -3.026341 3.266093 1.384718
v -0.033574 0.119500 0.015369 0.698039 0.698039 0.698039
vn 0.688257 -3.007861 -2.823364
v 0.062652 0.001500 -0.149894 0.698039 0.698039 0.698039
vn -0.291182 3.113536 -2.984020
v 0.012552 0.126000 -0.149894 0.698039 0.698039 0.698039
vn -1.909374 1.866258 -2.532316
v -0.014899 0.119500 -0.149894 0.698039 0.698039 0.698039
vn 2.184336 3.258468 2.540962
v 0.024297 0.119500 0.028035 0.698039 0.698039 0.698039
vn 5.102448 -2.127646 0.312952
v 0.086550 0.017500 -0.118353 0.698039 0.698039 0.698039
vn 1.360775 3.263253 3.001183
v 0.015430 0.119500 0.033718 0.698039 0.698039 0.698039
vn -2.780629 3.267243 1.787956
v -0.031050 0.119500 0.020006 0.698039 0.698039 0.698039
vn 0.679393 2.987069 -2.694313
v 0.062552 0.126000 -0.149894 0.698039 0.698039 0.698039
vn 0.916383 3.265297 3.148715
v 0.010481 0.119500 0.035556 0.698039 0.698039 0.698039
vn -2.486611 3.267779 2.154258
v -0.027892 0.119500 0.024236 0.698039 0.698039 0.698039
vn 0.458409 3.266087 3.235602
v 0.005321 0.119500 0.036672 0.698039 0.698039 0.698039
vn -2.147862 3.267493 2.477042
v -0.024164 0.119500 0.027974 0.698039 0.698039 0.698039
vn 5.249425 1.997770 0.281377
v 0.086550 0.109500 -0.118353 0.698039 0.698039 0.698039
vn -1.769498 3.266765 2.750438
v -0.019942 0.119500 0.031143 0.698039 0.698039 0.698039
vn -0.269268 -3.119232 -3.203933
v 0.012652 0.001500 -0.149894 0.698039 0.698039 0.698039
vn -0.922398 3.266200 3.128518
v -0.010367 0.119500 0.035530 0.698039 0.698039 0.698039
vn -0.468006 3.266471 3.226456
v -0.005210 0.119500 0.036659 0.698039 0.698039 0.698039
vn 3.268355 2.920029 1.386471
v 0.059326 0.119500 -0.010012 0.698039 0.698039 0.698039
vn -1.358497 3.266091 2.968959
v -0.015311 0.119500 0.033679 0.698039 0.698039 0.698039
vn 3.716188 2.982109 0.965629
v 0.071102 0.119500 -0.048538 0.698039 0.698039 0.698039
vn 2.444163 3.360218 2.365706
v 0.028034 0.119500 0.024306 0.698039 0.698039 0.698039
vn -2.934951 -0.000037 -4.262156
v -0.014899 0.113500 -0.149894 0.698039 0.698039 0.698039
vn -3.555616 3.263242 -0.156586
v -0.035898 0.119500 -0.093973 0.698039 0.698039 0.698039
vn 2.805104 2.974634 1.926060
v 0.058427 0.119500 -0.008324 0.698039 0.698039 0.698039
vn -1.918152 -1.856398 -2.603487
v -0.014896 0.007500 -0.149894 0.698039 0.698039 0.698039
vn -3.482797 3.337938 0.113283
v -0.036898 0.119500 -0.000006 0.698039 0.698039 0.698039
vn -0.005270 3.266646 3.261689
v 0.000055 0.119500 0.037042 0.698039 0.698039 0.698039
vn 0.000000 0.000000 -6.283185
v 0.012552 0.119500 -0.149894 0.698039 0.698039 0.698039
vn 0.000000 0.000000 -6.283185
v 0.062552 0.116000 -0.149894 0.698039 0.698039 0.698039
vn 0.000000 0.000000 -6.283185
v 0.060236 0.116000 -0.149894 0.698039 0.698039 0.698039
vn 0.000000 0.000000 -6.283185
v 0.014967 0.116000 -0.149894 0.698039 0.698039 0.698039
vn 0.000000 0.000000 -6.283185
v 0.062652 0.119500 -0.149894 0.698039 0.698039 0.698039
vn 0.000000 0.000000 -6.283185
v 0.062652 0.116000 -0.149894 0.698039 0.698039 0.698039
vn 0.000000 0.000000 -6.283185
v 0.062652 0.007500 -0.149894 0.698039 0.698039 0.698039
vn 0.000000 0.000000 -6.283185
v 0.060236 0.011500 -0.149894 0.698039 0.698039 0.698039
vn 0.000000 0.000000 -6.283185
v 0.014968 0.011500 -0.149894 0.698039 0.698039 0.698039
vn 0.000000 0.000000 -6.283185
v 0.012652 0.011500 -0.149894 0.698039 0.698039 0.698039
vn 0.000000 0.000000 -6.283185
v 0.012552 0.011500 -0.149894 0.698039 0.698039 0.698039
vn 0.000000 0.000000 -6.283187
v 0.012552 0.007500 -0.149894 0.698039 0.698039 0.698039
vn 0.000000 0.000000 -6.283215
v -0.014896 0.013500 -0.149894 0.698039 0.698039 0.698039
vn 0.000000 0.000000 -6.283189
v 0.014968 0.013500 -0.149894 0.698039 0.698039 0.698039
vn 0.000000 0.000000 -6.283185
v 0.060236 0.013500 -0.149894 0.698039 0.698039 0.698039
vn 0.000000 0.000000 -6.283180
v 0.060236 0.113500 -0.149894 0.698039 0.698039 0.698039
vn 0.000000 0.000000 -6.283185
v 0.014967 0.113500 -0.149894 0.698039 0.698039 0.698039
# 101 vertices, 0 vertices normals

f 1//1 17//17 18//18
f 1//1 18//18 19//19
f 1//1 19//19 54//54
f 1//1 32//32 17//17
f 1//1 35//35 32//32
f 1//1 54//54 83//83
f 1//1 80//80 35//35
f 1//1 83//83 80//80
f 2//2 38//38 55//55
f 2//2 44//44 38//38
f 2//2 45//45 51//51
f 2//2 49//49 45//45
f 2//2 51//51 44//44
f 2//2 55//55 49//49
f 3//3 8//8 40//40
f 3//3 10//10 8//8
f 3//3 40//40 58//58
f 3//3 41//41 10//10
f 3//3 42//42 41//41
f 3//3 58//58 42//42
f 4//4 6//6 7//7
f 4//4 7//7 23//23
f 4//4 17//17 6//6
f 4//4 18//18 17//17
f 4//4 19//19 18//18
f 4//4 20//20 19//19
f 4//4 21//21 20//20
f 4//4 23//23 21//21
f 5//5 8//8 10//10
f 5//5 9//9 34//34
f 5//5 10//10 12//12
f 5//5 12//12 9//9
f 5//5 30//30 8//8
f 5//5 31//31 30//30
f 5//5 33//33 31//31
f 5//5 34//34 33//33
f 6//6 8//8 7//7
f 6//6 17//17 32//32
f 6//6 32//32 39//39
f 6//6 39//39 52//52
f 6//6 40//40 8//8
f 6//6 52//52 82//82
f 6//6 72//72 40//40
f 6//6 82//82 72//72
f 7//7 8//8 27//27
f 7//7 24//24 23//23
f 7//7 25//25 24//24
f 7//7 26//26 25//25
f 7//7 27//27 26//26
f 8//8 28//28 27//27
f 8//8 29//29 28//28
f 8//8 30//30 29//29
f 9//9 12//12 56//56
f 9//9 56//56 63//63
f 9//9 63//63 34//34
f 10//10 14//14 12//12
f 10//10 15//15 14//14
f 10//10 16//16 15//15
f 10//10 22//22 16//16
f 10//10 41//41 22//22
f 11//11 50//50 65//65
f 11//11 53//53 57//57
f 11//11 54//54 53//53
f 11//11 57//57 64//64
f 11//11 59//59 83//83
f 11//11 64//64 67//67
f 11//11 65//65 59//59
f 11//11 67//67 69//69
f 11//11 69//69 71//71
f 11//11 71//71 76//76
f 11//11 73//73 74//74
f 11//11 74//74 84//84
f 11//11 76//76 73//73
f 11//11 83//83 54//54
f 11//11 84//84 50//50
f 12//12 14//14 61//61
f 12//12 61//61 56//56
f 13//13 50//50 77//77
f 13//13 55//55 50//50
f 13//13 70//70 55//55
f 13//13 77//77 70//70
f 14//14 15//15 61//61
f 15//15 16//16 81//81
f 15//15 78//78 61//61
f 15//15 81//81 78//78
f 16//16 22//22 81//81
f 19//19 20//20 53//53
f 19//19 53//53 54//54
f 20//20 21//21 57//57
f 20//20 57//57 53//53
f 21//21 23//23 64//64
f 21//21 64//64 57//57
f 22//22 36//36 81//81
f 22//22 41//41 36//36
f 23//23 24//24 67//67
f 23//23 67//67 64//64
f 24//24 25//25 69//69
f 24//24 69//69 67//67
f 25//25 26//26 71//71
f 25//25 71//71 69//69
f 26//26 27//27 76//76
f 26//26 76//76 71//71
f 27//27 28//28 76//76
f 28//28 29//29 73//73
f 28//28 73//73 76//76
f 29//29 30//30 74//74
f 29//29 74//74 73//73
f 30//30 31//31 84//84
f 30//30 84//84 74//74
f 31//31 33//33 68//68
f 31//31 68//68 84//84
f 32//32 35//35 39//39
f 33//33 34//34 66//66
f 33//33 66//66 68//68
f 34//34 63//63 66//66
f 35//35 43//43 39//39
f 35//35 59//59 43//43
f 35//35 80//80 59//59
f 36//36 37//37 75//75
f 36//36 41//41 47//47
f 36//36 47//47 37//37
f 36//36 75//75 81//81
f 37//37 47//47 62//62
f 37//37 62//62 70//70
f 37//37 70//70 77//77
f 37//37 77//77 75//75
f 38//38 44//44 100//100
f 38//38 90//90 55//55
f 38//38 100//100 90//90
f 39//39 43//43 52//52
f 40//40 72//72 58//58
f 41//41 42//42 47//47
f 42//42 51//51 47//47
f 42//42 58//58 51//51
f 43//43 59//59 60//60
f 43//43 60//60 79//79
f 43//43 79//79 52//52
f 44//44 51//51 91//91
f 44//44 91//91 99//99
f 44//44 99//99 100//100
f 45//45 48//48 51//51
f 45//45 49//49 48//48
f 46//46 48//48 49//49
f 46//46 49//49 55//55
f 46//46 55//55 70//70
f 46//46 62//62 48//48
f 46//46 70//70 62//62
f 47//47 51//51 62//62
f 48//48 62//62 51//51
f 50//50 55//55 65//65
f 50//50 56//56 61//61
f 50//50 61//61 78//78
f 50//50 63//63 56//56
f 50//50 66//66 63//63
f 50//50 68//68 66//66
f 50//50 75//75 77//77
f 50//50 78//78 81//81
f 50//50 81//81 75//75
f 50//50 84//84 68//68
f 51//51 58//58 91//91
f 52//52 79//79 82//82
f 55//55 89//89 65//65
f 55//55 90//90 89//89
f 58//58 72//72 92//92
f 58//58 92//92 91//91
f 59//59 65//65 88//88
f 59//59 80//80 83//83
f 59//59 85//85 60//60
f 59//59 88//88 85//85
f 60//60 85//85 79//79
f 65//65 87//87 88//88
f 65//65 89//89 87//87
f 72//72 82//82 96//96
f 72//72 93//93 92//92
f 72//72 96//96 93//93
f 79//79 85//85 101//101
f 79//79 97//97 82//82
f 79//79 101//101 97//97
f 82//82 95//95 96//96
f 82//82 97//97 95//95
f 85//85 88//88 101//101
f 86//86 87//87 89//89
f 86//86 89//89 90//90
f 86//86 90//90 100//100
f 86//86 100//100 87//87
f 87//87 100//100 88//88
f 88//88 100//100 101//101
f 91//91 92//92 99//99
f 92//92 93//93 98//98
f 92//92 98//98 99//99
f 93//93 94//94 98//98
f 93//93 96//96 94//94
f 94//94 95//95 98//98
f 94//94 96//96 95//95
f 95//95 97//97 98//98
f 97//97 101//101 98//98
f 98//98 100//100 99//99
f 98//98 101//101 100//100
# 198 faces, 0 coords texture

# End of File
