####
#
# OBJ File Generated by Meshlab
#
####
# Object convhull_LKP_NoShell_2.obj
#
# Vertices: 114
# Faces: 224
#
####
vn 1.621622 -5.772922 0.136287
v 0.050034 -0.081500 -0.120113 0.698039 0.698039 0.698039
vn -0.988319 -6.082428 0.213061
v 0.000035 -0.081500 -0.119750 0.698039 0.698039 0.698039
vn 1.636422 -5.773826 -0.144347
v 0.049671 -0.081500 -0.170111 0.698039 0.698039 0.698039
vn -1.114869 -6.045549 -0.178525
v -0.000328 -0.081500 -0.169748 0.698039 0.698039 0.698039
vn 3.436832 5.259798 -0.025117
v 0.049771 0.043500 -0.170112 0.698039 0.698039 0.698039
vn 1.688853 5.757368 0.201554
v 0.050134 0.043500 -0.120113 0.698039 0.698039 0.698039
vn -0.795321 6.151905 0.432707
v 0.000135 0.043500 -0.119750 0.698039 0.698039 0.698039
vn -2.718186 0.009540 -5.664767
v 0.027051 0.044000 -0.257046 0.698039 0.698039 0.698039
vn -2.723569 0.000000 -5.662205
v -0.007222 0.040600 -0.240600 0.698039 0.698039 0.698039
vn -2.723569 0.000000 -5.662204
v -0.007222 0.041400 -0.240600 0.698039 0.698039 0.698039
vn -2.723613 0.004009 -5.662178
v -0.007222 0.043600 -0.240600 0.698039 0.698039 0.698039
vn -2.701442 0.007041 -5.672746
v 0.035210 0.043600 -0.260961 0.698039 0.698039 0.698039
vn -2.700831 0.000000 -5.673056
v 0.035210 0.041400 -0.260961 0.698039 0.698039 0.698039
vn -2.719633 0.009783 -5.664082
v -0.006603 0.044000 -0.240897 0.698039 0.698039 0.698039
vn -2.713675 0.015523 -5.666910
v 0.034591 0.044000 -0.260664 0.698039 0.698039 0.698039
vn -2.718171 -0.000450 -5.664800
v 0.023439 0.027500 -0.255313 0.698039 0.698039 0.698039
vn -2.718189 0.000027 -5.664791
v 0.023439 0.027900 -0.255313 0.698039 0.698039 0.698039
vn -2.723543 -0.000255 -5.662217
v -0.007222 0.027900 -0.240600 0.698039 0.698039 0.698039
vn -2.718400 -0.000789 -5.664690
v -0.006603 0.027500 -0.240897 0.698039 0.698039 0.698039
vn -2.718294 -0.000400 -5.664735
v 0.003437 0.027500 -0.245715 0.698039 0.698039 0.698039
vn -2.717850 -0.000674 -5.664953
v 0.034591 0.027500 -0.260664 0.698039 0.698039 0.698039
vn -2.700542 -0.000343 -5.673192
v 0.035210 0.027900 -0.260961 0.698039 0.698039 0.698039
vn -2.700832 0.000000 -5.673056
v 0.035210 0.040600 -0.260961 0.698039 0.698039 0.698039
vn -2.718114 0.000000 -5.664827
v 0.034591 0.041000 -0.260664 0.698039 0.698039 0.698039
vn 0.202601 -0.000401 -5.576429
v 0.038284 0.037000 -0.262413 0.698039 0.698039 0.698039
vn 0.565899 2.005038 -3.330197
v 0.038284 0.047000 -0.262413 0.698039 0.698039 0.698039
vn -0.855912 3.097179 -2.669623
v 0.032238 0.049000 -0.259513 0.698039 0.698039 0.698039
vn 0.000000 6.283407 0.000000
v 0.027900 0.049000 -0.257432 0.698039 0.698039 0.698039
vn 6.283018 -0.000205 -0.045655
v 0.059654 -0.070000 -0.179380 0.698039 0.698039 0.698039
vn 6.283019 0.000000 -0.045668
v 0.059654 -0.069000 -0.179380 0.698039 0.698039 0.698039
vn -0.034942 -2.274073 -3.027475
v 0.037534 -0.075000 -0.262053 0.698039 0.698039 0.698039
vn -2.418810 -2.073802 -1.671823
v -0.012773 -0.075000 -0.237921 0.698039 0.698039 0.698039
vn -4.315039 -2.932282 -0.215988
v -0.018026 -0.075000 -0.136909 0.698039 0.698039 0.698039
vn -4.241031 -2.909339 -0.108367
v -0.018035 -0.075000 -0.136727 0.698039 0.698039 0.698039
vn -4.210562 -2.935826 -0.001344
v -0.018037 -0.075000 -0.136545 0.698039 0.698039 0.698039
vn -4.166690 -2.932683 0.115512
v -0.017753 -0.075000 -0.097424 0.698039 0.698039 0.698039
vn -4.077436 -2.919734 0.345792
v -0.017737 -0.075000 -0.097056 0.698039 0.698039 0.698039
vn -3.978730 -2.936217 0.639270
v -0.017694 -0.075000 -0.096691 0.698039 0.698039 0.698039
vn -3.924474 -3.001764 0.826610
v -0.017623 -0.075000 -0.096329 0.698039 0.698039 0.698039
vn -2.240443 -2.179821 2.095194
v -0.011028 -0.075000 -0.067943 0.698039 0.698039 0.698039
vn 0.892084 -1.744111 2.423087
v 0.053710 -0.075000 -0.044911 0.698039 0.698039 0.698039
vn 3.379108 -2.582594 0.954007
v 0.060543 -0.075000 -0.056944 0.698039 0.698039 0.698039
vn 4.074801 -2.729787 -0.616931
v 0.059443 -0.075000 -0.208380 0.698039 0.698039 0.698039
vn 3.558024 -2.926644 -1.247014
v 0.047238 -0.075000 -0.255623 0.698039 0.698039 0.698039
vn 2.945244 -2.821978 -1.847690
v 0.046657 -0.075000 -0.256989 0.698039 0.698039 0.698039
vn 2.221312 -2.831503 -2.547787
v 0.045701 -0.075000 -0.258125 0.698039 0.698039 0.698039
vn 1.618633 -2.990641 -2.974106
v 0.044454 -0.075000 -0.258930 0.698039 0.698039 0.698039
vn -6.156852 0.000000 1.252830
v -0.017623 -0.069000 -0.096329 0.698039 0.698039 0.698039
vn 3.248567 0.000662 -5.374992
v 0.044454 -0.069000 -0.258930 0.698039 0.698039 0.698039
vn 4.107574 0.001524 -4.662026
v 0.045701 -0.069000 -0.258125 0.698039 0.698039 0.698039
vn 5.294564 0.001948 -3.252250
v 0.046657 -0.069000 -0.256989 0.698039 0.698039 0.698039
vn 5.932598 0.002183 -2.015368
v 0.047238 -0.069000 -0.255623 0.698039 0.698039 0.698039
vn 6.183057 0.001326 -0.809343
v 0.059443 -0.069000 -0.208380 0.698039 0.698039 0.698039
vn -6.202883 0.000000 0.972215
v -0.017694 -0.069000 -0.096691 0.698039 0.698039 0.698039
vn -6.258647 0.000000 0.504016
v -0.017737 -0.069000 -0.097056 0.698039 0.698039 0.698039
vn -6.280138 0.000000 0.159269
v -0.017753 -0.069000 -0.097424 0.698039 0.698039 0.698039
vn -6.282913 0.000000 -0.011723
v -0.018037 -0.069000 -0.136545 0.698039 0.698039 0.698039
vn -6.280601 0.000001 -0.166505
v -0.018035 -0.069000 -0.136727 0.698039 0.698039 0.698039
vn 5.879664 0.000625 1.517163
v 0.060543 -0.069000 -0.056944 0.698039 0.698039 0.698039
vn 6.282602 0.047620 -0.049392
v 0.059654 0.032000 -0.179380 0.698039 0.698039 0.698039
vn 3.291382 0.083790 -5.346626
v 0.044376 0.037000 -0.258929 0.698039 0.698039 0.698039
vn 4.159142 0.525980 -4.490046
v 0.045623 0.037000 -0.258124 0.698039 0.698039 0.698039
vn 5.169564 0.796863 -3.110326
v 0.046579 0.037000 -0.256989 0.698039 0.698039 0.698039
vn 5.764513 0.927761 -1.933321
v 0.047160 0.037000 -0.255623 0.698039 0.698039 0.698039
vn 4.806493 2.388761 -0.469530
v 0.059365 0.037000 -0.208379 0.698039 0.698039 0.698039
vn 3.379316 2.582983 0.957673
v 0.060466 0.037000 -0.056808 0.698039 0.698039 0.698039
vn 0.892986 1.741140 2.421556
v 0.053710 0.037000 -0.044911 0.698039 0.698039 0.698039
vn -2.246261 2.144826 2.073108
v -0.011028 0.037000 -0.067943 0.698039 0.698039 0.698039
vn -3.926072 2.995861 0.841980
v -0.017623 0.037000 -0.096329 0.698039 0.698039 0.698039
vn -4.078365 2.903589 0.671958
v -0.017694 0.037000 -0.096691 0.698039 0.698039 0.698039
vn -4.536709 2.730259 0.412306
v -0.017737 0.037000 -0.097056 0.698039 0.698039 0.698039
vn -5.371270 2.173341 0.173991
v -0.017753 0.037000 -0.097424 0.698039 0.698039 0.698039
vn -5.954853 1.379496 0.012556
v -0.018037 0.037000 -0.136545 0.698039 0.698039 0.698039
vn -6.139304 0.903402 -0.119832
v -0.018035 0.037000 -0.136725 0.698039 0.698039 0.698039
vn -6.282913 0.000000 -0.011723
v -0.018037 0.031000 -0.136545 0.698039 0.698039 0.698039
vn -6.280141 0.000000 0.159270
v -0.017753 0.031000 -0.097424 0.698039 0.698039 0.698039
vn -6.258657 0.000000 0.504017
v -0.017737 0.031000 -0.097056 0.698039 0.698039 0.698039
vn -6.202868 0.000000 0.972213
v -0.017694 0.031000 -0.096691 0.698039 0.698039 0.698039
vn -6.156855 0.000000 1.252831
v -0.017623 0.031000 -0.096329 0.698039 0.698039 0.698039
vn 6.282654 0.048137 -0.045065
v 0.059712 0.032000 -0.171381 0.698039 0.698039 0.698039
vn -4.128822 -0.000967 3.607202
v -0.011687 -0.017000 -0.068177 0.698039 0.698039 0.698039
vn 1.713816 -0.000051 4.510196
v 0.053764 -0.017000 -0.044892 0.698039 0.698039 0.698039
vn -4.127269 0.007271 3.606693
v -0.011687 -0.009000 -0.068177 0.698039 0.698039 0.698039
vn 1.702047 0.000374 4.505829
v 0.053764 -0.009000 -0.044892 0.698039 0.698039 0.698039
vn -4.129045 -0.044909 3.605143
v -0.011585 -0.061000 -0.068141 0.698039 0.698039 0.698039
vn 1.660164 -0.004018 4.543579
v 0.053735 -0.060999 -0.044902 0.698039 0.698039 0.698039
vn 5.449525 -0.006782 3.127041
v 0.054505 -0.060999 -0.046220 0.698039 0.698039 0.698039
vn -2.077362 0.000002 5.929881
v 0.053735 -0.052999 -0.044902 0.698039 0.698039 0.698039
vn -2.151132 -0.000165 5.903336
v -0.011586 -0.053000 -0.068141 0.698039 0.698039 0.698039
vn -4.503197 -0.006604 -2.960163
v -0.013801 0.037000 -0.237428 0.698039 0.698039 0.698039
vn -1.562718 3.106281 -2.460763
v -0.007755 0.049000 -0.240328 0.698039 0.698039 0.698039
vn -2.993964 1.944283 -1.725159
v -0.013801 0.047000 -0.237428 0.698039 0.698039 0.698039
vn 0.000000 6.283518 0.000000
v 0.025646 0.049000 -0.256350 0.698039 0.698039 0.698039
vn 0.000000 6.282796 0.000000
v 0.018480 0.049000 -0.252913 0.698039 0.698039 0.698039
vn -1.358811 3.154220 -2.832505
v 0.006003 0.049000 -0.246928 0.698039 0.698039 0.698039
vn 0.000000 6.283185 0.000000
v 0.028012 0.049000 -0.256661 0.698039 0.698039 0.698039
vn 0.000000 6.283185 0.000000
v 0.027645 0.049000 -0.255973 0.698039 0.698039 0.698039
vn 0.000000 6.283185 0.000000
v 0.026943 0.049000 -0.255637 0.698039 0.698039 0.698039
vn 0.000000 6.283185 0.000000
v 0.026177 0.049000 -0.255781 0.698039 0.698039 0.698039
vn 2.868104 3.596553 -2.726638
v 0.041944 0.047000 -0.258858 0.698039 0.698039 0.698039
vn 3.152948 3.545025 -1.919523
v 0.043125 0.047000 -0.257504 0.698039 0.698039 0.698039
vn 3.382716 3.957149 -0.931487
v 0.043751 0.047000 -0.255820 0.698039 0.698039 0.698039
vn 1.887057 5.921367 0.045756
v 0.043741 0.047000 -0.254023 0.698039 0.698039 0.698039
vn -3.375748 4.770716 0.204921
v -0.013698 0.047000 -0.231918 0.698039 0.698039 0.698039
vn 0.000000 6.283186 0.000000
v 0.014607 0.049000 -0.250354 0.698039 0.698039 0.698039
vn 0.000000 6.283186 0.000000
v 0.010422 0.049000 -0.248346 0.698039 0.698039 0.698039
vn -0.002604 6.279661 0.148555
v -0.002550 0.049000 -0.239936 0.698039 0.698039 0.698039
vn 0.015768 6.279861 0.143440
v 0.002663 0.049000 -0.240226 0.698039 0.698039 0.698039
vn 0.034486 6.280024 0.136445
v 0.007793 0.049000 -0.241191 0.698039 0.698039 0.698039
vn 0.052962 6.280024 0.130393
v 0.012754 0.049000 -0.242817 0.698039 0.698039 0.698039
vn 0.072215 6.279859 0.124991
v 0.017461 0.049000 -0.245075 0.698039 0.698039 0.698039
vn 0.093459 6.279494 0.119953
v 0.021833 0.049000 -0.247926 0.698039 0.698039 0.698039
vn 0.118405 6.278835 0.115028
v 0.025798 0.049000 -0.251323 0.698039 0.698039 0.698039
vn 0.149665 6.277683 0.109892
v 0.029285 0.049000 -0.255207 0.698039 0.698039 0.698039
# 114 vertices, 0 vertices normals

f 1//1 2//2 3//3
f 1//1 3//3 42//42
f 1//1 41//41 2//2
f 1//1 42//42 41//41
f 2//2 4//4 3//3
f 2//2 36//36 4//4
f 2//2 37//37 36//36
f 2//2 38//38 37//37
f 2//2 39//39 38//38
f 2//2 40//40 39//39
f 2//2 41//41 40//40
f 3//3 4//4 31//31
f 3//3 31//31 47//47
f 3//3 43//43 42//42
f 3//3 44//44 43//43
f 3//3 45//45 44//44
f 3//3 46//46 45//45
f 3//3 47//47 46//46
f 4//4 32//32 31//31
f 4//4 33//33 32//32
f 4//4 34//34 33//33
f 4//4 35//35 34//34
f 4//4 36//36 35//35
f 5//5 6//6 66//66
f 5//5 65//65 102//102
f 5//5 66//66 65//65
f 5//5 102//102 6//6
f 6//6 7//7 67//67
f 6//6 27//27 114//114
f 6//6 67//67 66//66
f 6//6 102//102 103//103
f 6//6 103//103 27//27
f 6//6 107//107 7//7
f 6//6 108//108 107//107
f 6//6 109//109 108//108
f 6//6 110//110 109//109
f 6//6 111//111 110//110
f 6//6 112//112 111//111
f 6//6 113//113 112//112
f 6//6 114//114 113//113
f 7//7 68//68 67//67
f 7//7 91//91 104//104
f 7//7 104//104 68//68
f 7//7 107//107 91//91
f 8//8 11//11 14//14
f 8//8 14//14 91//91
f 8//8 15//15 17//17
f 8//8 17//17 20//20
f 8//8 20//20 11//11
f 8//8 91//91 15//15
f 9//9 10//10 20//20
f 9//9 18//18 90//90
f 9//9 20//20 18//18
f 9//9 90//90 10//10
f 10//10 11//11 20//20
f 10//10 90//90 92//92
f 10//10 92//92 11//11
f 11//11 92//92 14//14
f 12//12 13//13 15//15
f 12//12 15//15 26//26
f 12//12 26//26 13//13
f 13//13 23//23 24//24
f 13//13 24//24 15//15
f 13//13 25//25 23//23
f 13//13 26//26 25//25
f 14//14 92//92 91//91
f 15//15 24//24 17//17
f 15//15 27//27 26//26
f 15//15 91//91 95//95
f 15//15 95//95 27//27
f 16//16 17//17 21//21
f 16//16 20//20 17//17
f 16//16 21//21 32//32
f 16//16 32//32 20//20
f 17//17 24//24 21//21
f 18//18 19//19 32//32
f 18//18 20//20 19//19
f 18//18 32//32 90//90
f 19//19 20//20 32//32
f 21//21 22//22 31//31
f 21//21 23//23 22//22
f 21//21 24//24 23//23
f 21//21 31//31 32//32
f 22//22 23//23 25//25
f 22//22 25//25 31//31
f 25//25 26//26 49//49
f 25//25 47//47 31//31
f 25//25 49//49 47//47
f 26//26 27//27 100//100
f 26//26 61//61 49//49
f 26//26 62//62 61//61
f 26//26 100//100 62//62
f 27//27 28//28 114//114
f 27//27 95//95 28//28
f 27//27 101//101 100//100
f 27//27 102//102 101//101
f 27//27 103//103 102//102
f 28//28 93//93 98//98
f 28//28 94//94 93//93
f 28//28 95//95 94//94
f 28//28 96//96 114//114
f 28//28 98//98 96//96
f 29//29 30//30 59//59
f 29//29 42//42 43//43
f 29//29 43//43 53//53
f 29//29 53//53 30//30
f 29//29 59//59 42//42
f 30//30 53//53 60//60
f 30//30 60//60 59//59
f 32//32 33//33 90//90
f 33//33 34//34 90//90
f 34//34 35//35 57//57
f 34//34 57//57 58//58
f 34//34 58//58 90//90
f 35//35 36//36 57//57
f 36//36 37//37 56//56
f 36//36 56//56 57//57
f 37//37 38//38 55//55
f 37//37 55//55 56//56
f 38//38 39//39 54//54
f 38//38 54//54 55//55
f 39//39 40//40 85//85
f 39//39 48//48 54//54
f 39//39 81//81 48//48
f 39//39 85//85 81//81
f 40//40 41//41 89//89
f 40//40 89//89 85//85
f 41//41 42//42 87//87
f 41//41 86//86 89//89
f 41//41 87//87 86//86
f 42//42 59//59 82//82
f 42//42 82//82 87//87
f 43//43 44//44 52//52
f 43//43 52//52 53//53
f 44//44 45//45 51//51
f 44//44 51//51 52//52
f 45//45 46//46 50//50
f 45//45 50//50 51//51
f 46//46 47//47 49//49
f 46//46 49//49 50//50
f 48//48 78//78 54//54
f 48//48 79//79 78//78
f 48//48 81//81 79//79
f 49//49 61//61 62//62
f 49//49 62//62 50//50
f 50//50 62//62 63//63
f 50//50 63//63 51//51
f 51//51 63//63 52//52
f 52//52 63//63 64//64
f 52//52 64//64 53//53
f 53//53 64//64 65//65
f 53//53 65//65 60//60
f 54//54 77//77 55//55
f 54//54 78//78 77//77
f 55//55 76//76 56//56
f 55//55 77//77 76//76
f 56//56 75//75 57//57
f 56//56 76//76 75//75
f 57//57 75//75 58//58
f 58//58 73//73 74//74
f 58//58 74//74 92//92
f 58//58 75//75 73//73
f 58//58 92//92 90//90
f 59//59 60//60 80//80
f 59//59 66//66 84//84
f 59//59 80//80 66//66
f 59//59 84//84 82//82
f 60//60 65//65 66//66
f 60//60 66//66 80//80
f 62//62 100//100 101//101
f 62//62 101//101 63//63
f 63//63 101//101 64//64
f 64//64 101//101 102//102
f 64//64 102//102 65//65
f 66//66 67//67 84//84
f 67//67 68//68 83//83
f 67//67 83//83 89//89
f 67//67 88//88 84//84
f 67//67 89//89 88//88
f 68//68 69//69 83//83
f 68//68 104//104 69//69
f 69//69 70//70 79//79
f 69//69 79//79 83//83
f 69//69 104//104 70//70
f 70//70 71//71 78//78
f 70//70 78//78 79//79
f 70//70 104//104 71//71
f 71//71 72//72 77//77
f 71//71 77//77 78//78
f 71//71 104//104 72//72
f 72//72 73//73 76//76
f 72//72 76//76 77//77
f 72//72 92//92 73//73
f 72//72 104//104 92//92
f 73//73 75//75 76//76
f 73//73 92//92 74//74
f 79//79 81//81 83//83
f 81//81 85//85 89//89
f 81//81 89//89 83//83
f 82//82 84//84 88//88
f 82//82 86//86 87//87
f 82//82 88//88 86//86
f 86//86 88//88 89//89
f 91//91 92//92 104//104
f 91//91 107//107 95//95
f 93//93 94//94 113//113
f 93//93 99//99 98//98
f 93//93 113//113 99//99
f 94//94 95//95 105//105
f 94//94 105//105 112//112
f 94//94 112//112 113//113
f 95//95 106//106 105//105
f 95//95 107//107 108//108
f 95//95 108//108 109//109
f 95//95 109//109 106//106
f 96//96 97//97 114//114
f 96//96 98//98 97//97
f 97//97 98//98 114//114
f 98//98 99//99 113//113
f 98//98 113//113 114//114
f 105//105 106//106 110//110
f 105//105 110//110 111//111
f 105//105 111//111 112//112
f 106//106 109//109 110//110
# 224 faces, 0 coords texture

# End of File
