####
#
# OBJ File Generated by Meshlab
#
####
# Object convhull_RSR_NoShell_Full.obj
#
# Vertices: 119
# Faces: 234
#
####
vn -3.549110 2.020981 -2.253491
v -0.085018 0.006665 -0.010502 0.698039 0.698039 0.698039
vn -3.708826 0.769144 -2.959480
v -0.085018 0.003844 -0.011829 0.698039 0.698039 0.698039
vn -3.540071 2.013078 2.260501
v -0.085018 0.006665 0.010502 0.698039 0.698039 0.698039
vn -3.683392 -1.815408 -2.465858
v -0.085018 -0.007928 -0.009584 0.698039 0.698039 0.698039
vn -1.695168 -0.618290 -5.979288
v -0.067500 -0.001829 -0.017404 0.698039 0.698039 0.698039
vn 5.810823 1.359836 0.873114
v 0.014000 0.002019 0.001298 0.698039 0.698039 0.698039
vn 5.810824 1.359836 -0.873114
v 0.014000 0.002019 -0.001298 0.698039 0.698039 0.698039
vn -3.599060 -0.575271 -2.995723
v -0.085018 -0.002331 -0.012218 0.698039 0.698039 0.698039
vn -3.481116 0.315888 2.979871
v -0.085018 0.003844 0.011829 0.698039 0.698039 0.698039
vn -3.294126 2.914343 0.000000
v -0.085018 0.012438 0.000000 0.698039 0.698039 0.698039
vn -3.175576 -2.267565 1.647552
v -0.085018 -0.010063 0.007311 0.698039 0.698039 0.698039
vn -3.475257 -2.734661 -1.225529
v -0.085018 -0.010063 -0.007311 0.698039 0.698039 0.698039
vn -0.225536 -5.195928 -3.451008
v -0.005000 -0.021956 -0.014839 0.698039 0.698039 0.698039
vn -1.521726 -4.817158 -3.612152
v -0.067500 -0.014158 -0.010286 0.698039 0.698039 0.698039
vn -1.653512 4.768360 -3.576382
v -0.067500 0.014158 -0.010286 0.698039 0.698039 0.698039
vn -0.121615 0.178249 -6.238799
v -0.005000 0.001125 -0.026476 0.698039 0.698039 0.698039
vn -0.440197 -6.183057 -0.526730
v -0.005000 -0.026405 -0.002247 0.698039 0.698039 0.698039
vn -1.704384 0.639045 -5.971877
v -0.067500 0.001829 -0.017404 0.698039 0.698039 0.698039
vn 5.810189 -0.229004 1.600651
v 0.014000 -0.000342 0.002376 0.698039 0.698039 0.698039
vn 5.810188 -0.229004 -1.600652
v 0.014000 -0.000342 -0.002376 0.698039 0.698039 0.698039
vn 5.811067 -1.058091 -1.221028
v 0.014000 -0.001572 -0.001814 0.698039 0.698039 0.698039
vn 5.811068 -1.058091 1.221028
v 0.014000 -0.001572 0.001814 0.698039 0.698039 0.698039
vn -0.442735 -0.789180 6.154606
v -0.005000 -0.003366 0.026285 0.698039 0.698039 0.698039
vn -0.442048 -5.141311 3.474193
v -0.005000 -0.021956 0.014839 0.698039 0.698039 0.698039
vn -0.441199 4.827599 3.898709
v -0.005000 0.020618 0.016648 0.698039 0.698039 0.698039
vn -0.440753 0.262848 6.199773
v -0.005000 0.001125 0.026476 0.698039 0.698039 0.698039
vn -0.440425 -4.480375 4.293539
v -0.005000 -0.019132 0.018336 0.698039 0.698039 0.698039
vn -0.442890 -1.815849 5.933360
v -0.005000 -0.007760 0.025338 0.698039 0.698039 0.698039
vn -0.442779 -5.654136 2.555790
v -0.005000 -0.024148 0.010915 0.698039 0.698039 0.698039
vn -0.442817 4.099148 4.658172
v -0.005000 0.017508 0.019893 0.698039 0.698039 0.698039
vn -0.440113 5.417530 3.026234
v -0.005000 0.023135 0.012924 0.698039 0.698039 0.698039
vn -0.440048 1.307283 6.066288
v -0.005000 0.005583 0.025905 0.698039 0.698039 0.698039
vn -0.440072 -3.690116 4.989089
v -0.005000 -0.015758 0.021306 0.698039 0.698039 0.698039
vn -0.440197 -6.183057 0.526730
v -0.005000 -0.026405 0.002247 0.698039 0.698039 0.698039
vn -0.440293 5.851149 -2.067147
v -0.005000 0.024986 -0.008828 0.698039 0.698039 0.698039
vn -0.440293 5.851149 2.067147
v -0.005000 0.024986 0.008828 0.698039 0.698039 0.698039
vn -0.440602 2.313765 5.757917
v -0.005000 0.009881 0.024589 0.698039 0.698039 0.698039
vn -0.401945 -5.676485 -2.526350
v -0.005000 -0.024148 -0.010915 0.698039 0.698039 0.698039
vn -0.440979 -2.792821 5.541265
v -0.005000 -0.011930 0.023663 0.698039 0.698039 0.698039
vn -0.441456 -6.004910 -1.564241
v -0.005000 -0.025645 -0.006677 0.698039 0.698039 0.698039
vn -0.441456 -6.004910 1.564241
v -0.005000 -0.025645 0.006677 0.698039 0.698039 0.698039
vn -0.441727 6.115929 -1.048234
v -0.005000 0.026119 -0.004479 0.698039 0.698039 0.698039
vn -0.441727 6.115929 1.048234
v -0.005000 0.026119 0.004479 0.698039 0.698039 0.698039
vn -0.442395 3.253902 5.283401
v -0.005000 0.013894 0.022566 0.698039 0.698039 0.698039
vn 5.810398 1.616733 0.000000
v 0.014000 0.002400 0.000000 0.698039 0.698039 0.698039
vn -0.356985 5.410462 -3.047962
v -0.005000 0.023135 -0.012924 0.698039 0.698039 0.698039
vn 5.810158 -1.552172 -0.453512
v 0.014000 -0.002303 -0.000676 0.698039 0.698039 0.698039
vn -0.442760 6.205013 0.000000
v -0.005000 0.026500 0.000000 0.698039 0.698039 0.698039
vn 5.810158 -1.552172 0.453512
v 0.014000 -0.002303 0.000676 0.698039 0.698039 0.698039
vn 5.810741 0.670165 1.470774
v 0.014000 0.000997 0.002183 0.698039 0.698039 0.698039
vn -1.306244 -4.910663 3.566571
v -0.067500 -0.014158 0.010286 0.698039 0.698039 0.698039
vn -1.307742 1.875944 5.771880
v -0.067500 0.005408 0.016643 0.698039 0.698039 0.698039
vn 5.810741 0.670165 -1.470774
v 0.014000 0.000997 -0.002183 0.698039 0.698039 0.698039
vn -1.503600 5.485704 -2.445789
v -0.067500 0.015987 -0.007118 0.698039 0.698039 0.698039
vn -1.305502 6.069303 0.000000
v -0.067500 0.017500 0.000000 0.698039 0.698039 0.698039
vn -1.303059 3.033747 5.257851
v -0.067500 0.008750 0.015155 0.698039 0.698039 0.698039
vn -1.477134 -0.677762 5.963683
v -0.067500 -0.001829 0.017404 0.698039 0.698039 0.698039
vn -1.479028 -2.957465 5.222851
v -0.067500 -0.008750 0.015155 0.698039 0.698039 0.698039
vn -1.568006 -5.964026 0.000000
v -0.067500 -0.017500 0.000000 0.698039 0.698039 0.698039
vn -1.447614 4.892549 3.499154
v -0.067500 0.014158 0.010286 0.698039 0.698039 0.698039
vn -1.352279 0.606022 6.022258
v -0.067500 0.001829 0.017404 0.698039 0.698039 0.698039
vn -1.462916 5.474188 2.478935
v -0.067500 0.015987 0.007118 0.698039 0.698039 0.698039
vn -1.478543 -5.880727 -1.200030
v -0.067500 -0.017118 -0.003638 0.698039 0.698039 0.698039
vn -1.478543 -5.880728 1.200030
v -0.067500 -0.017118 0.003638 0.698039 0.698039 0.698039
vn -1.352494 -4.030120 4.515782
v -0.067500 -0.011710 0.013005 0.698039 0.698039 0.698039
vn -1.391844 -5.551721 -2.404649
v -0.067500 -0.015987 -0.007118 0.698039 0.698039 0.698039
vn -1.351324 5.915001 1.283637
v -0.067500 0.017118 0.003638 0.698039 0.698039 0.698039
vn -1.351324 5.915001 -1.283637
v -0.067500 0.017118 -0.003638 0.698039 0.698039 0.698039
vn -1.565306 -1.842312 5.672506
v -0.067500 -0.005408 0.016643 0.698039 0.698039 0.698039
vn -1.334077 4.069393 4.488691
v -0.067500 0.011710 0.013005 0.698039 0.698039 0.698039
vn 0.032095 2.862749 -5.226241
v -0.021161 0.013335 -0.024500 0.698039 0.698039 0.698039
vn -1.350057 -5.540199 2.438077
v -0.067500 -0.015987 0.007118 0.698039 0.698039 0.698039
vn 0.085319 -2.884437 -5.171682
v -0.013220 -0.013675 -0.024500 0.698039 0.698039 0.698039
vn -1.076221 0.343929 -6.115446
v -0.040500 0.003005 -0.024500 0.698039 0.698039 0.698039
vn -0.145100 -3.003124 -4.954460
v -0.026900 -0.013675 -0.024500 0.698039 0.698039 0.698039
vn -1.074588 -0.347566 -6.114907
v -0.040500 -0.003005 -0.024500 0.698039 0.698039 0.698039
vn 2.653048 4.506351 0.000000
v 0.001500 0.026500 0.000000 0.698039 0.698039 0.698039
vn -1.098457 1.075204 -5.965655
v -0.035579 0.011637 -0.024500 0.698039 0.698039 0.698039
vn -1.120052 -1.220641 -5.898433
v -0.035444 -0.011808 -0.024500 0.698039 0.698039 0.698039
vn 2.653702 -1.319824 4.307438
v 0.001500 -0.007760 0.025338 0.698039 0.698039 0.698039
vn 2.653605 4.439600 0.762483
v 0.001500 0.026119 0.004479 0.698039 0.698039 0.698039
vn 2.653605 4.439600 -0.762483
v 0.001500 0.026119 -0.004479 0.698039 0.698039 0.698039
vn 2.653294 3.505171 2.831048
v 0.001500 0.020618 0.016648 0.698039 0.698039 0.698039
vn 2.653310 -3.253508 3.117385
v 0.001500 -0.019132 0.018336 0.698039 0.698039 0.698039
vn 2.653039 1.679657 4.181432
v 0.001500 0.009881 0.024589 0.698039 0.698039 0.698039
vn 2.653126 -4.360983 1.135333
v 0.001500 -0.025645 0.006677 0.698039 0.698039 0.698039
vn 2.653126 -4.360983 -1.135333
v 0.001500 -0.025645 -0.006677 0.698039 0.698039 0.698039
vn 2.652994 -0.572411 4.469844
v 0.001500 -0.003366 0.026285 0.698039 0.698039 0.698039
vn 2.652985 3.934122 2.197043
v 0.001500 0.023135 0.012924 0.698039 0.698039 0.698039
vn 2.652985 3.934122 -2.197043
v 0.001500 0.023135 -0.012924 0.698039 0.698039 0.698039
vn 2.653058 -2.679148 3.622922
v 0.001500 -0.015758 0.021306 0.698039 0.698039 0.698039
vn 2.653325 2.362769 3.836130
v 0.001500 0.013894 0.022566 0.698039 0.698039 0.698039
vn 2.653439 -4.104999 -1.856276
v 0.001500 -0.024148 -0.010915 0.698039 0.698039 0.698039
vn 2.653439 -4.104999 1.856276
v 0.001500 -0.024148 0.010915 0.698039 0.698039 0.698039
vn 2.653816 0.192254 4.500288
v 0.001500 0.001125 0.026476 0.698039 0.698039 0.698039
vn 2.653816 0.192254 -4.500288
v 0.001500 0.001125 -0.026476 0.698039 0.698039 0.698039
vn 2.653984 -4.487891 0.380946
v 0.001500 -0.026405 0.002247 0.698039 0.698039 0.698039
vn 2.654129 4.247381 1.499932
v 0.001500 0.024986 0.008828 0.698039 0.698039 0.698039
vn 2.654129 4.247381 -1.499932
v 0.001500 0.024986 -0.008828 0.698039 0.698039 0.698039
vn 2.653795 -2.027104 4.022397
v 0.001500 -0.011930 0.023663 0.698039 0.698039 0.698039
vn 2.653882 2.975935 3.381394
v 0.001500 0.017508 0.019893 0.698039 0.698039 0.698039
vn 2.653822 -3.732052 2.522149
v 0.001500 -0.021956 0.014839 0.698039 0.698039 0.698039
vn 2.653822 -3.732052 -2.522149
v 0.001500 -0.021956 -0.014839 0.698039 0.698039 0.698039
vn 2.654051 0.947935 4.403389
v 0.001500 0.005583 0.025905 0.698039 0.698039 0.698039
vn 2.825904 -1.259244 -4.330442
v 0.001500 -0.007760 -0.025338 0.698039 0.698039 0.698039
vn -0.886993 -2.640615 -4.894727
v -0.034021 -0.012914 -0.024500 0.698039 0.698039 0.698039
vn 2.926148 -2.713304 -3.601101
v 0.001500 -0.015758 -0.021306 0.698039 0.698039 0.698039
vn -0.998178 2.395643 -5.158104
v -0.034275 0.012774 -0.024500 0.698039 0.698039 0.698039
vn 2.718819 -3.300090 -3.073225
v 0.001500 -0.019132 -0.018336 0.698039 0.698039 0.698039
vn 2.978760 -2.015308 -4.029182
v 0.001500 -0.011930 -0.023663 0.698039 0.698039 0.698039
vn 2.653984 -4.487890 -0.380946
v 0.001500 -0.026405 -0.002247 0.698039 0.698039 0.698039
vn 2.816301 1.658994 -4.194613
v 0.001500 0.009881 -0.024589 0.698039 0.698039 0.698039
vn 2.839869 2.374639 -3.834141
v 0.001500 0.013894 -0.022566 0.698039 0.698039 0.698039
vn 2.697164 0.909084 -4.414095
v 0.001500 0.005583 -0.025905 0.698039 0.698039 0.698039
vn 2.738559 3.011956 -3.354058
v 0.001500 0.017508 -0.019893 0.698039 0.698039 0.698039
vn 2.655284 -0.545069 -4.474592
v 0.001500 -0.003366 -0.026285 0.698039 0.698039 0.698039
vn -0.519503 -3.107737 -4.445992
v -0.032278 -0.013373 -0.024500 0.698039 0.698039 0.698039
vn 2.632052 3.511485 -2.822940
v 0.001500 0.020618 -0.016648 0.698039 0.698039 0.698039
vn -0.539894 3.097485 -4.432579
v -0.032639 0.013335 -0.024500 0.698039 0.698039 0.698039
# 119 vertices, 0 vertices normals

f 1//1 2//2 10//10
f 1//1 10//10 54//54
f 1//1 15//15 108//108
f 1//1 54//54 15//15
f 1//1 108//108 2//2
f 2//2 4//4 9//9
f 2//2 8//8 4//4
f 2//2 9//9 10//10
f 2//2 18//18 8//8
f 2//2 78//78 18//18
f 2//2 108//108 78//78
f 3//3 9//9 56//56
f 3//3 10//10 9//9
f 3//3 56//56 70//70
f 3//3 60//60 62//62
f 3//3 62//62 10//10
f 3//3 70//70 60//60
f 4//4 8//8 106//106
f 4//4 11//11 9//9
f 4//4 12//12 11//11
f 4//4 14//14 12//12
f 4//4 106//106 14//14
f 5//5 8//8 18//18
f 5//5 18//18 76//76
f 5//5 76//76 79//79
f 5//5 79//79 8//8
f 6//6 45//45 98//98
f 6//6 50//50 45//45
f 6//6 83//83 101//101
f 6//6 89//89 83//83
f 6//6 98//98 89//89
f 6//6 101//101 50//50
f 7//7 45//45 53//53
f 7//7 53//53 115//115
f 7//7 90//90 99//99
f 7//7 99//99 45//45
f 7//7 115//115 118//118
f 7//7 118//118 90//90
f 8//8 79//79 106//106
f 9//9 11//11 69//69
f 9//9 52//52 56//56
f 9//9 57//57 61//61
f 9//9 61//61 52//52
f 9//9 69//69 57//57
f 10//10 55//55 68//68
f 10//10 62//62 67//67
f 10//10 67//67 55//55
f 10//10 68//68 54//54
f 11//11 12//12 59//59
f 11//11 51//51 65//65
f 11//11 58//58 69//69
f 11//11 59//59 64//64
f 11//11 64//64 72//72
f 11//11 65//65 58//58
f 11//11 72//72 51//51
f 12//12 14//14 66//66
f 12//12 63//63 59//59
f 12//12 66//66 63//63
f 13//13 38//38 117//117
f 13//13 75//75 109//109
f 13//13 93//93 38//38
f 13//13 103//103 93//93
f 13//13 109//109 103//103
f 13//13 117//117 75//75
f 14//14 106//106 117//117
f 14//14 117//117 66//66
f 15//15 54//54 119//119
f 15//15 119//119 108//108
f 16//16 74//74 78//78
f 16//16 76//76 74//74
f 16//16 78//78 108//108
f 16//16 79//79 76//76
f 16//16 96//96 116//116
f 16//16 106//106 79//79
f 16//16 108//108 119//119
f 16//16 114//114 96//96
f 16//16 116//116 106//106
f 16//16 119//119 114//114
f 17//17 34//34 59//59
f 17//17 40//40 111//111
f 17//17 59//59 63//63
f 17//17 63//63 40//40
f 17//17 111//111 34//34
f 18//18 74//74 76//76
f 18//18 78//78 74//74
f 19//19 22//22 50//50
f 19//19 50//50 104//104
f 19//19 80//80 100//100
f 19//19 88//88 80//80
f 19//19 95//95 88//88
f 19//19 100//100 22//22
f 19//19 104//104 95//95
f 20//20 21//21 110//110
f 20//20 53//53 21//21
f 20//20 96//96 114//114
f 20//20 105//105 116//116
f 20//20 110//110 105//105
f 20//20 114//114 53//53
f 20//20 116//116 96//96
f 21//21 47//47 103//103
f 21//21 53//53 47//47
f 21//21 103//103 109//109
f 21//21 107//107 110//110
f 21//21 109//109 107//107
f 22//22 49//49 50//50
f 22//22 84//84 102//102
f 22//22 91//91 84//84
f 22//22 100//100 91//91
f 22//22 102//102 49//49
f 23//23 26//26 57//57
f 23//23 28//28 80//80
f 23//23 57//57 69//69
f 23//23 69//69 28//28
f 23//23 80//80 88//88
f 23//23 88//88 26//26
f 24//24 27//27 51//51
f 24//24 29//29 94//94
f 24//24 51//51 72//72
f 24//24 72//72 29//29
f 24//24 94//94 102//102
f 24//24 102//102 27//27
f 25//25 30//30 101//101
f 25//25 31//31 60//60
f 25//25 60//60 70//70
f 25//25 70//70 30//30
f 25//25 83//83 31//31
f 25//25 101//101 83//83
f 26//26 32//32 61//61
f 26//26 61//61 57//57
f 26//26 88//88 95//95
f 26//26 95//95 32//32
f 27//27 33//33 65//65
f 27//27 65//65 51//51
f 27//27 84//84 33//33
f 27//27 102//102 84//84
f 28//28 39//39 100//100
f 28//28 69//69 39//39
f 28//28 100//100 80//80
f 29//29 41//41 86//86
f 29//29 72//72 41//41
f 29//29 86//86 94//94
f 30//30 44//44 92//92
f 30//30 70//70 44//44
f 30//30 92//92 101//101
f 31//31 36//36 62//62
f 31//31 62//62 60//60
f 31//31 83//83 89//89
f 31//31 89//89 36//36
f 32//32 37//37 52//52
f 32//32 52//52 61//61
f 32//32 95//95 104//104
f 32//32 104//104 37//37
f 33//33 39//39 58//58
f 33//33 58//58 65//65
f 33//33 84//84 91//91
f 33//33 91//91 39//39
f 34//34 41//41 64//64
f 34//34 64//64 59//59
f 34//34 97//97 41//41
f 34//34 111//111 97//97
f 35//35 42//42 99//99
f 35//35 46//46 54//54
f 35//35 54//54 68//68
f 35//35 68//68 42//42
f 35//35 90//90 46//46
f 35//35 99//99 90//90
f 36//36 43//43 67//67
f 36//36 67//67 62//62
f 36//36 89//89 98//98
f 36//36 98//98 43//43
f 37//37 44//44 56//56
f 37//37 56//56 52//52
f 37//37 85//85 44//44
f 37//37 104//104 85//85
f 38//38 40//40 66//66
f 38//38 66//66 117//117
f 38//38 87//87 40//40
f 38//38 93//93 87//87
f 39//39 69//69 58//58
f 39//39 91//91 100//100
f 40//40 63//63 66//66
f 40//40 87//87 111//111
f 41//41 72//72 64//64
f 41//41 97//97 86//86
f 42//42 48//48 82//82
f 42//42 55//55 48//48
f 42//42 68//68 55//55
f 42//42 82//82 99//99
f 43//43 48//48 55//55
f 43//43 55//55 67//67
f 43//43 81//81 48//48
f 43//43 98//98 81//81
f 44//44 70//70 56//56
f 44//44 85//85 92//92
f 45//45 50//50 53//53
f 45//45 77//77 81//81
f 45//45 81//81 98//98
f 45//45 82//82 77//77
f 45//45 99//99 82//82
f 46//46 90//90 118//118
f 46//46 118//118 119//119
f 46//46 119//119 54//54
f 47//47 49//49 97//97
f 47//47 53//53 49//49
f 47//47 87//87 93//93
f 47//47 93//93 103//103
f 47//47 97//97 111//111
f 47//47 111//111 87//87
f 48//48 77//77 82//82
f 48//48 81//81 77//77
f 49//49 53//53 50//50
f 49//49 86//86 97//97
f 49//49 94//94 86//86
f 49//49 102//102 94//94
f 50//50 85//85 104//104
f 50//50 92//92 85//85
f 50//50 101//101 92//92
f 53//53 112//112 113//113
f 53//53 113//113 115//115
f 53//53 114//114 112//112
f 71//71 112//112 114//114
f 71//71 113//113 112//112
f 71//71 114//114 119//119
f 71//71 115//115 113//113
f 71//71 118//118 115//115
f 71//71 119//119 118//118
f 73//73 75//75 116//116
f 73//73 105//105 110//110
f 73//73 107//107 109//109
f 73//73 109//109 75//75
f 73//73 110//110 107//107
f 73//73 116//116 105//105
f 75//75 117//117 116//116
f 106//106 116//116 117//117
# 234 faces, 0 coords texture

# End of File
