####
#
# OBJ File Generated by Meshlab
#
####
# Object convhull_LEP_NoShell_1.obj
#
# Vertices: 120
# Faces: 236
#
####
vn -6.141663 -0.000002 1.317353
v -0.035685 0.039500 -0.023699 0.698039 0.698039 0.698039
vn -5.581039 0.000000 2.843919
v -0.033268 0.039500 -0.016260 0.698039 0.698039 0.698039
vn -4.883173 -0.034370 3.952261
v -0.013817 0.039500 0.009273 0.698039 0.698039 0.698039
vn -4.346415 -0.173349 4.472451
v -0.011690 0.039500 0.011844 0.698039 0.698039 0.698039
vn -3.407032 -0.230438 5.213833
v -0.009093 0.039500 0.013940 0.698039 0.698039 0.698039
vn -0.642257 -0.123953 5.771159
v -0.006130 0.039500 0.015476 0.698039 0.698039 0.698039
vn 2.208087 -0.000011 5.870410
v 0.005382 0.039500 0.012108 0.698039 0.698039 0.698039
vn 3.561006 -0.000010 5.162276
v 0.008130 0.039500 0.010463 0.698039 0.698039 0.698039
vn 4.697154 -0.000009 4.154091
v 0.010402 0.039500 0.008208 0.698039 0.698039 0.698039
vn 5.573146 -0.000008 2.867393
v 0.012068 0.039500 0.005473 0.698039 0.698039 0.698039
vn 6.099574 -0.000007 1.438730
v 0.013028 0.039500 0.002419 0.698039 0.698039 0.698039
vn 6.265327 -0.000005 -0.079020
v 0.013228 0.039500 -0.000777 0.698039 0.698039 0.698039
vn 6.071056 -0.000003 -1.557885
v 0.012655 0.039500 -0.003927 0.698039 0.698039 0.698039
vn 5.468876 -0.000007 -3.046238
v 0.011344 0.039500 -0.006848 0.698039 0.698039 0.698039
vn 0.000000 6.283186 0.000000
v -0.026995 0.044500 -0.025991 0.698039 0.698039 0.698039
vn 0.000000 6.283185 0.000000
v -0.026728 0.044500 -0.024991 0.698039 0.698039 0.698039
vn 0.000000 6.283185 0.000000
v -0.025995 0.044500 -0.024259 0.698039 0.698039 0.698039
vn 0.000000 6.283185 0.000000
v -0.024995 0.044500 -0.023991 0.698039 0.698039 0.698039
vn 0.000000 6.283185 0.000000
v -0.018995 0.044500 -0.023991 0.698039 0.698039 0.698039
vn 0.000000 6.283185 0.000000
v -0.017995 0.044500 -0.024259 0.698039 0.698039 0.698039
vn 0.000000 6.283185 0.000000
v -0.017263 0.044500 -0.024991 0.698039 0.698039 0.698039
vn 0.000000 6.283185 0.000000
v -0.016995 0.044500 -0.025991 0.698039 0.698039 0.698039
vn 0.000000 6.283185 0.000000
v -0.016995 0.044500 -0.032996 0.698039 0.698039 0.698039
vn 0.000000 6.283187 0.000000
v -0.016862 0.044500 -0.033496 0.698039 0.698039 0.698039
vn 0.000000 6.283182 0.000000
v -0.016495 0.044500 -0.033862 0.698039 0.698039 0.698039
vn -0.000160 3.141572 -3.141593
v -0.015995 0.044500 -0.033996 0.698039 0.698039 0.698039
vn 1.261082 2.237274 -2.506650
v -0.007992 0.044500 -0.033996 0.698039 0.698039 0.698039
vn 0.000000 6.283185 0.000000
v -0.007992 0.044500 -0.030874 0.698039 0.698039 0.698039
vn 0.000000 6.283185 0.000000
v -0.007652 0.044500 -0.028285 0.698039 0.698039 0.698039
vn 0.000000 6.283186 0.000000
v -0.006653 0.044500 -0.025874 0.698039 0.698039 0.698039
vn 0.000000 6.283186 0.000000
v -0.005063 0.044500 -0.023803 0.698039 0.698039 0.698039
vn 0.000000 6.283183 0.000000
v 0.009370 0.044500 -0.009369 0.698039 0.698039 0.698039
vn 2.725164 2.965507 -1.536357
v 0.011344 0.044500 -0.006848 0.698039 0.698039 0.698039
vn 2.978507 2.899787 -0.924325
v 0.012655 0.044500 -0.003927 0.698039 0.698039 0.698039
vn 3.113004 2.899337 -0.183022
v 0.013228 0.044500 -0.000777 0.698039 0.698039 0.698039
vn 3.066242 2.899763 0.569134
v 0.013028 0.044500 0.002419 0.698039 0.698039 0.698039
vn 2.840038 2.899350 1.288188
v 0.012068 0.044500 0.005473 0.698039 0.698039 0.698039
vn 2.448047 2.899944 1.932021
v 0.010402 0.044500 0.008208 0.698039 0.698039 0.698039
vn 1.913409 2.899817 2.462700
v 0.008130 0.044500 0.010463 0.698039 0.698039 0.698039
vn 1.266590 2.899775 2.849762
v 0.005382 0.044500 0.012108 0.698039 0.698039 0.698039
vn 0.893996 3.125172 3.011592
v 0.002321 0.044500 0.013045 0.698039 0.698039 0.698039
vn 0.000000 6.283185 0.000000
v -0.000876 0.044500 0.013221 0.698039 0.698039 0.698039
vn 0.000000 6.283185 0.000000
v -0.002821 0.044500 0.013453 0.698039 0.698039 0.698039
vn 0.000000 6.283185 0.000000
v -0.004622 0.044500 0.014225 0.698039 0.698039 0.698039
vn -0.288833 2.383460 2.904176
v -0.006130 0.044500 0.015476 0.698039 0.698039 0.698039
vn -1.709467 2.940800 2.616903
v -0.009093 0.044500 0.013940 0.698039 0.698039 0.698039
vn -2.196840 2.941012 2.223637
v -0.011690 0.044500 0.011844 0.698039 0.698039 0.698039
vn -2.446321 3.115497 1.970644
v -0.013817 0.044500 0.009273 0.698039 0.698039 0.698039
vn 0.000000 6.283183 0.000000
v -0.015388 0.044500 0.006328 0.698039 0.698039 0.698039
vn 0.000000 6.283185 0.000000
v -0.016340 0.044500 0.003130 0.698039 0.698039 0.698039
vn 0.000000 6.283185 0.000000
v -0.016510 0.044500 0.002559 0.698039 0.698039 0.698039
vn 0.000000 6.283185 0.000000
v -0.016788 0.044500 0.002033 0.698039 0.698039 0.698039
vn 0.000000 6.283187 0.000000
v -0.017166 0.044500 0.001572 0.698039 0.698039 0.698039
vn 0.000000 6.283184 0.000000
v -0.028670 0.044500 -0.009932 0.698039 0.698039 0.698039
vn -2.575313 3.026364 1.790150
v -0.031218 0.044500 -0.012915 0.698039 0.698039 0.698039
vn -2.790588 2.984391 1.421743
v -0.033268 0.044500 -0.016260 0.698039 0.698039 0.698039
vn -2.978668 2.984788 0.967764
v -0.034769 0.044500 -0.019885 0.698039 0.698039 0.698039
vn -3.090637 3.022067 0.517760
v -0.035685 0.044500 -0.023699 0.698039 0.698039 0.698039
vn -3.137294 3.166849 0.131880
v -0.035992 0.044500 -0.027610 0.698039 0.698039 0.698039
vn -1.570236 1.630490 -1.608542
v -0.035992 0.044500 -0.033992 0.698039 0.698039 0.698039
vn 0.000000 6.283167 0.000000
v -0.027995 0.044500 -0.033992 0.698039 0.698039 0.698039
vn 0.000000 6.283185 0.000000
v -0.027495 0.044500 -0.033858 0.698039 0.698039 0.698039
vn 0.000000 6.283185 0.000000
v -0.027129 0.044500 -0.033492 0.698039 0.698039 0.698039
vn 0.000000 6.283185 0.000000
v -0.026995 0.044500 -0.032992 0.698039 0.698039 0.698039
vn -0.608173 -6.222009 0.067232
v -0.004995 -0.011000 0.000005 0.698039 0.698039 0.698039
vn -0.918531 -6.094206 0.542514
v -0.004614 -0.011000 0.001919 0.698039 0.698039 0.698039
vn -1.107977 -5.776225 1.291483
v -0.003530 -0.011000 0.003541 0.698039 0.698039 0.698039
vn -0.671768 -5.726223 1.632666
v -0.001907 -0.011000 0.004625 0.698039 0.698039 0.698039
vn -0.004557 -5.725841 1.766032
v 0.000007 -0.011000 0.005006 0.698039 0.698039 0.698039
vn 0.677641 -5.726881 1.629467
v 0.001921 -0.011000 0.004625 0.698039 0.698039 0.698039
vn 1.248454 -5.725982 1.248732
v 0.003544 -0.011000 0.003541 0.698039 0.698039 0.698039
vn 1.629986 -5.726509 0.677570
v 0.004628 -0.011000 0.001919 0.698039 0.698039 0.698039
vn 1.766135 -5.725840 -0.004658
v 0.005008 -0.011000 0.000005 0.698039 0.698039 0.698039
vn 1.633461 -5.725712 -0.671617
v 0.004628 -0.011000 -0.001909 0.698039 0.698039 0.698039
vn 1.308481 -5.821521 -0.976021
v 0.003544 -0.011000 -0.003532 0.698039 0.698039 0.698039
vn 0.387944 -6.174421 -0.713820
v 0.001921 -0.011000 -0.004616 0.698039 0.698039 0.698039
vn 0.048505 -6.225941 -0.589797
v 0.000007 -0.011000 -0.004997 0.698039 0.698039 0.698039
vn -0.143568 -6.249726 -0.429149
v -0.001907 -0.011000 -0.004616 0.698039 0.698039 0.698039
vn -0.277533 -6.257729 -0.280209
v -0.003530 -0.011000 -0.003532 0.698039 0.698039 0.698039
vn -0.412621 -6.252047 -0.142311
v -0.004614 -0.011000 -0.001909 0.698039 0.698039 0.698039
vn 5.846080 0.000003 -2.281358
v 0.012650 0.000000 -0.003942 0.698039 0.698039 0.698039
vn 6.220193 0.000003 -0.836547
v 0.013226 0.000000 -0.000800 0.698039 0.698039 0.698039
vn 6.237081 0.000005 0.693451
v 0.013033 0.000000 0.002388 0.698039 0.698039 0.698039
vn 5.885620 0.000006 2.175951
v 0.012083 0.000000 0.005438 0.698039 0.698039 0.698039
vn 5.165422 0.000008 3.558603
v 0.010430 0.000000 0.008172 0.698039 0.698039 0.698039
vn 4.158596 0.000010 4.695940
v 0.008172 0.000000 0.010430 0.698039 0.698039 0.698039
vn 2.900474 0.000012 5.560287
v 0.005438 0.000000 0.012083 0.698039 0.698039 0.698039
vn 1.793450 0.000044 6.021441
v 0.002388 0.000000 0.013033 0.698039 0.698039 0.698039
vn -5.150756 0.000003 3.580082
v -0.031219 0.000000 -0.012916 0.698039 0.698039 0.698039
vn -5.581040 0.000000 2.843919
v -0.033268 0.000000 -0.016260 0.698039 0.698039 0.698039
vn -5.957229 0.000004 1.935449
v -0.034770 0.000000 -0.019885 0.698039 0.698039 0.698039
vn 0.000000 0.000000 -6.283189
v -0.035993 0.000000 -0.033997 0.698039 0.698039 0.698039
vn -1.700280 -1.628370 -1.741012
v -0.035993 -0.006000 -0.033997 0.698039 0.698039 0.698039
vn 1.391735 -2.207417 -2.928396
v -0.007993 -0.006000 -0.033996 0.698039 0.698039 0.698039
vn -3.127766 -2.831293 3.524483
v -0.009369 -0.006000 0.009369 0.698039 0.698039 0.698039
vn -2.406948 -2.742912 3.975989
v -0.006855 -0.006000 0.011339 0.698039 0.698039 0.698039
vn -1.372477 -2.735577 4.438191
v -0.003942 -0.006000 0.012650 0.698039 0.698039 0.698039
vn -0.256553 -2.678710 4.637682
v -0.000800 -0.006000 0.013226 0.698039 0.698039 0.698039
vn 0.878133 -2.562328 4.560236
v 0.002388 -0.006000 0.013033 0.698039 0.698039 0.698039
vn 1.904685 -2.504999 4.228402
v 0.005438 -0.006000 0.012083 0.698039 0.698039 0.698039
vn 2.858789 -2.504665 3.653041
v 0.008172 -0.006000 0.010430 0.698039 0.698039 0.698039
vn 3.653060 -2.504563 2.858857
v 0.010430 -0.006000 0.008172 0.698039 0.698039 0.698039
vn 4.228581 -2.504717 1.904768
v 0.012083 -0.006000 0.005438 0.698039 0.698039 0.698039
vn 4.564199 -2.503767 0.836688
v 0.013033 -0.006000 0.002388 0.698039 0.698039 0.698039
vn 4.627725 -2.505379 -0.283369
v 0.013226 -0.006000 -0.000800 0.698039 0.698039 0.698039
vn 4.427836 -2.505431 -1.376133
v 0.012650 -0.006000 -0.003942 0.698039 0.698039 0.698039
vn 4.056417 -2.562307 -2.307570
v 0.011339 -0.006000 -0.006855 0.698039 0.698039 0.698039
vn -3.634060 -3.137458 0.143652
v -0.035993 -0.006000 -0.027610 0.698039 0.698039 0.698039
vn -3.618320 -2.980209 0.583494
v -0.035685 -0.006000 -0.023700 0.698039 0.698039 0.698039
vn -3.584279 -2.920508 1.135557
v -0.034770 -0.006000 -0.019885 0.698039 0.698039 0.698039
vn -3.496137 -2.887607 1.739948
v -0.033268 -0.006000 -0.016260 0.698039 0.698039 0.698039
vn -3.382001 -2.850272 2.361793
v -0.031219 -0.006000 -0.012916 0.698039 0.698039 0.698039
vn -3.361586 -2.885571 2.994755
v -0.028671 -0.006000 -0.009932 0.698039 0.698039 0.698039
vn 2.613589 -0.004646 -4.883705
v -0.006993 0.018000 -0.033996 0.698039 0.698039 0.698039
vn -0.001941 0.000856 -6.283184
v -0.035508 0.024508 -0.033997 0.698039 0.698039 0.698039
vn -0.007908 0.000940 -6.283175
v -0.036617 0.021338 -0.033997 0.698039 0.698039 0.698039
vn -3.139111 -0.006087 -3.062201
v -0.036993 0.018000 -0.033997 0.698039 0.698039 0.698039
vn 0.000000 0.000000 -6.283186
v -0.036617 0.014662 -0.033997 0.698039 0.698039 0.698039
vn 0.000111 -0.000002 -6.283183
v -0.035508 0.011492 -0.033997 0.698039 0.698039 0.698039
vn -6.225326 -0.007878 0.506654
v -0.036993 0.018000 -0.030607 0.698039 0.698039 0.698039
# 120 vertices, 0 vertices normals

f 1//1 58//58 120//120
f 1//1 91//91 58//58
f 1//1 109//109 110//110
f 1//1 110//110 91//91
f 1//1 120//120 109//109
f 2//2 56//56 91//91
f 2//2 89//89 56//56
f 2//2 90//90 89//89
f 2//2 91//91 90//90
f 3//3 4//4 48//48
f 3//3 48//48 89//89
f 3//3 89//89 112//112
f 3//3 112//112 4//4
f 4//4 5//5 47//47
f 4//4 47//47 48//48
f 4//4 95//95 5//5
f 4//4 112//112 113//113
f 4//4 113//113 95//95
f 5//5 6//6 46//46
f 5//5 46//46 47//47
f 5//5 95//95 96//96
f 5//5 96//96 6//6
f 6//6 45//45 46//46
f 6//6 88//88 45//45
f 6//6 96//96 97//97
f 6//6 97//97 98//98
f 6//6 98//98 99//99
f 6//6 99//99 88//88
f 7//7 40//40 88//88
f 7//7 87//87 40//40
f 7//7 88//88 99//99
f 7//7 99//99 100//100
f 7//7 100//100 87//87
f 8//8 39//39 87//87
f 8//8 86//86 39//39
f 8//8 87//87 100//100
f 8//8 100//100 101//101
f 8//8 101//101 86//86
f 9//9 38//38 86//86
f 9//9 85//85 38//38
f 9//9 86//86 101//101
f 9//9 101//101 102//102
f 9//9 102//102 85//85
f 10//10 37//37 85//85
f 10//10 84//84 37//37
f 10//10 85//85 102//102
f 10//10 102//102 103//103
f 10//10 103//103 84//84
f 11//11 36//36 84//84
f 11//11 83//83 36//36
f 11//11 84//84 103//103
f 11//11 103//103 104//104
f 11//11 104//104 83//83
f 12//12 35//35 83//83
f 12//12 82//82 35//35
f 12//12 83//83 104//104
f 12//12 104//104 105//105
f 12//12 105//105 82//82
f 13//13 34//34 82//82
f 13//13 81//81 34//34
f 13//13 82//82 105//105
f 13//13 105//105 106//106
f 13//13 106//106 81//81
f 14//14 33//33 81//81
f 14//14 81//81 106//106
f 14//14 106//106 107//107
f 14//14 107//107 114//114
f 14//14 114//114 33//33
f 15//15 16//16 17//17
f 15//15 17//17 18//18
f 15//15 18//18 19//19
f 15//15 19//19 22//22
f 15//15 22//22 64//64
f 15//15 58//58 16//16
f 15//15 59//59 58//58
f 15//15 64//64 59//59
f 16//16 57//57 17//17
f 16//16 58//58 57//57
f 17//17 56//56 18//18
f 17//17 57//57 56//56
f 18//18 54//54 19//19
f 18//18 55//55 54//54
f 18//18 56//56 55//55
f 19//19 20//20 21//21
f 19//19 21//21 22//22
f 19//19 53//53 20//20
f 19//19 54//54 53//53
f 20//20 31//31 21//21
f 20//20 53//53 31//31
f 21//21 30//30 22//22
f 21//21 31//31 30//30
f 22//22 23//23 64//64
f 22//22 28//28 23//23
f 22//22 29//29 28//28
f 22//22 30//30 29//29
f 23//23 24//24 64//64
f 23//23 25//25 24//24
f 23//23 26//26 25//25
f 23//23 28//28 26//26
f 24//24 25//25 62//62
f 24//24 62//62 63//63
f 24//24 63//63 64//64
f 25//25 26//26 61//61
f 25//25 61//61 62//62
f 26//26 27//27 115//115
f 26//26 28//28 27//27
f 26//26 60//60 61//61
f 26//26 115//115 60//60
f 27//27 28//28 31//31
f 27//27 31//31 32//32
f 27//27 32//32 33//33
f 27//27 33//33 114//114
f 27//27 114//114 115//115
f 28//28 29//29 30//30
f 28//28 30//30 31//31
f 31//31 53//53 32//32
f 32//32 34//34 33//33
f 32//32 41//41 34//34
f 32//32 42//42 41//41
f 32//32 50//50 42//42
f 32//32 51//51 50//50
f 32//32 52//52 51//51
f 32//32 53//53 52//52
f 33//33 34//34 81//81
f 34//34 35//35 82//82
f 34//34 36//36 35//35
f 34//34 38//38 36//36
f 34//34 41//41 38//38
f 35//35 36//36 83//83
f 36//36 37//37 84//84
f 36//36 38//38 37//37
f 37//37 38//38 85//85
f 38//38 39//39 86//86
f 38//38 41//41 39//39
f 39//39 40//40 87//87
f 39//39 41//41 40//40
f 40//40 41//41 88//88
f 41//41 42//42 45//45
f 41//41 45//45 88//88
f 42//42 43//43 45//45
f 42//42 50//50 43//43
f 43//43 44//44 45//45
f 43//43 47//47 44//44
f 43//43 48//48 47//47
f 43//43 49//49 48//48
f 43//43 50//50 49//49
f 44//44 46//46 45//45
f 44//44 47//47 46//46
f 48//48 49//49 54//54
f 48//48 54//54 55//55
f 48//48 55//55 89//89
f 49//49 50//50 53//53
f 49//49 53//53 54//54
f 50//50 51//51 53//53
f 51//51 52//52 53//53
f 55//55 56//56 89//89
f 56//56 57//57 91//91
f 57//57 58//58 91//91
f 58//58 59//59 120//120
f 59//59 60//60 120//120
f 59//59 61//61 60//60
f 59//59 64//64 61//61
f 60//60 115//115 116//116
f 60//60 116//116 117//117
f 60//60 117//117 120//120
f 61//61 64//64 62//62
f 62//62 64//64 63//63
f 65//65 66//66 109//109
f 65//65 80//80 66//66
f 65//65 93//93 80//80
f 65//65 108//108 93//93
f 65//65 109//109 108//108
f 66//66 67//67 112//112
f 66//66 68//68 67//67
f 66//66 80//80 68//68
f 66//66 110//110 109//109
f 66//66 111//111 110//110
f 66//66 112//112 111//111
f 67//67 68//68 96//96
f 67//67 95//95 113//113
f 67//67 96//96 95//95
f 67//67 113//113 112//112
f 68//68 69//69 97//97
f 68//68 70//70 69//69
f 68//68 73//73 70//70
f 68//68 78//78 73//73
f 68//68 80//80 78//78
f 68//68 97//97 96//96
f 69//69 70//70 99//99
f 69//69 98//98 97//97
f 69//69 99//99 98//98
f 70//70 71//71 101//101
f 70//70 73//73 71//71
f 70//70 100//100 99//99
f 70//70 101//101 100//100
f 71//71 72//72 102//102
f 71//71 73//73 72//72
f 71//71 102//102 101//101
f 72//72 73//73 104//104
f 72//72 103//103 102//102
f 72//72 104//104 103//103
f 73//73 74//74 106//106
f 73//73 76//76 74//74
f 73//73 78//78 76//76
f 73//73 105//105 104//104
f 73//73 106//106 105//105
f 74//74 75//75 107//107
f 74//74 76//76 75//75
f 74//74 107//107 106//106
f 75//75 76//76 94//94
f 75//75 94//94 107//107
f 76//76 77//77 94//94
f 76//76 78//78 77//77
f 77//77 78//78 93//93
f 77//77 93//93 94//94
f 78//78 79//79 93//93
f 78//78 80//80 79//79
f 79//79 80//80 93//93
f 89//89 90//90 112//112
f 90//90 91//91 111//111
f 90//90 111//111 112//112
f 91//91 110//110 111//111
f 92//92 93//93 117//117
f 92//92 117//117 118//118
f 92//92 118//118 119//119
f 92//92 119//119 93//93
f 93//93 108//108 120//120
f 93//93 114//114 94//94
f 93//93 119//119 114//114
f 93//93 120//120 117//117
f 94//94 114//114 107//107
f 108//108 109//109 120//120
f 114//114 119//119 115//115
f 115//115 117//117 116//116
f 115//115 119//119 117//117
f 117//117 119//119 118//118
# 236 faces, 0 coords texture

# End of File
