####
#
# OBJ File Generated by Meshlab
#
####
# Object convhull_Torso_NoShell_2.obj
#
# Vertices: 122
# Faces: 240
#
####
vn -1.796068 -2.629173 3.282391
v -0.092499 -0.125000 0.040686 0.698039 0.698039 0.698039
vn -3.716230 -3.301607 1.297683
v -0.101733 -0.125000 0.029682 0.698039 0.698039 0.698039
vn -3.716230 3.301607 1.297683
v -0.101733 0.125000 0.029682 0.698039 0.698039 0.698039
vn -3.319788 3.175282 2.014216
v -0.100186 0.125000 0.033000 0.698039 0.698039 0.698039
vn 1.200161 0.085604 -6.040147
v 0.030086 0.009343 -0.196500 0.698039 0.698039 0.698039
vn -0.194861 4.810788 2.858970
v -0.010857 0.141500 0.032852 0.698039 0.698039 0.698039
vn -0.557304 -0.116690 -6.228917
v -0.028323 -0.013782 -0.196500 0.698039 0.698039 0.698039
vn 0.611643 0.064443 6.209195
v 0.032000 0.020000 0.048500 0.698039 0.698039 0.698039
vn 1.315042 5.614474 1.376877
v 0.030839 0.144500 0.014454 0.698039 0.698039 0.698039
vn -0.259523 -0.075671 6.264874
v -0.032000 -0.020000 0.048500 0.698039 0.698039 0.698039
vn -2.736658 -2.887993 2.618796
v -0.098086 -0.125000 0.035998 0.698039 0.698039 0.698039
vn -0.757087 -2.625895 4.404023
v -0.081999 -0.125000 0.043500 0.698039 0.698039 0.698039
vn -1.108572 2.535342 4.098893
v -0.081999 0.125000 0.043500 0.698039 0.698039 0.698039
vn -0.556582 0.115260 -6.229116
v -0.028323 0.013755 -0.196500 0.698039 0.698039 0.698039
vn 1.200273 -0.085807 -6.040095
v 0.030086 -0.009370 -0.196500 0.698039 0.698039 0.698039
vn 0.000000 -1.852893 5.777699
v -0.013000 -0.125000 0.043500 0.698039 0.698039 0.698039
vn 0.000000 1.852893 5.777699
v -0.013000 0.125000 0.043500 0.698039 0.698039 0.698039
vn 0.000000 -1.852893 5.777700
v 0.013000 -0.125000 0.043500 0.698039 0.698039 0.698039
vn 0.000000 1.852893 5.777699
v 0.013000 0.125000 0.043500 0.698039 0.698039 0.698039
vn 0.283676 -4.777490 2.696526
v 0.010857 -0.141500 0.032852 0.698039 0.698039 0.698039
vn -6.183167 -0.726653 -0.118511
v -0.121705 -0.048950 -0.048498 0.698039 0.698039 0.698039
vn 3.074890 0.000000 5.088166
v 0.055000 0.120000 0.043500 0.698039 0.698039 0.698039
vn -4.153480 4.452775 -0.828375
v -0.102635 0.125000 -0.035333 0.698039 0.698039 0.698039
vn -4.169184 -4.429162 -0.831522
v -0.102635 -0.125000 -0.035333 0.698039 0.698039 0.698039
vn -6.183892 0.724001 -0.115389
v -0.121705 0.048950 -0.048498 0.698039 0.698039 0.698039
vn 3.074891 0.000000 5.088166
v 0.055000 -0.120000 0.043500 0.698039 0.698039 0.698039
vn 4.615129 -1.358003 -2.328928
v 0.086000 -0.070995 -0.173299 0.698039 0.698039 0.698039
vn 4.604740 1.366015 -2.327676
v 0.086000 0.071505 -0.173299 0.698039 0.698039 0.698039
vn -3.117195 4.193989 -2.127880
v -0.076700 0.125000 -0.163500 0.698039 0.698039 0.698039
vn -3.127646 -4.164446 -2.133700
v -0.076700 -0.125000 -0.163500 0.698039 0.698039 0.698039
vn -5.347592 -0.435999 1.944891
v -0.121705 -0.048950 0.011502 0.698039 0.698039 0.698039
vn -1.197276 5.998887 0.239249
v -0.046000 0.150000 -0.061800 0.698039 0.698039 0.698039
vn -1.181047 -5.993504 0.280003
v -0.046000 -0.150000 -0.061800 0.698039 0.698039 0.698039
vn 5.549116 0.000000 2.018276
v 0.089740 0.015200 0.002060 0.698039 0.698039 0.698039
vn 5.549116 0.000000 2.018276
v 0.089740 -0.015200 0.002060 0.698039 0.698039 0.698039
vn -5.347592 0.435999 1.944891
v -0.121705 0.048950 0.011502 0.698039 0.698039 0.698039
vn -4.297986 3.610130 -0.144431
v -0.103000 0.125000 -0.033498 0.698039 0.698039 0.698039
vn -4.298229 -3.608422 -0.147704
v -0.103000 -0.125000 -0.033498 0.698039 0.698039 0.698039
vn -4.097912 -3.504945 0.432361
v -0.102999 -0.125000 0.022500 0.698039 0.698039 0.698039
vn -4.097912 3.504945 0.432361
v -0.102999 0.125000 0.022500 0.698039 0.698039 0.698039
vn -1.318357 5.695173 -0.859855
v -0.046000 0.150000 -0.111300 0.698039 0.698039 0.698039
vn -1.318357 -5.695173 -0.859855
v -0.046000 -0.150000 -0.111300 0.698039 0.698039 0.698039
vn 1.985009 -5.477999 0.282912
v 0.046000 -0.150000 -0.061800 0.698039 0.698039 0.698039
vn 2.006016 5.483505 0.234602
v 0.046000 0.150000 -0.061800 0.698039 0.698039 0.698039
vn -3.319788 -3.175282 2.014216
v -0.100186 -0.125000 0.033000 0.698039 0.698039 0.698039
vn 1.935909 2.133880 3.242472
v 0.055000 0.125000 0.043500 0.698039 0.698039 0.698039
vn 5.168321 -2.352592 -0.209109
v 0.089740 -0.112000 -0.042940 0.698039 0.698039 0.698039
vn 5.168470 2.352759 -0.208161
v 0.089740 0.112000 -0.042940 0.698039 0.698039 0.698039
vn -2.405554 2.630727 2.862996
v -0.098086 0.125000 0.035998 0.698039 0.698039 0.698039
vn 2.189925 -4.870424 -0.922830
v 0.046000 -0.150000 -0.111300 0.698039 0.698039 0.698039
vn 2.189925 4.870424 -0.922830
v 0.046000 0.150000 -0.111300 0.698039 0.698039 0.698039
vn 4.300223 2.000480 1.429951
v 0.089740 0.112000 0.002060 0.698039 0.698039 0.698039
vn 4.300223 -2.000480 1.429951
v 0.089740 -0.112000 0.002060 0.698039 0.698039 0.698039
vn 4.125659 0.269911 -3.048159
v 0.086000 0.070755 -0.173500 0.698039 0.698039 0.698039
vn -0.832090 3.139476 -3.821520
v -0.050000 0.125000 -0.183500 0.698039 0.698039 0.698039
vn -0.838482 -3.134883 -3.819860
v -0.050000 -0.125000 -0.183500 0.698039 0.698039 0.698039
vn 4.127722 -0.268572 -3.047644
v 0.086000 -0.070245 -0.173500 0.698039 0.698039 0.698039
vn 1.658806 -2.637861 -3.008789
v 0.047500 -0.125000 -0.183500 0.698039 0.698039 0.698039
vn 1.655651 2.641612 -3.011645
v 0.047500 0.125000 -0.183500 0.698039 0.698039 0.698039
vn 1.887056 -2.170263 3.155692
v 0.055000 -0.125000 0.043500 0.698039 0.698039 0.698039
vn -3.243344 0.993485 -2.779565
v -0.115000 0.065671 -0.181500 0.698039 0.698039 0.698039
vn -3.254937 -0.979159 -2.790144
v -0.115000 -0.064500 -0.181500 0.698039 0.698039 0.698039
vn 0.000000 0.000000 6.283185
v -0.013980 -0.005491 0.048500 0.698039 0.698039 0.698039
vn 0.000000 0.000000 6.283186
v -0.013803 -0.005865 0.048500 0.698039 0.698039 0.698039
vn 0.000000 0.000000 6.283185
v -0.013577 -0.006211 0.048500 0.698039 0.698039 0.698039
vn 0.000000 0.000000 6.283185
v -0.013305 -0.006522 0.048500 0.698039 0.698039 0.698039
vn 0.000000 0.000000 6.283184
v -0.006523 -0.013305 0.048500 0.698039 0.698039 0.698039
vn 0.000000 0.000000 6.283185
v -0.006211 -0.013577 0.048500 0.698039 0.698039 0.698039
vn 0.000000 0.000000 6.283186
v -0.005865 -0.013803 0.048500 0.698039 0.698039 0.698039
vn 0.000000 0.000000 6.283186
v -0.005491 -0.013980 0.048500 0.698039 0.698039 0.698039
vn 0.000000 0.000000 6.283185
v -0.002794 -0.014758 0.048500 0.698039 0.698039 0.698039
vn 0.000000 0.000000 6.283185
v 0.000000 -0.015020 0.048500 0.698039 0.698039 0.698039
vn 0.028084 -0.135005 6.280152
v 0.002794 -0.014758 0.048500 0.698039 0.698039 0.698039
vn 0.047679 -0.127353 6.280230
v 0.005491 -0.013980 0.048500 0.698039 0.698039 0.698039
vn 0.066636 -0.117829 6.280260
v 0.005865 -0.013803 0.048500 0.698039 0.698039 0.698039
vn 0.085198 -0.109815 6.280100
v 0.006211 -0.013577 0.048500 0.698039 0.698039 0.698039
vn 0.096480 -0.101609 6.280057
v 0.006522 -0.013305 0.048500 0.698039 0.698039 0.698039
vn 0.106946 -0.097700 6.279841
v 0.013305 -0.006522 0.048500 0.698039 0.698039 0.698039
vn 0.123944 -0.093233 6.279349
v 0.013576 -0.006211 0.048500 0.698039 0.698039 0.698039
vn 0.000000 0.000000 6.283181
v 0.013803 -0.005865 0.048500 0.698039 0.698039 0.698039
vn 0.000000 0.000000 6.283185
v 0.013980 -0.005491 0.048500 0.698039 0.698039 0.698039
vn 0.000000 0.000000 6.283186
v 0.014758 -0.002794 0.048500 0.698039 0.698039 0.698039
vn 0.000000 0.000000 6.283186
v 0.015020 0.000000 0.048500 0.698039 0.698039 0.698039
vn 0.000000 0.000000 6.283186
v 0.014758 0.002794 0.048500 0.698039 0.698039 0.698039
vn 0.000000 0.000000 6.283186
v 0.013980 0.005491 0.048500 0.698039 0.698039 0.698039
vn 0.000000 0.000000 6.283185
v 0.013803 0.005865 0.048500 0.698039 0.698039 0.698039
vn 0.000000 0.000000 6.283186
v 0.013576 0.006211 0.048500 0.698039 0.698039 0.698039
vn 0.000000 0.000000 6.283185
v 0.013305 0.006522 0.048500 0.698039 0.698039 0.698039
vn 0.000000 0.000000 6.283185
v -0.013980 0.005491 0.048500 0.698039 0.698039 0.698039
vn 0.000000 0.000000 6.283186
v -0.014758 0.002794 0.048500 0.698039 0.698039 0.698039
vn 0.000000 0.000000 6.283186
v -0.015020 0.000000 0.048500 0.698039 0.698039 0.698039
vn 0.000000 0.000000 6.283186
v -0.014758 -0.002794 0.048500 0.698039 0.698039 0.698039
vn -0.090012 0.083108 6.280794
v -0.013305 0.006522 0.048500 0.698039 0.698039 0.698039
vn -0.101968 0.077851 6.280560
v -0.013577 0.006211 0.048500 0.698039 0.698039 0.698039
vn 0.000000 0.000000 6.283183
v -0.013803 0.005865 0.048500 0.698039 0.698039 0.698039
vn -0.082576 0.087795 6.280869
v -0.006523 0.013305 0.048500 0.698039 0.698039 0.698039
vn -0.043140 0.118902 6.280629
v -0.005491 0.013980 0.048500 0.698039 0.698039 0.698039
vn -0.059187 0.106773 6.280807
v -0.005865 0.013803 0.048500 0.698039 0.698039 0.698039
vn -0.073721 0.096937 6.280817
v -0.006211 0.013577 0.048500 0.698039 0.698039 0.698039
vn 0.000000 0.000000 6.283186
v 0.005491 0.013980 0.048500 0.698039 0.698039 0.698039
vn 0.000000 0.000000 6.283186
v 0.002794 0.014758 0.048500 0.698039 0.698039 0.698039
vn 0.000000 0.000000 6.283185
v 0.000000 0.015020 0.048500 0.698039 0.698039 0.698039
vn -0.025899 0.129708 6.280395
v -0.002794 0.014758 0.048500 0.698039 0.698039 0.698039
vn 0.000000 0.000000 6.283185
v 0.006522 0.013305 0.048500 0.698039 0.698039 0.698039
vn 0.000000 0.000000 6.283185
v 0.006211 0.013577 0.048500 0.698039 0.698039 0.698039
vn 0.000000 0.000000 6.283186
v 0.005865 0.013803 0.048500 0.698039 0.698039 0.698039
vn 0.328580 0.443926 -6.225825
v 0.021722 0.024452 -0.196500 0.698039 0.698039 0.698039
vn 0.000000 0.000000 -6.283185
v 0.022111 0.022899 -0.196500 0.698039 0.698039 0.698039
vn 0.000000 0.000000 -6.283185
v 0.022971 0.021549 -0.196500 0.698039 0.698039 0.698039
vn 0.540219 0.279569 -6.223650
v 0.025950 0.017855 -0.196500 0.698039 0.698039 0.698039
vn 0.540312 -0.279618 -6.223627
v 0.025950 -0.017882 -0.196500 0.698039 0.698039 0.698039
vn 0.000000 0.000000 -6.283185
v 0.022971 -0.021576 -0.196500 0.698039 0.698039 0.698039
vn 0.000000 0.000000 -6.283185
v 0.022111 -0.022926 -0.196500 0.698039 0.698039 0.698039
vn 0.328632 -0.444029 -6.225801
v 0.021722 -0.024479 -0.196500 0.698039 0.698039 0.698039
vn -0.280090 -0.432345 -6.233428
v -0.021706 -0.024479 -0.196500 0.698039 0.698039 0.698039
vn 0.000000 0.000000 -6.283185
v -0.022095 -0.022926 -0.196500 0.698039 0.698039 0.698039
vn 0.000000 0.000000 -6.283186
v -0.022955 -0.021576 -0.196500 0.698039 0.698039 0.698039
vn -0.401497 -0.245980 -6.247689
v -0.025934 -0.017882 -0.196500 0.698039 0.698039 0.698039
vn -0.399094 0.244430 -6.248122
v -0.025934 0.017855 -0.196500 0.698039 0.698039 0.698039
vn 0.000000 0.000000 -6.283185
v -0.022955 0.021549 -0.196500 0.698039 0.698039 0.698039
vn 0.000000 0.000000 -6.283185
v -0.022095 0.022899 -0.196500 0.698039 0.698039 0.698039
vn -0.277873 0.431741 -6.233769
v -0.021706 0.024452 -0.196500 0.698039 0.698039 0.698039
# 122 vertices, 0 vertices normals

f 1//1 11//11 33//33
f 1//1 12//12 13//13
f 1//1 13//13 49//49
f 1//1 20//20 12//12
f 1//1 33//33 20//20
f 1//1 49//49 11//11
f 2//2 31//31 39//39
f 2//2 33//33 45//45
f 2//2 39//39 33//33
f 2//2 45//45 31//31
f 3//3 4//4 32//32
f 3//3 32//32 40//40
f 3//3 36//36 4//4
f 3//3 40//40 36//36
f 4//4 36//36 49//49
f 4//4 49//49 32//32
f 5//5 14//14 109//109
f 5//5 15//15 14//14
f 5//5 54//54 57//57
f 5//5 57//57 15//15
f 5//5 59//59 54//54
f 5//5 109//109 110//110
f 5//5 110//110 59//59
f 6//6 9//9 32//32
f 6//6 13//13 17//17
f 6//6 17//17 19//19
f 6//6 19//19 46//46
f 6//6 32//32 49//49
f 6//6 46//46 9//9
f 6//6 49//49 13//13
f 7//7 14//14 15//15
f 7//7 15//15 112//112
f 7//7 62//62 14//14
f 7//7 112//112 117//117
f 7//7 117//117 118//118
f 7//7 118//118 62//62
f 8//8 13//13 103//103
f 8//8 17//17 13//13
f 8//8 19//19 17//17
f 8//8 22//22 46//46
f 8//8 26//26 22//22
f 8//8 46//46 19//19
f 8//8 60//60 26//26
f 8//8 79//79 60//60
f 8//8 80//80 79//79
f 8//8 81//81 80//80
f 8//8 82//82 81//81
f 8//8 83//83 82//82
f 8//8 84//84 83//83
f 8//8 85//85 84//84
f 8//8 86//86 85//85
f 8//8 87//87 86//86
f 8//8 88//88 87//87
f 8//8 100//100 106//106
f 8//8 101//101 100//100
f 8//8 102//102 101//101
f 8//8 103//103 102//102
f 8//8 104//104 88//88
f 8//8 105//105 104//104
f 8//8 106//106 105//105
f 9//9 44//44 32//32
f 9//9 46//46 44//44
f 10//10 12//12 16//16
f 10//10 13//13 12//12
f 10//10 16//16 18//18
f 10//10 18//18 60//60
f 10//10 60//60 73//73
f 10//10 63//63 92//92
f 10//10 64//64 63//63
f 10//10 65//65 64//64
f 10//10 66//66 65//65
f 10//10 67//67 66//66
f 10//10 68//68 67//67
f 10//10 69//69 68//68
f 10//10 70//70 69//69
f 10//10 71//71 70//70
f 10//10 72//72 71//71
f 10//10 73//73 72//72
f 10//10 89//89 95//95
f 10//10 90//90 89//89
f 10//10 91//91 90//90
f 10//10 92//92 91//91
f 10//10 94//94 13//13
f 10//10 95//95 94//94
f 11//11 31//31 45//45
f 11//11 36//36 31//31
f 11//11 45//45 33//33
f 11//11 49//49 36//36
f 12//12 20//20 16//16
f 13//13 93//93 96//96
f 13//13 94//94 93//93
f 13//13 96//96 99//99
f 13//13 97//97 103//103
f 13//13 98//98 97//97
f 13//13 99//99 98//98
f 14//14 61//61 119//119
f 14//14 62//62 61//61
f 14//14 119//119 120//120
f 14//14 120//120 109//109
f 15//15 57//57 58//58
f 15//15 58//58 111//111
f 15//15 111//111 112//112
f 16//16 20//20 18//18
f 18//18 20//20 60//60
f 20//20 33//33 43//43
f 20//20 43//43 60//60
f 21//21 25//25 62//62
f 21//21 31//31 25//25
f 21//21 38//38 31//31
f 21//21 62//62 38//38
f 22//22 26//26 35//35
f 22//22 34//34 52//52
f 22//22 35//35 34//34
f 22//22 52//52 46//46
f 23//23 29//29 61//61
f 23//23 37//37 41//41
f 23//23 41//41 29//29
f 23//23 61//61 37//37
f 24//24 30//30 42//42
f 24//24 38//38 62//62
f 24//24 42//42 38//38
f 24//24 62//62 30//30
f 25//25 31//31 36//36
f 25//25 36//36 37//37
f 25//25 37//37 61//61
f 25//25 61//61 62//62
f 26//26 53//53 35//35
f 26//26 60//60 53//53
f 27//27 47//47 58//58
f 27//27 57//57 47//47
f 27//27 58//58 57//57
f 28//28 48//48 54//54
f 28//28 54//54 59//59
f 28//28 59//59 48//48
f 29//29 41//41 55//55
f 29//29 55//55 61//61
f 30//30 56//56 42//42
f 30//30 62//62 56//56
f 31//31 38//38 39//39
f 32//32 37//37 40//40
f 32//32 41//41 37//37
f 32//32 44//44 51//51
f 32//32 51//51 41//41
f 33//33 38//38 42//42
f 33//33 39//39 38//38
f 33//33 42//42 50//50
f 33//33 50//50 43//43
f 34//34 35//35 47//47
f 34//34 47//47 48//48
f 34//34 48//48 52//52
f 35//35 53//53 47//47
f 36//36 40//40 37//37
f 41//41 51//51 59//59
f 41//41 59//59 55//55
f 42//42 56//56 58//58
f 42//42 58//58 50//50
f 43//43 47//47 53//53
f 43//43 50//50 47//47
f 43//43 53//53 60//60
f 44//44 46//46 52//52
f 44//44 48//48 51//51
f 44//44 52//52 48//48
f 47//47 50//50 58//58
f 47//47 57//57 48//48
f 48//48 57//57 54//54
f 48//48 59//59 51//51
f 55//55 59//59 122//122
f 55//55 122//122 61//61
f 56//56 62//62 115//115
f 56//56 115//115 58//58
f 58//58 114//114 111//111
f 58//58 115//115 114//114
f 59//59 107//107 122//122
f 59//59 110//110 107//107
f 60//60 74//74 73//73
f 60//60 75//75 74//74
f 60//60 76//76 75//75
f 60//60 77//77 76//76
f 60//60 78//78 77//77
f 60//60 79//79 78//78
f 61//61 122//122 119//119
f 62//62 118//118 115//115
f 63//63 64//64 66//66
f 63//63 66//66 92//92
f 64//64 65//65 66//66
f 66//66 67//67 77//77
f 66//66 77//77 93//93
f 66//66 91//91 92//92
f 66//66 93//93 91//91
f 67//67 68//68 69//69
f 67//67 69//69 70//70
f 67//67 70//70 71//71
f 67//67 71//71 72//72
f 67//67 72//72 77//77
f 72//72 73//73 77//77
f 73//73 74//74 77//77
f 74//74 75//75 77//77
f 75//75 76//76 77//77
f 77//77 78//78 104//104
f 77//77 104//104 93//93
f 78//78 79//79 81//81
f 78//78 81//81 82//82
f 78//78 82//82 83//83
f 78//78 83//83 88//88
f 78//78 88//88 104//104
f 79//79 80//80 81//81
f 83//83 84//84 88//88
f 84//84 85//85 88//88
f 85//85 86//86 87//87
f 85//85 87//87 88//88
f 89//89 90//90 93//93
f 89//89 93//93 95//95
f 90//90 91//91 93//93
f 93//93 94//94 95//95
f 93//93 104//104 96//96
f 96//96 97//97 98//98
f 96//96 98//98 99//99
f 96//96 102//102 103//103
f 96//96 103//103 97//97
f 96//96 104//104 102//102
f 100//100 101//101 104//104
f 100//100 104//104 106//106
f 101//101 102//102 104//104
f 104//104 105//105 106//106
f 107//107 108//108 122//122
f 107//107 109//109 108//108
f 107//107 110//110 109//109
f 108//108 109//109 120//120
f 108//108 120//120 121//121
f 108//108 121//121 122//122
f 111//111 114//114 112//112
f 112//112 113//113 117//117
f 112//112 114//114 113//113
f 113//113 114//114 115//115
f 113//113 115//115 116//116
f 113//113 116//116 117//117
f 115//115 117//117 116//116
f 115//115 118//118 117//117
f 119//119 122//122 120//120
f 120//120 122//122 121//121
# 240 faces, 0 coords texture

# End of File
