####
#
# OBJ File Generated by Meshlab
#
####
# Object convhull_LSY_NoShell_2.obj
#
# Vertices: 156
# Faces: 308
#
####
vn -3.117198 0.000003 5.455411
v -0.012608 -0.026500 -0.147652 0.698039 0.698039 0.698039
vn -1.974597 -1.489422 0.353337
v -0.012608 -0.029500 -0.147652 0.698039 0.698039 0.698039
vn 0.432343 -1.837469 2.348562
v 0.021500 -0.029500 -0.128166 0.698039 0.698039 0.698039
vn 0.000000 -6.283185 0.000000
v 0.021500 -0.029500 -0.134135 0.698039 0.698039 0.698039
vn 0.000000 -6.283185 0.000000
v 0.021841 -0.029500 -0.136723 0.698039 0.698039 0.698039
vn 0.000000 -6.283186 0.000000
v 0.022840 -0.029500 -0.139135 0.698039 0.698039 0.698039
vn 0.000000 -6.283185 0.000000
v 0.024429 -0.029500 -0.141206 0.698039 0.698039 0.698039
vn 0.000000 -6.283186 0.000000
v 0.031357 -0.029500 -0.148134 0.698039 0.698039 0.698039
vn 2.523074 -4.516477 1.269448
v 0.033235 -0.029500 -0.150495 0.698039 0.698039 0.698039
vn 2.722297 -4.376632 0.932585
v 0.034530 -0.029500 -0.153220 0.698039 0.698039 0.698039
vn 2.862143 -4.378242 0.291402
v 0.035175 -0.029500 -0.156166 0.698039 0.698039 0.698039
vn 2.854422 -4.376594 -0.364706
v 0.035137 -0.029500 -0.159183 0.698039 0.698039 0.698039
vn 2.724536 -4.473079 -0.814262
v 0.034418 -0.029500 -0.162112 0.698039 0.698039 0.698039
vn 0.000000 -6.283185 0.000000
v 0.033054 -0.029500 -0.164803 0.698039 0.698039 0.698039
vn 0.000000 -6.283185 0.000000
v 0.031663 -0.029500 -0.167211 0.698039 0.698039 0.698039
vn 0.000000 -6.283185 0.000000
v 0.030876 -0.029500 -0.169879 0.698039 0.698039 0.698039
vn 2.019928 -3.196072 -2.232457
v 0.030739 -0.029500 -0.172658 0.698039 0.698039 0.698039
vn 1.028129 -3.467334 -2.942226
v 0.027769 -0.029500 -0.174020 0.698039 0.698039 0.698039
vn 0.463239 -3.465227 -3.082273
v 0.024598 -0.029500 -0.174806 0.698039 0.698039 0.698039
vn -0.117697 -3.462863 -3.114897
v 0.021335 -0.029500 -0.174989 0.698039 0.698039 0.698039
vn -0.694918 -3.459563 -3.038942
v 0.018096 -0.029500 -0.174563 0.698039 0.698039 0.698039
vn -1.248346 -3.457000 -2.856803
v 0.014992 -0.029500 -0.173541 0.698039 0.698039 0.698039
vn -1.757558 -3.453678 -2.575381
v 0.012132 -0.029500 -0.171960 0.698039 0.698039 0.698039
vn -2.095803 -3.543664 -2.302800
v 0.009616 -0.029500 -0.169876 0.698039 0.698039 0.698039
vn 4.672219 0.000000 4.194685
v 0.037203 0.012000 -0.142297 0.698039 0.698039 0.698039
vn 5.606998 -0.000162 2.820857
v 0.041606 0.012000 -0.148676 0.698039 0.698039 0.698039
vn 6.245164 -0.000760 0.627325
v 0.043461 0.012000 -0.156202 0.698039 0.698039 0.698039
vn 6.054817 -0.001266 -1.652964
v 0.042527 0.012000 -0.163896 0.698039 0.698039 0.698039
vn 4.304448 -0.001958 -4.568020
v 0.036257 0.012000 -0.173593 0.698039 0.698039 0.698039
vn 3.399489 -0.002232 -5.276155
v 0.033123 0.012000 -0.175899 0.698039 0.698039 0.698039
vn 2.380587 -0.002535 -5.807343
v 0.029624 0.012000 -0.177603 0.698039 0.698039 0.698039
vn 1.285841 -0.002666 -6.143244
v 0.025876 0.012000 -0.178648 0.698039 0.698039 0.698039
vn 0.145339 -0.002855 -6.274717
v 0.022000 0.012000 -0.179000 0.698039 0.698039 0.698039
vn 5.060624 -0.001961 -3.712314
v 0.038925 0.012000 -0.170760 0.698039 0.698039 0.698039
vn 5.651277 -0.001605 -2.730189
v 0.041038 0.012000 -0.167492 0.698039 0.698039 0.698039
vn 6.253896 -0.001137 -0.528325
v 0.043344 0.012000 -0.160092 0.698039 0.698039 0.698039
vn 6.029624 -0.000667 1.741242
v 0.042876 0.012000 -0.152355 0.698039 0.698039 0.698039
vn 5.015849 -0.000074 3.770985
v 0.039695 0.012000 -0.145287 0.698039 0.698039 0.698039
vn 4.681555 -0.231405 4.162221
v 0.037203 0.005500 -0.142297 0.698039 0.698039 0.698039
vn 5.138222 -0.277122 3.520673
v 0.039738 0.005500 -0.145350 0.698039 0.698039 0.698039
vn 5.697613 -0.278593 2.517068
v 0.041669 0.005500 -0.148816 0.698039 0.698039 0.698039
vn 6.063846 -0.279267 1.427363
v 0.042929 0.005500 -0.152578 0.698039 0.698039 0.698039
vn 6.222934 -0.279965 0.288946
v 0.043478 0.005500 -0.156507 0.698039 0.698039 0.698039
vn 6.170599 -0.281185 -0.860194
v 0.043294 0.005500 -0.160470 0.698039 0.698039 0.698039
vn 5.907554 -0.282311 -1.979323
v 0.042386 0.005500 -0.164333 0.698039 0.698039 0.698039
vn 5.443298 -0.283945 -3.031898
v 0.040783 0.005500 -0.167962 0.698039 0.698039 0.698039
vn 4.794010 -0.285305 -3.980122
v 0.038541 0.005500 -0.171235 0.698039 0.698039 0.698039
vn 3.980661 -0.286887 -4.793452
v 0.035736 0.005500 -0.174041 0.698039 0.698039 0.698039
vn 3.031378 -0.289107 -5.443933
v 0.032462 0.005500 -0.176283 0.698039 0.698039 0.698039
vn 1.980076 -0.291475 -5.908116
v 0.028833 0.005500 -0.177885 0.698039 0.698039 0.698039
vn 0.860708 -0.293898 -6.171127
v 0.024971 0.005500 -0.178794 0.698039 0.698039 0.698039
vn -0.285891 -0.300216 -6.224503
v 0.021008 0.005500 -0.178977 0.698039 0.698039 0.698039
vn -1.426675 -0.306540 -6.065503
v 0.017078 0.005500 -0.178429 0.698039 0.698039 0.698039
vn -2.519266 -0.306233 -5.698602
v 0.013316 0.005500 -0.177168 0.698039 0.698039 0.698039
vn -3.524847 -0.299017 -5.136772
v 0.009850 0.005500 -0.175237 0.698039 0.698039 0.698039
vn -4.219873 -0.284954 -4.618954
v 0.006798 0.005500 -0.172703 0.698039 0.698039 0.698039
vn -4.512783 -0.354288 -4.340208
v -0.006963 0.005500 -0.158942 0.698039 0.698039 0.698039
vn -0.923719 -0.003770 -6.208078
v 0.018637 0.012000 -0.178735 0.698039 0.698039 0.698039
vn -1.967324 -0.003911 -5.960011
v 0.015356 0.012000 -0.177948 0.698039 0.698039 0.698039
vn -3.849631 -0.002025 -4.957069
v 0.009363 0.012000 -0.174894 0.698039 0.698039 0.698039
vn 4.831840 -0.572162 3.975405
v 0.035789 -0.017000 -0.143711 0.698039 0.698039 0.698039
vn -4.195794 -0.764661 -4.587605
v 0.008212 -0.017000 -0.171289 0.698039 0.698039 0.698039
vn -3.440431 -0.765630 -5.145751
v 0.011167 -0.017000 -0.173714 0.698039 0.698039 0.698039
vn -2.370007 -0.765677 -5.718680
v 0.014538 -0.017000 -0.175516 0.698039 0.698039 0.698039
vn -1.208655 -0.765737 -6.071773
v 0.018196 -0.017000 -0.176625 0.698039 0.698039 0.698039
vn -0.001032 -0.765878 -6.191063
v 0.022000 -0.017000 -0.177000 0.698039 0.698039 0.698039
vn 1.206992 -0.765878 -6.072671
v 0.025805 -0.017000 -0.176625 0.698039 0.698039 0.698039
vn 2.368599 -0.765822 -5.720520
v 0.029463 -0.017000 -0.175516 0.698039 0.698039 0.698039
vn 3.450766 -0.791608 -5.133868
v 0.032834 -0.017000 -0.173714 0.698039 0.698039 0.698039
vn 4.391542 -0.942207 -4.302238
v 0.035789 -0.017000 -0.171289 0.698039 0.698039 0.698039
vn 5.081438 -1.239579 -3.280610
v 0.038214 -0.017000 -0.168334 0.698039 0.698039 0.698039
vn 5.485117 -1.561694 -2.178458
v 0.040016 -0.017000 -0.164962 0.698039 0.698039 0.698039
vn 5.742982 -1.644018 -1.142766
v 0.041126 -0.017000 -0.161304 0.698039 0.698039 0.698039
vn 5.856774 -1.641531 0.000190
v 0.041500 -0.017000 -0.157500 0.698039 0.698039 0.698039
vn 5.743464 -1.640234 1.143472
v 0.041126 -0.017000 -0.153696 0.698039 0.698039 0.698039
vn 5.412906 -1.637015 2.238446
v 0.040016 -0.017000 -0.150038 0.698039 0.698039 0.698039
vn 5.045144 -1.463995 3.148142
v 0.038214 -0.017000 -0.146666 0.698039 0.698039 0.698039
vn 0.714759 -0.045048 4.895356
v 0.022817 0.012000 -0.127413 0.698039 0.698039 0.698039
vn -2.952461 -0.003275 -5.538451
v 0.012239 0.012000 -0.176657 0.698039 0.698039 0.698039
vn -4.261439 -0.000328 -4.610575
v 0.006797 0.012000 -0.172703 0.698039 0.698039 0.698039
vn -4.498521 -0.079287 -4.383973
v -0.014178 0.012000 -0.151728 0.698039 0.698039 0.698039
vn -4.623212 -0.260329 -4.232853
v -0.014830 0.012000 -0.151050 0.698039 0.698039 0.698039
vn -4.750262 -0.294607 -4.084266
v -0.015457 0.012000 -0.150348 0.698039 0.698039 0.698039
vn -3.913787 -0.145950 0.656548
v -0.016057 0.012000 -0.149623 0.698039 0.698039 0.698039
vn -2.891207 1.187983 0.590459
v -0.016057 0.021000 -0.149623 0.698039 0.698039 0.698039
vn -4.738945 0.618306 -4.018043
v -0.015457 0.021000 -0.150348 0.698039 0.698039 0.698039
vn -4.618775 0.347521 -4.223616
v -0.014830 0.021000 -0.151050 0.698039 0.698039 0.698039
vn -4.499345 0.108651 -4.381607
v -0.014178 0.021000 -0.151728 0.698039 0.698039 0.698039
vn -4.091668 0.661744 -4.641837
v 0.006797 0.021000 -0.172703 0.698039 0.698039 0.698039
vn -3.153478 1.563666 -4.805432
v 0.009850 0.021000 -0.175237 0.698039 0.698039 0.698039
vn -2.302295 1.646837 -5.207911
v 0.013316 0.021000 -0.177168 0.698039 0.698039 0.698039
vn -1.301740 1.649245 -5.542846
v 0.017078 0.021000 -0.178429 0.698039 0.698039 0.698039
vn -0.259421 1.649196 -5.685106
v 0.021007 0.021000 -0.178977 0.698039 0.698039 0.698039
vn 0.783946 1.644347 -5.637177
v 0.024970 0.021000 -0.178794 0.698039 0.698039 0.698039
vn 1.809450 1.639868 -5.398928
v 0.028833 0.021000 -0.177885 0.698039 0.698039 0.698039
vn 2.771743 1.640429 -4.972031
v 0.032462 0.021000 -0.176283 0.698039 0.698039 0.698039
vn 3.635779 1.641458 -4.377774
v 0.035735 0.021000 -0.174041 0.698039 0.698039 0.698039
vn 4.377908 1.638105 -3.637836
v 0.038541 0.021000 -0.171235 0.698039 0.698039 0.698039
vn 4.974404 1.634491 -2.769836
v 0.040783 0.021000 -0.167962 0.698039 0.698039 0.698039
vn 5.397282 1.636170 -1.805974
v 0.042385 0.021000 -0.164333 0.698039 0.698039 0.698039
vn 5.635410 1.635706 -0.787082
v 0.043294 0.021000 -0.160470 0.698039 0.698039 0.698039
vn 5.686419 1.630805 0.261880
v 0.043477 0.021000 -0.156507 0.698039 0.698039 0.698039
vn 5.541501 1.627892 1.304605
v 0.042929 0.021000 -0.152578 0.698039 0.698039 0.698039
vn 5.203357 1.630339 2.301874
v 0.041668 0.021000 -0.148816 0.698039 0.698039 0.698039
vn 4.695371 1.628862 3.213419
v 0.039737 0.021000 -0.145350 0.698039 0.698039 0.698039
vn 4.281771 1.663320 3.845894
v 0.037203 0.021000 -0.142297 0.698039 0.698039 0.698039
vn 0.486675 1.414283 3.813333
v 0.022817 0.021000 -0.127413 0.698039 0.698039 0.698039
vn -2.707145 2.123252 4.738226
v -0.004250 0.021000 -0.142877 0.698039 0.698039 0.698039
vn -3.649344 2.235415 -3.887391
v -0.003451 0.026500 -0.162455 0.698039 0.698039 0.698039
vn -3.750042 2.580751 -3.134975
v -0.006163 0.026500 -0.159742 0.698039 0.698039 0.698039
vn -3.736443 4.455094 -1.480098
v -0.006293 0.026500 -0.159518 0.698039 0.698039 0.698039
vn -0.660293 6.212018 0.000000
v 0.014170 0.036800 -0.157500 0.698039 0.698039 0.698039
vn -0.625892 6.212642 -0.201377
v 0.014553 0.036800 -0.159920 0.698039 0.698039 0.698039
vn -0.529985 6.213184 -0.385054
v 0.015665 0.036800 -0.162102 0.698039 0.698039 0.698039
vn -0.384892 6.212666 -0.532938
v 0.017398 0.036800 -0.163835 0.698039 0.698039 0.698039
vn -0.204036 6.212000 -0.628048
v 0.019580 0.036800 -0.164947 0.698039 0.698039 0.698039
vn -0.001852 6.212652 -0.657457
v 0.022000 0.036800 -0.165330 0.698039 0.698039 0.698039
vn 0.202462 6.213149 -0.623186
v 0.024420 0.036800 -0.164947 0.698039 0.698039 0.698039
vn 0.387963 6.212650 -0.530794
v 0.026602 0.036800 -0.163835 0.698039 0.698039 0.698039
vn 0.534254 6.212000 -0.388148
v 0.028335 0.036800 -0.162102 0.698039 0.698039 0.698039
vn 0.624800 6.212626 -0.204977
v 0.029447 0.036800 -0.159920 0.698039 0.698039 0.698039
vn 0.655182 6.213167 0.000000
v 0.029830 0.036800 -0.157500 0.698039 0.698039 0.698039
vn 0.624799 6.212626 0.204976
v 0.029447 0.036800 -0.155080 0.698039 0.698039 0.698039
vn 0.534255 6.212000 0.388149
v 0.028335 0.036800 -0.152898 0.698039 0.698039 0.698039
vn 0.387964 6.212650 0.530794
v 0.026602 0.036800 -0.151165 0.698039 0.698039 0.698039
vn 0.202462 6.213149 0.623186
v 0.024420 0.036800 -0.150053 0.698039 0.698039 0.698039
vn -0.001852 6.212652 0.657457
v 0.022000 0.036800 -0.149670 0.698039 0.698039 0.698039
vn -0.204036 6.212000 0.628049
v 0.019580 0.036800 -0.150053 0.698039 0.698039 0.698039
vn -0.384892 6.212665 0.532938
v 0.017398 0.036800 -0.151165 0.698039 0.698039 0.698039
vn -0.529986 6.213184 0.385053
v 0.015665 0.036800 -0.152898 0.698039 0.698039 0.698039
vn -0.625891 6.212642 0.201376
v 0.014553 0.036800 -0.155080 0.698039 0.698039 0.698039
vn -2.212047 5.758928 -0.016627
v 0.010000 0.035975 -0.157500 0.698039 0.698039 0.698039
vn -2.205483 5.711057 -0.606393
v 0.010377 0.035975 -0.160484 0.698039 0.698039 0.698039
vn -2.154236 5.544456 -1.303017
v 0.011484 0.035975 -0.163281 0.698039 0.698039 0.698039
vn -2.030630 5.115342 -2.150656
v 0.013252 0.035975 -0.165715 0.698039 0.698039 0.698039
vn -1.665750 4.672316 -2.812372
v 0.015570 0.035975 -0.167632 0.698039 0.698039 0.698039
vn -1.019508 4.603203 -3.140866
v 0.018292 0.035975 -0.168913 0.698039 0.698039 0.698039
vn -0.206893 4.599557 -3.299098
v 0.021247 0.035975 -0.169476 0.698039 0.698039 0.698039
vn 0.615919 4.600593 -3.249174
v 0.024249 0.035975 -0.169287 0.698039 0.698039 0.698039
vn 1.409794 4.602061 -2.990530
v 0.027109 0.035975 -0.168358 0.698039 0.698039 0.698039
vn 2.108752 4.599667 -2.545436
v 0.029649 0.035975 -0.166746 0.698039 0.698039 0.698039
vn 2.670842 4.602599 -1.942697
v 0.031708 0.035975 -0.164553 0.698039 0.698039 0.698039
vn 3.072900 4.601353 -1.215606
v 0.033157 0.035975 -0.161917 0.698039 0.698039 0.698039
vn 3.281428 4.599130 -0.416977
v 0.033905 0.035975 -0.159004 0.698039 0.698039 0.698039
vn 3.279825 4.602701 0.414124
v 0.033905 0.035975 -0.155996 0.698039 0.698039 0.698039
vn 3.071332 4.599519 1.222238
v 0.033157 0.035975 -0.153083 0.698039 0.698039 0.698039
vn 2.675610 4.599236 1.939222
v 0.031708 0.035975 -0.150447 0.698039 0.698039 0.698039
vn 2.181685 4.739920 2.377204
v 0.029649 0.035975 -0.148254 0.698039 0.698039 0.698039
vn 1.327916 5.180707 2.577900
v 0.027109 0.035975 -0.146642 0.698039 0.698039 0.698039
vn 0.546289 5.369685 2.661218
v 0.024249 0.035975 -0.145713 0.698039 0.698039 0.698039
vn -0.191988 5.390986 2.685385
v 0.021247 0.035975 -0.145524 0.698039 0.698039 0.698039
vn -0.953077 5.256272 2.661618
v 0.018292 0.035975 -0.146087 0.698039 0.698039 0.698039
vn -1.480387 5.188347 2.488029
v 0.015570 0.035975 -0.147368 0.698039 0.698039 0.698039
vn -1.789831 5.503010 1.842045
v 0.013252 0.035975 -0.149285 0.698039 0.698039 0.698039
vn -1.986805 5.704562 1.156385
v 0.011484 0.035975 -0.151719 0.698039 0.698039 0.698039
vn -2.128148 5.767605 0.553253
v 0.010377 0.035975 -0.154516 0.698039 0.698039 0.698039
# 156 vertices, 0 vertices normals

f 1//1 2//2 78//78
f 1//1 78//78 107//107
f 1//1 84//84 2//2
f 1//1 85//85 84//84
f 1//1 107//107 108//108
f 1//1 108//108 85//85
f 2//2 3//3 78//78
f 2//2 4//4 3//3
f 2//2 5//5 4//4
f 2//2 6//6 5//5
f 2//2 24//24 6//6
f 2//2 57//57 62//62
f 2//2 62//62 24//24
f 2//2 83//83 57//57
f 2//2 84//84 83//83
f 3//3 4//4 7//7
f 3//3 7//7 8//8
f 3//3 8//8 9//9
f 3//3 9//9 76//76
f 3//3 39//39 78//78
f 3//3 40//40 39//39
f 3//3 61//61 40//40
f 3//3 76//76 77//77
f 3//3 77//77 61//61
f 4//4 5//5 7//7
f 5//5 6//6 7//7
f 6//6 24//24 7//7
f 7//7 24//24 8//8
f 8//8 10//10 9//9
f 8//8 14//14 10//10
f 8//8 24//24 14//14
f 9//9 10//10 76//76
f 10//10 11//11 75//75
f 10//10 14//14 11//11
f 10//10 75//75 76//76
f 11//11 12//12 74//74
f 11//11 14//14 12//12
f 11//11 74//74 75//75
f 12//12 13//13 73//73
f 12//12 14//14 13//13
f 12//12 73//73 74//74
f 13//13 14//14 17//17
f 13//13 17//17 72//72
f 13//13 72//72 73//73
f 14//14 15//15 17//17
f 14//14 24//24 15//15
f 15//15 16//16 17//17
f 15//15 19//19 16//16
f 15//15 20//20 19//19
f 15//15 21//21 20//20
f 15//15 22//22 21//21
f 15//15 23//23 22//22
f 15//15 24//24 23//23
f 16//16 18//18 17//17
f 16//16 19//19 18//18
f 17//17 18//18 68//68
f 17//17 68//68 69//69
f 17//17 69//69 70//70
f 17//17 70//70 71//71
f 17//17 71//71 72//72
f 18//18 19//19 67//67
f 18//18 67//67 68//68
f 19//19 20//20 66//66
f 19//19 66//66 67//67
f 20//20 21//21 65//65
f 20//20 65//65 66//66
f 21//21 22//22 64//64
f 21//21 64//64 65//65
f 22//22 23//23 63//63
f 22//22 63//63 64//64
f 23//23 24//24 62//62
f 23//23 62//62 63//63
f 25//25 38//38 106//106
f 25//25 39//39 38//38
f 25//25 78//78 39//39
f 25//25 106//106 107//107
f 25//25 107//107 78//78
f 26//26 40//40 41//41
f 26//26 41//41 104//104
f 26//26 104//104 105//105
f 26//26 105//105 40//40
f 27//27 42//42 43//43
f 27//27 43//43 102//102
f 27//27 102//102 103//103
f 27//27 103//103 42//42
f 28//28 44//44 45//45
f 28//28 45//45 100//100
f 28//28 100//100 101//101
f 28//28 101//101 44//44
f 29//29 47//47 48//48
f 29//29 48//48 97//97
f 29//29 97//97 98//98
f 29//29 98//98 47//47
f 30//30 48//48 49//49
f 30//30 49//49 96//96
f 30//30 96//96 97//97
f 30//30 97//97 48//48
f 31//31 49//49 50//50
f 31//31 50//50 95//95
f 31//31 95//95 96//96
f 31//31 96//96 49//49
f 32//32 50//50 51//51
f 32//32 51//51 94//94
f 32//32 94//94 95//95
f 32//32 95//95 50//50
f 33//33 51//51 52//52
f 33//33 52//52 93//93
f 33//33 93//93 94//94
f 33//33 94//94 51//51
f 34//34 46//46 47//47
f 34//34 47//47 98//98
f 34//34 98//98 99//99
f 34//34 99//99 46//46
f 35//35 45//45 46//46
f 35//35 46//46 99//99
f 35//35 99//99 100//100
f 35//35 100//100 45//45
f 36//36 43//43 44//44
f 36//36 44//44 101//101
f 36//36 101//101 102//102
f 36//36 102//102 43//43
f 37//37 41//41 42//42
f 37//37 42//42 103//103
f 37//37 103//103 104//104
f 37//37 104//104 41//41
f 38//38 39//39 40//40
f 38//38 40//40 105//105
f 38//38 105//105 106//106
f 40//40 61//61 77//77
f 40//40 77//77 41//41
f 41//41 76//76 42//42
f 41//41 77//77 76//76
f 42//42 75//75 43//43
f 42//42 76//76 75//75
f 43//43 74//74 44//44
f 43//43 75//75 74//74
f 44//44 73//73 45//45
f 44//44 74//74 73//73
f 45//45 72//72 46//46
f 45//45 73//73 72//72
f 46//46 71//71 47//47
f 46//46 72//72 71//71
f 47//47 70//70 48//48
f 47//47 71//71 70//70
f 48//48 69//69 49//49
f 48//48 70//70 69//69
f 49//49 68//68 50//50
f 49//49 69//69 68//68
f 50//50 67//67 51//51
f 50//50 68//68 67//67
f 51//51 66//66 52//52
f 51//51 67//67 66//66
f 52//52 53//53 58//58
f 52//52 58//58 93//93
f 52//52 65//65 53//53
f 52//52 66//66 65//65
f 53//53 54//54 59//59
f 53//53 59//59 92//92
f 53//53 64//64 54//54
f 53//53 65//65 64//64
f 53//53 92//92 58//58
f 54//54 55//55 79//79
f 54//54 63//63 55//55
f 54//54 64//64 63//63
f 54//54 79//79 91//91
f 54//54 91//91 59//59
f 55//55 56//56 60//60
f 55//55 60//60 90//90
f 55//55 62//62 56//56
f 55//55 63//63 62//62
f 55//55 90//90 79//79
f 56//56 57//57 80//80
f 56//56 62//62 57//57
f 56//56 80//80 60//60
f 57//57 81//81 80//80
f 57//57 82//82 81//81
f 57//57 83//83 82//82
f 58//58 92//92 93//93
f 59//59 91//91 92//92
f 60//60 80//80 89//89
f 60//60 89//89 90//90
f 79//79 90//90 91//91
f 80//80 81//81 88//88
f 80//80 88//88 89//89
f 81//81 82//82 87//87
f 81//81 87//87 88//88
f 82//82 83//83 86//86
f 82//82 86//86 87//87
f 83//83 84//84 85//85
f 83//83 85//85 86//86
f 85//85 108//108 153//153
f 85//85 110//110 86//86
f 85//85 111//111 110//110
f 85//85 132//132 111//111
f 85//85 153//153 154//154
f 85//85 154//154 155//155
f 85//85 155//155 156//156
f 85//85 156//156 132//132
f 86//86 110//110 87//87
f 87//87 110//110 88//88
f 88//88 109//109 89//89
f 88//88 110//110 109//109
f 89//89 109//109 90//90
f 90//90 109//109 136//136
f 90//90 136//136 91//91
f 91//91 136//136 137//137
f 91//91 137//137 92//92
f 92//92 137//137 138//138
f 92//92 138//138 93//93
f 93//93 138//138 94//94
f 94//94 138//138 139//139
f 94//94 139//139 95//95
f 95//95 139//139 140//140
f 95//95 140//140 96//96
f 96//96 140//140 141//141
f 96//96 141//141 97//97
f 97//97 141//141 98//98
f 98//98 141//141 142//142
f 98//98 142//142 99//99
f 99//99 142//142 143//143
f 99//99 143//143 100//100
f 100//100 143//143 144//144
f 100//100 144//144 101//101
f 101//101 144//144 102//102
f 102//102 144//144 145//145
f 102//102 145//145 103//103
f 103//103 145//145 146//146
f 103//103 146//146 104//104
f 104//104 146//146 147//147
f 104//104 147//147 105//105
f 105//105 147//147 106//106
f 106//106 147//147 148//148
f 106//106 148//148 107//107
f 107//107 148//148 149//149
f 107//107 149//149 150//150
f 107//107 150//150 151//151
f 107//107 151//151 152//152
f 107//107 152//152 153//153
f 107//107 153//153 108//108
f 109//109 110//110 135//135
f 109//109 135//135 136//136
f 110//110 111//111 134//134
f 110//110 134//134 135//135
f 111//111 132//132 133//133
f 111//111 133//133 134//134
f 112//112 113//113 133//133
f 112//112 114//114 113//113
f 112//112 117//117 114//114
f 112//112 122//122 117//117
f 112//112 127//127 122//122
f 112//112 130//130 127//127
f 112//112 131//131 130//130
f 112//112 132//132 156//156
f 112//112 133//133 132//132
f 112//112 156//156 131//131
f 113//113 114//114 134//134
f 113//113 134//134 133//133
f 114//114 115//115 135//135
f 114//114 117//117 115//115
f 114//114 135//135 134//134
f 115//115 116//116 136//136
f 115//115 117//117 116//116
f 115//115 136//136 135//135
f 116//116 117//117 138//138
f 116//116 137//137 136//136
f 116//116 138//138 137//137
f 117//117 118//118 139//139
f 117//117 119//119 118//118
f 117//117 120//120 119//119
f 117//117 122//122 120//120
f 117//117 139//139 138//138
f 118//118 119//119 140//140
f 118//118 140//140 139//139
f 119//119 120//120 141//141
f 119//119 141//141 140//140
f 120//120 121//121 143//143
f 120//120 122//122 121//121
f 120//120 142//142 141//141
f 120//120 143//143 142//142
f 121//121 122//122 144//144
f 121//121 144//144 143//143
f 122//122 123//123 145//145
f 122//122 124//124 123//123
f 122//122 127//127 124//124
f 122//122 145//145 144//144
f 123//123 124//124 146//146
f 123//123 146//146 145//145
f 124//124 125//125 148//148
f 124//124 127//127 125//125
f 124//124 147//147 146//146
f 124//124 148//148 147//147
f 125//125 126//126 149//149
f 125//125 127//127 126//126
f 125//125 149//149 148//148
f 126//126 127//127 150//150
f 126//126 150//150 149//149
f 127//127 128//128 151//151
f 127//127 129//129 128//128
f 127//127 130//130 129//129
f 127//127 151//151 150//150
f 128//128 129//129 153//153
f 128//128 152//152 151//151
f 128//128 153//153 152//152
f 129//129 130//130 154//154
f 129//129 154//154 153//153
f 130//130 131//131 155//155
f 130//130 155//155 154//154
f 131//131 156//156 155//155
# 308 faces, 0 coords texture

# End of File
