####
#
# OBJ File Generated by Meshlab
#
####
# Object convhull_RHP_NoShell_3.obj
#
# Vertices: 100
# Faces: 196
#
####
vn -0.050240 -6.033446 -0.534309
v 0.000102 0.011200 -0.287720 0.698039 0.698039 0.698039
vn 0.126116 -6.022977 0.564982
v 0.002521 0.011200 -0.272444 0.698039 0.698039 0.698039
vn 1.488561 3.298239 -2.749659
v 0.018845 0.119500 -0.311793 0.698039 0.698039 0.698039
vn -2.250682 3.298343 -2.170451
v -0.025609 0.119500 -0.306499 0.698039 0.698039 0.698039
vn -6.209025 0.361518 -0.567373
v -0.047201 0.029500 -0.284211 0.698039 0.698039 0.698039
vn -2.785173 0.363746 -5.577872
v -0.021108 0.029500 -0.322392 0.698039 0.698039 0.698039
vn 3.280099 0.360675 -5.302470
v 0.025089 0.029500 -0.320287 0.698039 0.698039 0.698039
vn -2.970608 3.299074 0.975568
v -0.034623 0.119500 -0.267116 0.698039 0.698039 0.698039
vn -3.467291 0.362340 -5.181733
v -0.026325 0.029500 -0.319360 0.698039 0.698039 0.698039
vn 2.578481 0.364459 -5.676243
v 0.019767 0.029500 -0.323128 0.698039 0.698039 0.698039
vn -4.097457 0.359488 -4.699872
v -0.031115 0.029500 -0.315692 0.698039 0.698039 0.698039
vn -6.087229 0.361633 -1.348888
v -0.046272 0.029500 -0.290172 0.698039 0.698039 0.698039
vn -2.054444 0.361603 -5.886623
v -0.015550 0.029500 -0.324738 0.698039 0.698039 0.698039
vn 3.925772 0.361612 -4.843767
v 0.030009 0.029500 -0.316793 0.698039 0.698039 0.698039
vn 1.843799 0.363710 -5.955695
v 0.014127 0.029500 -0.325272 0.698039 0.698039 0.698039
vn -5.699919 0.359284 2.527734
v -0.043321 0.029500 -0.260637 0.698039 0.698039 0.698039
vn -4.662345 0.365327 -4.138640
v -0.035402 0.029500 -0.311446 0.698039 0.698039 0.698039
vn 1.067703 0.364737 -6.142257
v 0.008262 0.029500 -0.326684 0.698039 0.698039 0.698039
vn 5.785541 0.364242 -2.322975
v 0.044190 0.029500 -0.297567 0.698039 0.698039 0.698039
vn -5.974520 0.364135 1.781420
v -0.045412 0.029500 -0.266297 0.698039 0.698039 0.698039
vn -5.145109 0.365495 -3.520568
v -0.039115 0.029500 -0.306691 0.698039 0.698039 0.698039
vn 0.287065 0.365091 -6.227698
v 0.002264 0.029500 -0.327341 0.698039 0.698039 0.698039
vn 5.447286 0.364794 -3.032205
v 0.041594 0.029500 -0.303013 0.698039 0.698039 0.698039
vn -6.151166 0.364736 1.015014
v -0.046768 0.029500 -0.272176 0.698039 0.698039 0.698039
vn -5.552691 0.362703 -2.835364
v -0.042196 0.029500 -0.301504 0.698039 0.698039 0.698039
vn -0.509688 0.362366 -6.213929
v -0.003768 0.029500 -0.327232 0.698039 0.698039 0.698039
vn 5.016652 0.362154 -3.702168
v 0.038328 0.029500 -0.308086 0.698039 0.698039 0.698039
vn -5.865987 0.363912 -2.111599
v -0.044595 0.029500 -0.295968 0.698039 0.698039 0.698039
vn 6.052018 0.327388 -1.471044
v 0.046075 0.029500 -0.291836 0.698039 0.698039 0.698039
vn -1.289972 0.363754 -6.099637
v -0.009738 0.029500 -0.326360 0.698039 0.698039 0.698039
vn 4.508267 0.363670 -4.306405
v 0.034445 0.029500 -0.312705 0.698039 0.698039 0.698039
vn -5.279376 0.323362 3.305903
v -0.040530 0.029500 -0.255288 0.698039 0.698039 0.698039
vn -3.021842 3.298142 -0.803097
v -0.035966 0.119500 -0.288146 0.698039 0.698039 0.698039
vn -6.231080 0.360427 0.223929
v -0.047367 0.029500 -0.278179 0.698039 0.698039 0.698039
vn -0.143879 3.232156 -3.117492
v -0.001612 0.119500 -0.316852 0.698039 0.698039 0.698039
vn 2.039279 3.298874 -2.370161
v 0.023240 0.119500 -0.308764 0.698039 0.698039 0.698039
vn -2.717556 3.231924 -1.534422
v -0.032122 0.119500 -0.298075 0.698039 0.698039 0.698039
vn -1.026441 3.233244 -2.947174
v -0.012067 0.119500 -0.314833 0.698039 0.698039 0.698039
vn -3.767883 -2.949584 0.139447
v -0.047367 0.021500 -0.278179 0.698039 0.698039 0.698039
vn 2.564683 3.232595 -1.778163
v 0.030504 0.119500 -0.300979 0.698039 0.698039 0.698039
vn -3.250876 -2.943716 1.963561
v -0.040530 0.021500 -0.255288 0.698039 0.698039 0.698039
vn -3.614905 -2.949117 1.075810
v -0.045412 0.021500 -0.266297 0.698039 0.698039 0.698039
vn 3.764983 -2.861630 -0.461307
v 0.047219 0.021500 -0.285912 0.698039 0.698039 0.698039
vn 3.541445 -2.940202 -1.415410
v 0.044190 0.021500 -0.297567 0.698039 0.698039 0.698039
vn 3.092540 -2.934293 -2.276337
v 0.038328 0.021500 -0.308086 0.698039 0.698039 0.698039
vn 2.434825 -2.928796 -2.999372
v 0.030009 0.021500 -0.316793 0.698039 0.698039 0.698039
vn 1.608686 -2.924462 -3.532095
v 0.019767 0.021500 -0.323128 0.698039 0.698039 0.698039
vn 0.669592 -2.921804 -3.833576
v 0.008262 0.021500 -0.326684 0.698039 0.698039 0.698039
vn -0.317611 -2.921564 -3.880345
v -0.003768 0.021500 -0.327232 0.698039 0.698039 0.698039
vn -1.282082 -2.923139 -3.668203
v -0.015550 0.021500 -0.324738 0.698039 0.698039 0.698039
vn -2.155700 -2.927109 -3.214501
v -0.026325 0.021500 -0.319360 0.698039 0.698039 0.698039
vn -2.879134 -2.932062 -2.554037
v -0.035402 0.021500 -0.311446 0.698039 0.698039 0.698039
vn -3.406375 -2.938055 -1.736312
v -0.042196 0.021500 -0.301504 0.698039 0.698039 0.698039
vn -3.707491 -2.943986 -0.817594
v -0.046272 0.021500 -0.290172 0.698039 0.698039 0.698039
vn -2.799708 3.435036 1.391961
v -0.032423 0.119500 -0.262252 0.698039 0.698039 0.698039
vn 3.820118 -2.947643 -0.164346
v 0.047602 0.021500 -0.279890 0.698039 0.698039 0.698039
vn -2.969765 -2.859749 2.383060
v -0.037084 0.021500 -0.250336 0.698039 0.698039 0.698039
vn -3.461276 -2.946555 1.530550
v -0.043321 0.021500 -0.260637 0.698039 0.698039 0.698039
vn -3.714778 -2.950511 0.610838
v -0.046768 0.021500 -0.272176 0.698039 0.698039 0.698039
vn -2.707265 -2.897726 2.702979
v -0.033038 0.021500 -0.245861 0.698039 0.698039 0.698039
vn 3.679240 -2.943200 -0.951973
v 0.046075 0.021500 -0.291836 0.698039 0.698039 0.698039
vn 3.344963 -2.937099 -1.859483
v 0.041594 0.021500 -0.303013 0.698039 0.698039 0.698039
vn 2.787621 -2.931355 -2.658532
v 0.034445 0.021500 -0.312705 0.698039 0.698039 0.698039
vn 2.039652 -2.926357 -3.292392
v 0.025089 0.021500 -0.320287 0.698039 0.698039 0.698039
vn 1.149476 -2.922975 -3.713649
v 0.014127 0.021500 -0.325272 0.698039 0.698039 0.698039
vn 0.177415 -2.921303 -3.889532
v 0.002264 0.021500 -0.327341 0.698039 0.698039 0.698039
vn -0.806820 -2.922085 -3.806084
v -0.009738 0.021500 -0.326360 0.698039 0.698039 0.698039
vn -1.734413 -2.925004 -3.469695
v -0.021108 0.021500 -0.322392 0.698039 0.698039 0.698039
vn -2.539290 -2.929515 -2.907439
v -0.031115 0.021500 -0.315692 0.698039 0.698039 0.698039
vn -3.169662 -2.935183 -2.161328
v -0.039115 0.021500 -0.306691 0.698039 0.698039 0.698039
vn -3.586453 -2.940838 -1.285660
v -0.044595 0.021500 -0.295968 0.698039 0.698039 0.698039
vn -3.767985 -2.946773 -0.340044
v -0.047201 0.021500 -0.284211 0.698039 0.698039 0.698039
vn -3.111475 3.298423 0.308509
v -0.036823 0.119500 -0.277533 0.698039 0.698039 0.698039
vn -0.585539 -2.021149 3.098281
v -0.014898 0.021500 -0.229940 0.698039 0.698039 0.698039
vn -0.965404 0.000000 5.301281
v -0.014898 0.113500 -0.229940 0.698039 0.698039 0.698039
vn -0.965404 0.000000 5.301282
v -0.014898 0.029500 -0.229940 0.698039 0.698039 0.698039
vn -3.118652 3.364148 -0.252337
v -0.036778 0.119500 -0.282871 0.698039 0.698039 0.698039
vn 0.748916 3.231887 -3.029657
v 0.008984 0.119500 -0.315809 0.698039 0.698039 0.698039
vn 2.465221 -1.886808 1.660400
v 0.047922 0.021500 -0.253591 0.698039 0.698039 0.698039
vn 4.247713 0.028708 2.877864
v 0.047922 0.029500 -0.253591 0.698039 0.698039 0.698039
vn -0.767411 1.852436 2.313365
v -0.014898 0.119500 -0.229940 0.698039 0.698039 0.698039
vn 2.084544 1.790868 1.135646
v 0.046550 0.119500 -0.253075 0.698039 0.698039 0.698039
vn -1.736431 3.299697 -2.600193
v -0.021513 0.119500 -0.309921 0.698039 0.698039 0.698039
vn 2.913177 3.337765 -1.139951
v 0.035250 0.119500 -0.291448 0.698039 0.698039 0.698039
vn 0.000000 6.283185 0.000000
v 0.036216 0.119500 -0.259041 0.698039 0.698039 0.698039
vn 0.000000 6.283186 0.000000
v -0.014898 0.119500 -0.242959 0.698039 0.698039 0.698039
vn 0.000000 6.283186 0.000000
v -0.015216 0.119500 -0.244712 0.698039 0.698039 0.698039
vn 0.000000 6.283187 0.000000
v -0.016127 0.119500 -0.246242 0.698039 0.698039 0.698039
vn 0.000000 6.283184 0.000000
v -0.017517 0.119500 -0.247356 0.698039 0.698039 0.698039
vn 0.000000 6.283184 0.000000
v -0.022015 0.119500 -0.250229 0.698039 0.698039 0.698039
vn 0.000000 6.283187 0.000000
v -0.026053 0.119500 -0.253720 0.698039 0.698039 0.698039
vn 0.000000 6.283185 0.000000
v -0.029547 0.119500 -0.257756 0.698039 0.698039 0.698039
vn 0.000000 6.283187 0.000000
v 0.036548 0.119500 -0.286271 0.698039 0.698039 0.698039
vn 0.000000 6.283183 0.000000
v 0.037086 0.119500 -0.280960 0.698039 0.698039 0.698039
vn 0.000000 6.283185 0.000000
v 0.036855 0.119500 -0.275628 0.698039 0.698039 0.698039
vn 0.000000 6.283185 0.000000
v 0.035859 0.119500 -0.270384 0.698039 0.698039 0.698039
vn 0.000000 6.283186 0.000000
v 0.034119 0.119500 -0.265338 0.698039 0.698039 0.698039
vn 0.000000 6.283187 0.000000
v 0.033720 0.119500 -0.263578 0.698039 0.698039 0.698039
vn 0.000000 6.283186 0.000000
v 0.033972 0.119500 -0.261791 0.698039 0.698039 0.698039
vn 0.000000 6.283185 0.000000
v 0.034842 0.119500 -0.260210 0.698039 0.698039 0.698039
# 100 vertices, 0 vertices normals

f 1//1 2//2 59//59
f 1//1 39//39 72//72
f 1//1 43//43 2//2
f 1//1 44//44 61//61
f 1//1 45//45 62//62
f 1//1 46//46 63//63
f 1//1 47//47 64//64
f 1//1 48//48 65//65
f 1//1 49//49 66//66
f 1//1 50//50 67//67
f 1//1 51//51 68//68
f 1//1 52//52 69//69
f 1//1 53//53 70//70
f 1//1 54//54 71//71
f 1//1 59//59 39//39
f 1//1 61//61 43//43
f 1//1 62//62 44//44
f 1//1 63//63 45//45
f 1//1 64//64 46//46
f 1//1 65//65 47//47
f 1//1 66//66 48//48
f 1//1 67//67 49//49
f 1//1 68//68 50//50
f 1//1 69//69 51//51
f 1//1 70//70 52//52
f 1//1 71//71 53//53
f 1//1 72//72 54//54
f 2//2 41//41 58//58
f 2//2 42//42 59//59
f 2//2 43//43 56//56
f 2//2 56//56 79//79
f 2//2 57//57 41//41
f 2//2 58//58 42//42
f 2//2 60//60 57//57
f 2//2 74//74 60//60
f 2//2 79//79 74//74
f 3//3 7//7 10//10
f 3//3 10//10 78//78
f 3//3 36//36 7//7
f 3//3 78//78 36//36
f 4//4 11//11 17//17
f 4//4 17//17 21//21
f 4//4 21//21 37//37
f 4//4 37//37 83//83
f 4//4 83//83 11//11
f 5//5 12//12 54//54
f 5//5 33//33 12//12
f 5//5 34//34 77//77
f 5//5 54//54 72//72
f 5//5 72//72 34//34
f 5//5 77//77 33//33
f 6//6 9//9 83//83
f 6//6 13//13 50//50
f 6//6 38//38 13//13
f 6//6 50//50 68//68
f 6//6 68//68 9//9
f 6//6 83//83 38//38
f 7//7 14//14 46//46
f 7//7 36//36 14//14
f 7//7 46//46 64//64
f 7//7 64//64 10//10
f 8//8 16//16 55//55
f 8//8 20//20 16//16
f 8//8 24//24 20//20
f 8//8 55//55 73//73
f 8//8 73//73 24//24
f 9//9 11//11 83//83
f 9//9 51//51 11//11
f 9//9 68//68 51//51
f 10//10 15//15 78//78
f 10//10 47//47 15//15
f 10//10 64//64 47//47
f 11//11 51//51 69//69
f 11//11 69//69 17//17
f 12//12 28//28 71//71
f 12//12 33//33 28//28
f 12//12 71//71 54//54
f 13//13 30//30 67//67
f 13//13 38//38 30//30
f 13//13 67//67 50//50
f 14//14 31//31 63//63
f 14//14 36//36 31//31
f 14//14 63//63 46//46
f 15//15 18//18 78//78
f 15//15 47//47 65//65
f 15//15 65//65 18//18
f 16//16 20//20 58//58
f 16//16 32//32 55//55
f 16//16 41//41 32//32
f 16//16 58//58 41//41
f 17//17 52//52 21//21
f 17//17 69//69 52//52
f 18//18 22//22 78//78
f 18//18 48//48 22//22
f 18//18 65//65 48//48
f 19//19 23//23 84//84
f 19//19 29//29 61//61
f 19//19 44//44 23//23
f 19//19 61//61 44//44
f 19//19 84//84 29//29
f 20//20 24//24 42//42
f 20//20 42//42 58//58
f 21//21 25//25 37//37
f 21//21 52//52 70//70
f 21//21 70//70 25//25
f 22//22 26//26 35//35
f 22//22 35//35 78//78
f 22//22 48//48 66//66
f 22//22 66//66 26//26
f 23//23 27//27 40//40
f 23//23 40//40 84//84
f 23//23 44//44 62//62
f 23//23 62//62 27//27
f 24//24 34//34 59//59
f 24//24 59//59 42//42
f 24//24 73//73 34//34
f 25//25 28//28 37//37
f 25//25 53//53 28//28
f 25//25 70//70 53//53
f 26//26 30//30 35//35
f 26//26 49//49 30//30
f 26//26 66//66 49//49
f 27//27 31//31 40//40
f 27//27 45//45 31//31
f 27//27 62//62 45//45
f 28//28 33//33 37//37
f 28//28 53//53 71//71
f 29//29 43//43 61//61
f 29//29 82//82 43//43
f 29//29 84//84 82//82
f 30//30 38//38 35//35
f 30//30 49//49 67//67
f 31//31 36//36 40//40
f 31//31 45//45 63//63
f 32//32 41//41 57//57
f 32//32 57//57 81//81
f 32//32 81//81 55//55
f 33//33 77//77 37//37
f 34//34 39//39 59//59
f 34//34 72//72 39//39
f 34//34 73//73 77//77
f 35//35 38//38 78//78
f 36//36 78//78 40//40
f 37//37 77//77 83//83
f 38//38 83//83 78//78
f 40//40 78//78 84//84
f 43//43 82//82 56//56
f 55//55 81//81 92//92
f 55//55 89//89 73//73
f 55//55 91//91 89//89
f 55//55 92//92 91//91
f 56//56 80//80 79//79
f 56//56 82//82 80//80
f 57//57 60//60 81//81
f 60//60 74//74 76//76
f 60//60 75//75 81//81
f 60//60 76//76 75//75
f 73//73 89//89 77//77
f 74//74 79//79 76//76
f 75//75 76//76 80//80
f 75//75 80//80 81//81
f 76//76 79//79 80//80
f 77//77 89//89 83//83
f 78//78 83//83 84//84
f 80//80 82//82 81//81
f 81//81 82//82 85//85
f 81//81 85//85 100//100
f 81//81 86//86 90//90
f 81//81 90//90 91//91
f 81//81 91//91 92//92
f 81//81 100//100 86//86
f 82//82 84//84 93//93
f 82//82 93//93 94//94
f 82//82 94//94 95//95
f 82//82 95//95 96//96
f 82//82 96//96 85//85
f 83//83 89//89 84//84
f 84//84 89//89 97//97
f 84//84 94//94 93//93
f 84//84 96//96 94//94
f 84//84 97//97 96//96
f 85//85 96//96 97//97
f 85//85 97//97 100//100
f 86//86 87//87 89//89
f 86//86 89//89 90//90
f 86//86 99//99 87//87
f 86//86 100//100 99//99
f 87//87 88//88 89//89
f 87//87 98//98 88//88
f 87//87 99//99 98//98
f 88//88 97//97 89//89
f 88//88 98//98 97//97
f 89//89 91//91 90//90
f 94//94 96//96 95//95
f 97//97 98//98 99//99
f 97//97 99//99 100//100
# 196 faces, 0 coords texture

# End of File
