####
#
# OBJ File Generated by Meshlab
#
####
# Object convhull_RHP_NoShell_2.obj
#
# Vertices: 50
# Faces: 96
#
####
vn 3.920356 -4.253704 -0.570001
v 0.076102 0.007500 -0.175890 0.698039 0.698039 0.698039
vn 3.291156 -2.406506 -3.418738
v 0.058939 0.021500 -0.245715 0.698039 0.698039 0.698039
vn 5.722780 -1.376185 -0.912453
v 0.082906 0.018359 -0.169794 0.698039 0.698039 0.698039
vn 5.219138 1.665930 -0.135079
v 0.081915 0.110352 -0.168018 0.698039 0.698039 0.698039
vn -0.652911 6.191530 -0.159266
v 0.012552 0.126000 -0.166964 0.698039 0.698039 0.698039
vn -0.553381 -6.175004 -0.382539
v 0.012652 0.001500 -0.166863 0.698039 0.698039 0.698039
vn 4.583342 -1.877425 -2.640633
v 0.059742 0.021500 -0.244651 0.698039 0.698039 0.698039
vn 2.803061 -2.665822 -3.816291
v 0.057884 0.021500 -0.246530 0.698039 0.698039 0.698039
vn 1.569750 5.803559 -0.329218
v 0.062552 0.126000 -0.166964 0.698039 0.698039 0.698039
vn 0.710669 0.001820 -5.503638
v 0.047922 0.029500 -0.253591 0.698039 0.698039 0.698039
vn 1.167980 -5.980380 -0.302865
v 0.062652 0.001500 -0.166863 0.698039 0.698039 0.698039
vn 0.639939 -3.005327 2.721990
v 0.062652 0.001500 -0.149894 0.698039 0.698039 0.698039
vn 5.624919 -1.284317 0.553486
v 0.083028 0.018359 -0.168098 0.698039 0.698039 0.698039
vn 2.151854 -1.765650 2.368113
v 0.076102 0.007500 -0.149894 0.698039 0.698039 0.698039
vn -0.361934 3.099327 2.909089
v 0.012552 0.126000 -0.149894 0.698039 0.698039 0.698039
vn 2.936255 0.000000 4.258738
v 0.076102 0.113500 -0.149894 0.698039 0.698039 0.698039
vn 2.741399 -3.514788 -1.483543
v 0.068592 0.007500 -0.209890 0.698039 0.698039 0.698039
vn 0.679393 2.987069 2.694313
v 0.062552 0.126000 -0.149894 0.698039 0.698039 0.698039
vn -3.089823 -3.049294 -0.652847
v -0.014896 0.007500 -0.195890 0.698039 0.698039 0.698039
vn -0.334285 -3.105611 2.927141
v 0.012652 0.001500 -0.149894 0.698039 0.698039 0.698039
vn 2.221625 2.750433 -2.535464
v 0.057884 0.119500 -0.246531 0.698039 0.698039 0.698039
vn -4.248538 0.000000 -2.940154
v -0.014898 0.113500 -0.229940 0.698039 0.698039 0.698039
vn 2.936255 0.000000 4.258737
v 0.076102 0.013500 -0.149894 0.698039 0.698039 0.698039
vn -1.932729 1.528518 1.803277
v -0.014899 0.119500 -0.149894 0.698039 0.698039 0.698039
vn -4.248538 0.000000 -2.940154
v -0.014898 0.029500 -0.229940 0.698039 0.698039 0.698039
vn 3.142982 2.760249 -1.609588
v 0.060235 0.119500 -0.243413 0.698039 0.698039 0.698039
vn 0.407312 -2.063673 -3.499738
v 0.047922 0.021500 -0.253591 0.698039 0.698039 0.698039
vn 2.190617 1.709178 2.237530
v 0.076102 0.119500 -0.149894 0.698039 0.698039 0.698039
vn -1.905082 -1.534878 1.785277
v -0.014896 0.007500 -0.149894 0.698039 0.698039 0.698039
vn -3.141592 -0.000020 3.141547
v -0.014899 0.113500 -0.149894 0.698039 0.698039 0.698039
vn -2.784000 -1.742049 -2.186267
v -0.014898 0.021500 -0.229940 0.698039 0.698039 0.698039
vn -2.271824 1.923094 -1.604251
v -0.014898 0.119500 -0.229940 0.698039 0.698039 0.698039
vn 0.235244 2.271202 -3.025341
v 0.046550 0.119500 -0.253075 0.698039 0.698039 0.698039
vn 0.000000 0.000000 6.283185
v 0.012552 0.119500 -0.149894 0.698039 0.698039 0.698039
vn 0.000000 0.000000 6.283185
v 0.062552 0.116000 -0.149894 0.698039 0.698039 0.698039
vn 0.000000 0.000000 6.283185
v 0.060236 0.116000 -0.149894 0.698039 0.698039 0.698039
vn 0.000000 0.000000 6.283185
v 0.014967 0.116000 -0.149894 0.698039 0.698039 0.698039
vn 0.000000 0.000000 6.283185
v 0.060236 0.011500 -0.149894 0.698039 0.698039 0.698039
vn 0.000000 0.000000 6.283185
v 0.014968 0.011500 -0.149894 0.698039 0.698039 0.698039
vn 0.000000 0.000000 6.283185
v 0.062652 0.007500 -0.149894 0.698039 0.698039 0.698039
vn 0.000000 0.000000 6.283185
v 0.012652 0.011500 -0.149894 0.698039 0.698039 0.698039
vn 0.000000 0.000000 6.283187
v 0.012552 0.007500 -0.149894 0.698039 0.698039 0.698039
vn 0.000000 0.000000 6.283185
v 0.060236 0.013500 -0.149894 0.698039 0.698039 0.698039
vn 0.000000 0.000000 6.283190
v 0.014968 0.013500 -0.149894 0.698039 0.698039 0.698039
vn 0.000000 0.000000 6.283215
v -0.014896 0.013500 -0.149894 0.698039 0.698039 0.698039
vn 0.000000 0.000000 6.283185
v 0.012552 0.011500 -0.149894 0.698039 0.698039 0.698039
vn 0.000000 0.000000 6.283186
v 0.062652 0.119500 -0.149894 0.698039 0.698039 0.698039
vn 0.000000 0.000000 6.283185
v 0.062652 0.116000 -0.149894 0.698039 0.698039 0.698039
vn 0.000000 0.000000 6.283185
v 0.014967 0.113500 -0.149894 0.698039 0.698039 0.698039
vn 0.000000 0.000000 6.283180
v 0.060236 0.113500 -0.149894 0.698039 0.698039 0.698039
# 50 vertices, 0 vertices normals

f 1//1 3//3 13//13
f 1//1 11//11 17//17
f 1//1 13//13 14//14
f 1//1 14//14 11//11
f 1//1 17//17 3//3
f 2//2 7//7 17//17
f 2//2 8//8 21//21
f 2//2 17//17 8//8
f 2//2 21//21 7//7
f 3//3 4//4 13//13
f 3//3 7//7 26//26
f 3//3 17//17 7//7
f 3//3 26//26 4//4
f 4//4 26//26 28//28
f 4//4 28//28 13//13
f 5//5 9//9 33//33
f 5//5 15//15 9//9
f 5//5 24//24 15//15
f 5//5 32//32 24//24
f 5//5 33//33 32//32
f 6//6 11//11 20//20
f 6//6 17//17 11//11
f 6//6 19//19 17//17
f 6//6 20//20 29//29
f 6//6 29//29 19//19
f 7//7 21//21 26//26
f 8//8 17//17 27//27
f 8//8 27//27 21//21
f 9//9 15//15 18//18
f 9//9 18//18 28//28
f 9//9 21//21 33//33
f 9//9 26//26 21//21
f 9//9 28//28 26//26
f 10//10 21//21 27//27
f 10//10 27//27 33//33
f 10//10 33//33 21//21
f 11//11 12//12 20//20
f 11//11 14//14 12//12
f 12//12 14//14 40//40
f 12//12 38//38 20//20
f 12//12 40//40 38//38
f 13//13 16//16 23//23
f 13//13 23//23 14//14
f 13//13 28//28 16//16
f 14//14 23//23 40//40
f 15//15 24//24 34//34
f 15//15 34//34 37//37
f 15//15 37//37 18//18
f 16//16 28//28 48//48
f 16//16 48//48 50//50
f 16//16 50//50 23//23
f 17//17 19//19 27//27
f 18//18 36//36 47//47
f 18//18 37//37 36//36
f 18//18 47//47 28//28
f 19//19 29//29 31//31
f 19//19 31//31 27//27
f 20//20 38//38 39//39
f 20//20 39//39 42//42
f 20//20 42//42 29//29
f 22//22 24//24 32//32
f 22//22 25//25 30//30
f 22//22 30//30 24//24
f 22//22 32//32 33//33
f 22//22 33//33 25//25
f 23//23 43//43 40//40
f 23//23 50//50 43//43
f 24//24 30//30 34//34
f 25//25 31//31 30//30
f 25//25 33//33 31//31
f 27//27 31//31 33//33
f 28//28 47//47 48//48
f 29//29 30//30 31//31
f 29//29 42//42 46//46
f 29//29 45//45 30//30
f 29//29 46//46 45//45
f 30//30 45//45 49//49
f 30//30 49//49 34//34
f 34//34 49//49 37//37
f 35//35 36//36 50//50
f 35//35 47//47 36//36
f 35//35 48//48 47//47
f 35//35 50//50 48//48
f 36//36 37//37 50//50
f 37//37 49//49 50//50
f 38//38 40//40 43//43
f 38//38 43//43 44//44
f 38//38 44//44 39//39
f 39//39 41//41 42//42
f 39//39 44//44 41//41
f 41//41 44//44 46//46
f 41//41 46//46 42//42
f 43//43 50//50 44//44
f 44//44 45//45 46//46
f 44//44 49//49 45//45
f 44//44 50//50 49//49
# 96 faces, 0 coords texture

# End of File
