####
#
# OBJ File Generated by Meshlab
#
####
# Object convhull_RWP_NoShell_1.obj
#
# Vertices: 67
# Faces: 130
#
####
vn 2.681297 2.852402 1.555611
v 0.011053 0.005000 0.005839 0.698039 0.698039 0.698039
vn -5.230887 -1.211689 2.399656
v -0.011153 0.000000 0.005644 0.698039 0.698039 0.698039
vn 3.023949 2.705775 0.685005
v 0.012133 0.005000 0.003008 0.698039 0.698039 0.698039
vn -4.092607 -1.692181 3.696509
v -0.009467 0.000000 0.008162 0.698039 0.698039 0.698039
vn 0.839243 2.806184 2.957838
v 0.004354 0.005000 0.011717 0.698039 0.698039 0.698039
vn 5.154314 -1.311365 2.535748
v 0.011053 0.000000 0.005839 0.698039 0.698039 0.698039
vn -2.788803 -2.902092 0.783133
v -0.012498 -0.016000 -0.012044 0.698039 0.698039 0.698039
vn 2.788721 -2.903004 0.782603
v 0.012500 -0.016000 -0.012044 0.698039 0.698039 0.698039
vn -0.890740 2.806236 2.942767
v -0.004558 0.005000 0.011639 0.698039 0.698039 0.698039
vn -3.141593 -3.141593 0.000000
v -0.012498 -0.016000 -0.020404 0.698039 0.698039 0.698039
vn 3.141593 -3.141593 0.000000
v 0.012500 -0.016000 -0.020404 0.698039 0.698039 0.698039
vn -2.933240 -2.086840 4.313856
v -0.007225 0.000000 0.010200 0.698039 0.698039 0.698039
vn 4.010545 -1.719615 3.751261
v 0.009323 0.000000 0.008327 0.698039 0.698039 0.698039
vn -1.745783 -2.285462 4.658487
v -0.004558 0.000000 0.011639 0.698039 0.698039 0.698039
vn 2.847582 -2.104881 4.347519
v 0.007045 0.000000 0.010325 0.698039 0.698039 0.698039
vn -1.890690 2.852585 2.456604
v -0.007225 0.005000 0.010200 0.698039 0.698039 0.698039
vn -0.440303 -2.106215 4.738957
v -0.001624 0.000000 0.012394 0.698039 0.698039 0.698039
vn 1.660843 -2.296329 4.673729
v 0.004354 0.000000 0.011717 0.698039 0.698039 0.698039
vn 0.360326 -2.109374 4.739592
v 0.001406 0.000000 0.012421 0.698039 0.698039 0.698039
vn -2.762070 2.731066 1.325391
v -0.011153 0.005000 0.005644 0.698039 0.698039 0.698039
vn 1.847307 2.852901 2.489480
v 0.007045 0.005000 0.010325 0.698039 0.698039 0.698039
vn -3.092985 2.797482 0.365696
v -0.012498 0.005000 -0.000219 0.698039 0.698039 0.698039
vn 3.117032 2.875551 0.252185
v 0.012500 0.005000 0.000000 0.698039 0.698039 0.698039
vn -1.742606 -1.693712 -1.560580
v -0.012498 -0.016000 -0.031500 0.698039 0.698039 0.698039
vn 3.141593 -3.141593 0.000000
v 0.012500 -0.016000 -0.027500 0.698039 0.698039 0.698039
vn 1.742606 -1.693712 -1.560580
v 0.012500 -0.016000 -0.031500 0.698039 0.698039 0.698039
vn -3.141593 -3.141594 0.000000
v -0.012498 -0.016000 -0.027500 0.698039 0.698039 0.698039
vn -1.651986 1.658162 -1.567503
v -0.012498 0.005000 -0.031500 0.698039 0.698039 0.698039
vn 1.651986 1.658162 -1.567506
v 0.012500 0.005000 -0.031500 0.698039 0.698039 0.698039
vn -0.088972 0.301468 -6.265868
v -0.004133 -0.005500 -0.032500 0.698039 0.698039 0.698039
vn -0.385617 0.075082 -6.256585
v -0.004499 -0.005866 -0.032500 0.698039 0.698039 0.698039
vn 0.385617 0.075082 -6.256585
v 0.004501 -0.005866 -0.032500 0.698039 0.698039 0.698039
vn 0.088972 0.301468 -6.265868
v 0.004135 -0.005500 -0.032500 0.698039 0.698039 0.698039
vn 0.436048 -0.212973 -6.241557
v 0.004501 -0.014134 -0.032500 0.698039 0.698039 0.698039
vn 0.097090 -1.721985 -5.751342
v 0.004135 -0.014500 -0.032500 0.698039 0.698039 0.698039
vn -0.097090 -1.721985 -5.751342
v -0.004133 -0.014500 -0.032500 0.698039 0.698039 0.698039
vn -0.436048 -0.212974 -6.241557
v -0.004499 -0.014134 -0.032500 0.698039 0.698039 0.698039
vn 6.283185 0.000000 0.000000
v 0.012500 0.000000 -0.027500 0.698039 0.698039 0.698039
vn -6.283185 0.000000 0.000000
v -0.012498 0.000000 -0.027500 0.698039 0.698039 0.698039
vn -6.283185 0.000000 0.000000
v -0.012498 0.000000 -0.012044 0.698039 0.698039 0.698039
vn -6.283185 0.000000 0.000000
v -0.012498 0.000000 -0.020404 0.698039 0.698039 0.698039
vn 6.283185 0.000000 0.000000
v 0.012500 0.000000 -0.020404 0.698039 0.698039 0.698039
vn 6.283185 0.000000 0.000000
v 0.012500 0.000000 -0.012044 0.698039 0.698039 0.698039
vn -0.544555 -5.472413 2.011750
v -0.011645 -0.016000 -0.011689 0.698039 0.698039 0.698039
vn 0.000000 -6.283185 0.000000
v -0.011330 -0.016000 -0.011995 0.698039 0.698039 0.698039
vn 0.000000 -6.283183 0.000000
v -0.011006 -0.016000 -0.012293 0.698039 0.698039 0.698039
vn 0.000000 -6.283179 0.000000
v -0.010675 -0.016000 -0.012582 0.698039 0.698039 0.698039
vn 0.000000 -6.283182 0.000000
v -0.010579 -0.016000 -0.012690 0.698039 0.698039 0.698039
vn 0.000000 -6.283196 0.000000
v -0.010519 -0.016000 -0.012821 0.698039 0.698039 0.698039
vn 0.000000 -6.283186 0.000000
v -0.010498 -0.016000 -0.012963 0.698039 0.698039 0.698039
vn 0.000000 -6.283185 0.000000
v -0.010498 -0.016000 -0.020404 0.698039 0.698039 0.698039
vn 0.000000 -6.283185 0.000000
v -0.010689 -0.016000 -0.020991 0.698039 0.698039 0.698039
vn 0.000000 -6.283185 0.000000
v -0.011189 -0.016000 -0.021355 0.698039 0.698039 0.698039
vn 0.000000 -6.283185 0.000000
v -0.011807 -0.016000 -0.021355 0.698039 0.698039 0.698039
vn 0.000000 -6.283185 0.000000
v -0.012307 -0.016000 -0.020991 0.698039 0.698039 0.698039
vn 0.000000 -6.283185 0.000000
v 0.012309 -0.016000 -0.020991 0.698039 0.698039 0.698039
vn 0.000000 -6.283185 0.000000
v 0.011809 -0.016000 -0.021355 0.698039 0.698039 0.698039
vn 0.000000 -6.283185 0.000000
v 0.011191 -0.016000 -0.021355 0.698039 0.698039 0.698039
vn 0.000000 -6.283185 0.000000
v 0.010691 -0.016000 -0.020991 0.698039 0.698039 0.698039
vn 0.000000 -6.283185 0.000000
v 0.010500 -0.016000 -0.020404 0.698039 0.698039 0.698039
vn 0.000000 -6.283196 0.000000
v 0.010500 -0.016000 -0.012963 0.698039 0.698039 0.698039
vn 0.000000 -6.283182 0.000000
v 0.010521 -0.016000 -0.012821 0.698039 0.698039 0.698039
vn 0.000000 -6.283179 0.000000
v 0.010581 -0.016000 -0.012690 0.698039 0.698039 0.698039
vn 0.000000 -6.283185 0.000000
v 0.010677 -0.016000 -0.012582 0.698039 0.698039 0.698039
vn 0.000000 -6.283184 0.000000
v 0.011008 -0.016000 -0.012293 0.698039 0.698039 0.698039
vn 0.000000 -6.283185 0.000000
v 0.011332 -0.016000 -0.011995 0.698039 0.698039 0.698039
vn 0.544834 -5.472122 2.012007
v 0.011647 -0.016000 -0.011689 0.698039 0.698039 0.698039
# 67 vertices, 0 vertices normals

f 1//1 3//3 21//21
f 1//1 6//6 3//3
f 1//1 13//13 6//6
f 1//1 21//21 13//13
f 2//2 4//4 20//20
f 2//2 7//7 4//4
f 2//2 20//20 22//22
f 2//2 22//22 7//7
f 3//3 6//6 8//8
f 3//3 8//8 23//23
f 3//3 23//23 21//21
f 4//4 7//7 12//12
f 4//4 12//12 16//16
f 4//4 16//16 20//20
f 5//5 9//9 19//19
f 5//5 15//15 21//21
f 5//5 18//18 15//15
f 5//5 19//19 18//18
f 5//5 21//21 9//9
f 6//6 13//13 8//8
f 7//7 10//10 50//50
f 7//7 14//14 12//12
f 7//7 22//22 40//40
f 7//7 40//40 41//41
f 7//7 41//41 10//10
f 7//7 44//44 14//14
f 7//7 45//45 44//44
f 7//7 46//46 45//45
f 7//7 50//50 46//46
f 8//8 11//11 42//42
f 8//8 13//13 15//15
f 8//8 15//15 18//18
f 8//8 18//18 67//67
f 8//8 42//42 43//43
f 8//8 43//43 23//23
f 8//8 61//61 11//11
f 8//8 65//65 61//61
f 8//8 66//66 65//65
f 8//8 67//67 66//66
f 9//9 14//14 17//17
f 9//9 16//16 14//14
f 9//9 17//17 19//19
f 9//9 21//21 16//16
f 10//10 27//27 55//55
f 10//10 39//39 27//27
f 10//10 41//41 39//39
f 10//10 51//51 50//50
f 10//10 52//52 51//51
f 10//10 55//55 52//52
f 11//11 25//25 38//38
f 11//11 38//38 42//42
f 11//11 56//56 25//25
f 11//11 60//60 56//56
f 11//11 61//61 60//60
f 12//12 14//14 16//16
f 13//13 21//21 15//15
f 14//14 44//44 17//17
f 16//16 21//21 20//20
f 17//17 44//44 19//19
f 18//18 19//19 67//67
f 19//19 44//44 67//67
f 20//20 21//21 22//22
f 21//21 23//23 22//22
f 22//22 23//23 29//29
f 22//22 28//28 40//40
f 22//22 29//29 28//28
f 23//23 43//43 29//29
f 24//24 26//26 27//27
f 24//24 27//27 39//39
f 24//24 28//28 31//31
f 24//24 31//31 37//37
f 24//24 35//35 26//26
f 24//24 36//36 35//35
f 24//24 37//37 36//36
f 24//24 39//39 28//28
f 25//25 26//26 38//38
f 25//25 27//27 26//26
f 25//25 56//56 57//57
f 25//25 57//57 58//58
f 25//25 58//58 59//59
f 25//25 59//59 27//27
f 26//26 29//29 38//38
f 26//26 32//32 29//29
f 26//26 34//34 32//32
f 26//26 35//35 34//34
f 27//27 52//52 53//53
f 27//27 53//53 54//54
f 27//27 54//54 55//55
f 27//27 59//59 52//52
f 28//28 29//29 33//33
f 28//28 30//30 31//31
f 28//28 33//33 30//30
f 28//28 39//39 41//41
f 28//28 41//41 40//40
f 29//29 32//32 33//33
f 29//29 42//42 38//38
f 29//29 43//43 42//42
f 30//30 33//33 31//31
f 31//31 32//32 34//34
f 31//31 33//33 32//32
f 31//31 34//34 37//37
f 34//34 35//35 37//37
f 35//35 36//36 37//37
f 44//44 45//45 46//46
f 44//44 46//46 67//67
f 46//46 47//47 64//64
f 46//46 50//50 47//47
f 46//46 64//64 65//65
f 46//46 65//65 67//67
f 47//47 48//48 63//63
f 47//47 49//49 48//48
f 47//47 50//50 49//49
f 47//47 63//63 64//64
f 48//48 49//49 62//62
f 48//48 62//62 63//63
f 49//49 50//50 61//61
f 49//49 61//61 62//62
f 50//50 51//51 60//60
f 50//50 60//60 61//61
f 51//51 52//52 60//60
f 52//52 54//54 53//53
f 52//52 55//55 54//54
f 52//52 59//59 60//60
f 56//56 59//59 57//57
f 56//56 60//60 59//59
f 57//57 59//59 58//58
f 61//61 64//64 62//62
f 61//61 65//65 64//64
f 62//62 64//64 63//63
f 65//65 66//66 67//67
# 130 faces, 0 coords texture

# End of File
